<?xml version="1.0" encoding="UTF-8"?> <svg xmlns="http://www.w3.org/2000/svg" xmlns:xlink="http://www.w3.org/1999/xlink" version="1.1" id="Layer_1" x="0px" y="0px" viewBox="0 0 600 246.6" style="enable-background:new 0 0 600 246.6;" xml:space="preserve"> <style type="text/css"> .st0{fill:#FFFFFF;} </style> <g id="Hogar_HGTV_Logo_1_"> <path class="st0" d="M261.8,83.5c10,8.9,15,21.8,15,38.8c0,17-5,29.9-15,38.8c-10,8.9-23.8,13.3-41.3,13.3 c-17.5,0-31.2-4.4-41.2-13.2c-10-8.8-14.9-21.8-14.9-38.9c0-17.1,5-30.1,14.9-38.9c9.9-8.8,23.7-13.2,41.2-13.2 C238,70.2,251.8,74.6,261.8,83.5z M202,117v10.8c0,14.1,6.2,21.2,18.5,21.2c12.5,0,18.7-7.1,18.7-21.2V117 c0-14.2-6.2-21.3-18.7-21.3C208.2,95.7,202,102.8,202,117z M491,77.8c9.6,5.1,14.4,13.4,14.4,24.8v38.9c0,2.1,0.5,3.9,1.5,5.3 c1,1.4,2.5,2.1,4.5,2.1h6.8v21.7c-0.4,0.3-1.4,0.7-2.9,1.2c-1.6,0.6-3.8,1.1-6.7,1.7c-2.9,0.6-6.2,0.9-10,0.9 c-7.3,0-13.3-1.1-18-3.3c-4.7-2.2-8-5.3-9.7-9.2c-4.8,3.8-10.1,6.8-16.1,9.1c-5.9,2.3-12.8,3.4-20.8,3.4c-23.4,0-35.1-9.3-35.1-28 c0-9.7,2.6-17.1,7.8-22.2c5.2-5.1,12.8-8.6,22.6-10.5c9.8-1.9,22.7-2.8,38.5-2.8v-4.9c0-3.9-1.4-6.9-4.1-8.9c-2.7-2-6.2-3-10.5-3 c-3.9,0-7.3,0.7-10.1,2.1c-2.8,1.4-4.3,3.6-4.3,6.6v0.8h-37c-0.1-0.6-0.2-1.5-0.2-2.6c0-9.4,4.5-16.9,13.5-22.5 c9-5.5,21.9-8.3,38.6-8.3C469,70.2,481.4,72.7,491,77.8z M444,132.2c-5.1,2.3-7.7,5.4-7.7,9.4c0,6.3,4.3,9.4,12.8,9.4 c4.9,0,9.2-1.3,12.9-4c3.7-2.6,5.6-5.9,5.6-9.8v-8.5C457,128.7,449.1,129.9,444,132.2z M596.6,71c2.3,0.7,3.4,1.1,3.4,1.2v31.6 h-12.1c-7.8,0-13.4,2-16.9,6c-3.5,4-5.2,10-5.2,17.9v44.4h-37.6V72.4H559l2.5,15.1c2.3-5.8,5.9-10.2,10.8-13.1 c4.9-3,10.5-4.4,16.6-4.4C591.7,70,594.3,70.3,596.6,71z M391.8,71.1c-3.9,4.2-9.6,7.3-17.3,9.3c3.7,2.8,6.5,6,8.6,9.8 c2.1,3.7,3.1,7.7,3.1,11.8c0,10.6-4,18.6-12,24.1c-8,5.4-18,8.1-30,8.1h-14.4c-8,0-11.9,1.8-11.9,5.5c0,1.8,0.9,3.2,2.7,4.3 c1.8,1.1,4.9,1.6,9.3,1.6h34.1c11.1,0,19.5,2.9,25.2,8.7c5.7,5.8,8.5,13.6,8.5,23.3c0,7.2-1.9,13.4-5.7,18.6 c-3.8,5.2-8.9,9.1-15.3,11.7c-6.4,2.7-13.4,4-21,4h-55.7c-4.5,0-8.7-1.1-12.6-3.2c-3.9-2.1-6.9-5.1-9.2-8.8 c-2.3-3.7-3.4-7.9-3.4-12.4c0-4.9,1.5-9.4,4.5-13.4c3-4,6.8-7,11.4-9c-3-2.1-5.4-4.7-7.2-7.8c-1.8-3-2.7-6.3-2.7-9.8 c0-4.9,1.8-9.4,5.5-13.4c3.7-4,8.2-6.7,13.6-8c-4.9-3.2-8.8-6.8-11.7-10.9c-2.9-4.1-4.4-8.4-4.4-13c0-11.6,4.7-19.9,14.1-24.9 c9.4-5,21.9-7.5,37.4-7.5c6.8,0,12.3,0.4,16.5,1.1c6.2-3.9,10.2-7.5,12-10.7c1.8-3.2,2.7-5.5,2.7-8.7h31.1 C397.6,61,395.7,67,391.8,71.1z M313.2,174.5c-1.8,1.6-2.7,3.8-2.7,6.7c0,2.9,0.9,5.2,2.8,7c1.9,1.8,4.2,2.7,7,2.7h29.5 c2.8,0,5.1-0.9,7.1-2.6c2-1.7,2.9-4,2.9-6.9c0-2.9-0.9-5.2-2.8-6.8c-1.9-1.6-4.3-2.5-7.2-2.5h-29.5 C317.4,172.1,315,172.9,313.2,174.5z M324.7,92.7c-2.7,2.1-4,5.2-4,9.3c0,4.2,1.2,7.3,3.7,9.4c2.5,2.1,6,3.1,10.5,3.1 c4.5,0,8.1-1,10.7-3.1c2.6-2.1,3.9-5.2,3.9-9.4s-1.3-7.3-3.9-9.4c-2.6-2.1-6.2-3.1-10.7-3.1C330.7,89.5,327.3,90.6,324.7,92.7z M480.7,211.9l-40.9-26.5l-40.9,26.5H480.7z M399,245.9h10.4v-11.1h9.7v11.1h10.4v-31h-10.4v10.9h-9.7v-10.9H399V245.9z M430.8,230.5c0,9.6,7.7,16.1,17.4,16.1c5.6,0,10.6-1.9,14-4.7v-14.4h-15v7.2h5.3v2.1c-0.8,0.4-1.8,0.9-3.5,0.9 c-3.9,0-7.1-2.7-7.1-7.1v-0.1c0-4.2,2.6-7,6.7-7c2.6,0,4.8,0.7,6.9,2.4l5.8-7c-3.4-2.9-8-4.7-13.3-4.7 C438.1,214.2,430.8,221.2,430.8,230.5L430.8,230.5 M505.7,214.9l-6,17.4l-6-17.4h-31.4v8.7h8.2v22.3h10.4v-22.3h4.8l9,22.3h9.9 l12.6-31H505.7z M156.3,54.4c0-3.4-1.7-6.5-4.5-8.4L83.6,1.6c-3.3-2.2-7.6-2.2-10.9,0L4.5,46.1c-2.8,1.8-4.5,5-4.5,8.4v95.1 c0,12.7,10.3,23,23,23c0,0,0,0,0,0s0,0,0,0h17.7c0,0,0,0,0,0c0,0,0,0,0,0c12.7,0,23-10.3,23-22.9c0,0,0,0,0,0v-36 c0-4.4,1.5-8.2,4.4-11.2c2.9-3,6.7-4.6,11.4-4.6c4.1,0,7.2,1.3,9.4,3.9c2.2,2.6,3.3,6.1,3.3,10.4v60.5h41c0,0,0,0,0,0c0,0,0,0,0,0 c12.7,0,23-10.3,23-22.9c0,0,0-0.1,0-0.1c0,0,0-0.1,0-0.1L156.3,54.4z M145.1,151.4c0,4.1-3.3,7.5-7.5,7.5c-4.1,0-7.5-3.3-7.5-7.5 h0v-43.9c0-12.2-2.9-21.5-8.8-28c-5.8-6.5-14.6-9.7-26.3-9.7c-6,0-11.7,1.1-17.1,3.3c-5.5,2.2-10.2,5.4-14.3,9.4V44.3 c0-3.9-4.4-6.3-7.7-4.2L25.9,59.8v91.8c-0.1,4-3.4,7.2-7.5,7.2c-0.2,0-0.4,0-0.7,0c-3.8-0.3-6.8-3.5-6.8-7.4h0V55.9l61.7-40.7 c3.3-2.2,7.7-2.2,11,0l61.4,40.5V151.4z"></path> </g> </svg> 