<?xml version="1.0" encoding="UTF-8"?> <svg xmlns="http://www.w3.org/2000/svg" xmlns:xlink="http://www.w3.org/1999/xlink" version="1.1" x="0px" y="0px" viewBox="0 0 600 81" style="enable-background:new 0 0 600 81;" xml:space="preserve"> <style type="text/css"> .st0{display:none;} .st1{display:inline;fill:#1E1E1E;} .st2{fill:#FFFFFF;} </style> <g id="BACKGROUND" class="st0"> <rect x="-85.5" y="-184.6" class="st1" width="400" height="400"></rect> </g> <g id="LOGOS"> <g> <path class="st2" d="M197.9,0c-22.3,0-40.5,18.2-40.5,40.5c0,22.3,18.2,40.5,40.5,40.5s40.5-18.2,40.5-40.5 C238.3,18.2,220.2,0,197.9,0 M197.9,53.9c-7.4,0-13.4-6-13.4-13.4c0-7.4,6-13.4,13.4-13.4c7.4,0,13.4,6,13.4,13.4 C211.3,47.9,205.3,53.9,197.9,53.9z"></path> <path class="st2" d="M460.6,0c-22.3,0-40.5,18.2-40.5,40.5c0,22.3,18.1,40.5,40.5,40.5c22.3,0,40.5-18.2,40.5-40.5 C501,18.2,482.9,0,460.6,0 M460.6,53.9c-7.4,0-13.4-6-13.4-13.4c0-7.4,6-13.4,13.4-13.4c7.4,0,13.4,6,13.4,13.4 C474,47.9,468,53.9,460.6,53.9z"></path> <path class="st2" d="M372.2,1.5h-35.1v77.9h35.1c21.5,0,38.9-17.5,38.9-38.9C411.2,19,393.7,1.5,372.2,1.5 M372.2,52.9h-8.6V28.1 h8.6c6.8,0,12.4,5.6,12.4,12.4C384.7,47.3,379.1,52.9,372.2,52.9z"></path> <polyline class="st2" points="96.6,34.1 96.6,1.5 77.9,1.5 0,79.4 37.5,79.4 70.1,46.8 70.1,79.4 88.8,79.4 121.4,46.8 121.4,79.4 147.9,79.4 147.9,1.5 129.2,1.5 96.6,34.1 "></polyline> <polyline class="st2" points="299.4,34.1 266.8,1.5 248.1,1.5 248.1,79.4 274.6,79.4 274.6,46.8 307.2,79.4 325.9,79.4 325.9,1.5 299.4,1.5 299.4,34.1 "></polyline> <polyline class="st2" points="584.2,1.5 560.2,25.6 560.2,1.5 505.9,1.5 505.9,12.7 520.3,12.7 520.3,44.7 531.4,44.7 531.4,12.7 549,12.7 549,44.7 556.9,44.7 600,1.5 584.2,1.5 "></polyline> <g> <path class="st2" d="M564,42.3v2.4h-0.4v-2.4h-0.8v-0.4h1.9v0.4H564z"></path> <path class="st2" d="M567.2,44.7v-1.8l-0.6,1.3h-0.3l-0.7-1.3v1.8h-0.4v-2.8h0.4l0.8,1.7l0.8-1.7h0.4v2.8H567.2z"></path> </g> </g> </g> </svg> 