<?xml version="1.0" encoding="UTF-8"?> <svg xmlns="http://www.w3.org/2000/svg" xmlns:xlink="http://www.w3.org/1999/xlink" version="1.1" x="0px" y="0px" viewBox="0 0 600 136.4" style="enable-background:new 0 0 600 136.4;" xml:space="preserve"> <style type="text/css"> .st0{display:none;} .st1{display:inline;fill:#1E1E1E;} .st2{fill:#FFFFFF;} </style> <g id="BACKGROUND" class="st0"> <rect x="-103.1" y="-178" class="st1" width="400" height="400"></rect> </g> <g id="LOGOS"> <g> <path class="st2" d="M119.9,0c2.9,7.2,4.3,15.3,4.3,24.3c-0.2,15.6-4.3,27.9-12.3,36.9c-8,9-18.7,13.5-32.1,13.7 c-11,0-21.2-3-23.8-5.9v33.9c0.1,1.9-0.4,2.7-1.5,2.5H15.7c-0.7,0.1-1.1-0.1-1.3-0.3c-0.2-0.3-0.3-1.1-0.3-2.4V0H0v136.4 c22,0,113.8,0,113.8,0c12.5,0,22.6-10.1,22.6-22.6V0H119.9z M69.6,39.9c4.7,0,8.3-1.3,10.9-4c2.6-2.6,3.9-6.5,4-11.7 c0-4.6-1.4-8.2-4-10.9c-2.6-2.7-6.2-4.1-10.8-4.1c-4.7,0-8.4,1.4-11.2,4c-2.8,2.7-4.2,6.3-4.2,11c0.1,5.6,1.5,9.6,4.2,12 C61.1,38.7,64.9,39.9,69.6,39.9"></path> <path class="st2" d="M259.4,0H145.6v136.4H170c-4.5-7.9-6.9-17.1-6.9-27.6c0.2-15.9,5.3-28.6,15.1-38.1 c9.8-9.5,22.9-14.4,39.3-14.6c16.1,0.3,29,5.2,38.6,14.7c9.6,9.5,14.5,22.2,14.7,38c-0.1,10.4-2.3,19.6-6.7,27.6c0,0,0,0,0,0H282 c0-22,0-113.8,0-113.8C282,10.1,271.9,0,259.4,0z M216.6,93.7c-4.7,0.1-8.4,1.4-11.2,4.1c-2.8,2.6-4.2,6.3-4.2,11 c0.1,5.5,1.5,9.6,4.2,12c2.8,2.5,6.5,3.7,11.2,3.6c4.7,0,8.3-1.4,10.9-4c2.6-2.7,3.9-6.5,4-11.7c-0.1-4.6-1.4-8.2-4-10.9 C224.8,95.1,221.2,93.8,216.6,93.7"></path> <path class="st2" d="M313.8,0c-12.5,0-22.6,10.1-22.6,22.6v113.8h27.1c0.1-0.3,0.2-0.6,0.3-0.9c0.4-1.3,1.2-3.4,2.3-6.3 c1.1-2.9,2.2-5.9,3.4-9.1c1.2-3.1,2-5.7,2.7-7.6c0.3-1,0.6-1.6,1-1.7c0.4-0.1,1.1,0.1,2.2,0.6c2.8,1.4,6.1,2.8,9.9,4.2 c3.8,1.3,7.8,2.1,12.1,2.2c7.7,0.1,14-1.2,18.7-4c4.7-2.8,7.1-7.8,7.2-15c-4.3,3.5-8.6,6-12.9,7.4c-4.4,1.4-9.4,2.1-15.1,2.1 c-7.8,0-14.8-1.8-21.1-5.4c-6.3-3.6-11.3-8.9-14.9-15.9c-3.7-7-5.6-15.8-5.7-26.2c0.3-15,4.5-26.5,12.6-34.4 c8.1-7.9,18.7-11.9,31.8-12c3.3,0,6.8,0.6,10.4,1.6c3.7,1,6.9,2.3,9.9,3.9c3,1.6,5.1,3.4,6.3,5.3V19c0-1,0.1-1.7,0.4-2 c0.3-0.3,0.7-0.4,1.4-0.4H417c0.7,0,1,0.3,1.2,0.8c0.1,0.5,0.2,1,0.2,1.5v66.8c0.1,12.8-1.6,23.6-5.3,32.4 c-3.3,7.7-8.8,13.8-16.4,18.2h31V0C405.6,0,313.8,0,313.8,0z M351.7,51.1c-2.8,2.8-4.2,6.5-4.3,11.2c0.1,5.2,1.5,9.2,4.3,11.8 c2.8,2.7,6.5,4,11.2,4c4.7,0,8.3-1.4,10.9-4.1c2.6-2.7,3.9-6.6,4-11.8c-0.1-4.6-1.4-8.3-4-11.1c-2.6-2.8-6.2-4.2-10.8-4.3 C358.2,46.9,354.5,48.3,351.7,51.1"></path> <path class="st2" d="M552.4,0c7.1,9,10.8,20.2,11,33.8c-0.1,10.4-2.3,19.6-6.7,27.6c-4.4,8-10.6,14.2-18.5,18.7 c-7.9,4.5-17.2,6.8-27.9,6.9c-10.8-0.1-20.3-2.3-28.5-6.8c-8.2-4.4-14.6-10.6-19.2-18.6c-4.6-7.9-6.9-17.2-7-27.8 c0.2-13.6,4-24.9,11.3-33.8h-30.1c0,22,0,113.8,0,113.8c0,12.5,10.1,22.6,22.6,22.6h113.8V0H552.4z M509.1,49.5 c4.7,0,8.3-1.3,10.9-4c2.6-2.6,3.9-6.5,4-11.7c-0.1-4.6-1.4-8.2-4-10.9c-2.6-2.7-6.2-4.1-10.8-4.1c-4.7,0.1-8.4,1.4-11.2,4.1 c-2.8,2.7-4.2,6.3-4.3,11c0.1,5.6,1.5,9.6,4.3,12C500.7,48.3,504.4,49.5,509.1,49.5"></path> <polygon class="st2" points="581.2,122 577.8,122 577.8,120.1 586.7,120.1 586.7,122 583.4,122 583.4,134.2 581.2,134.2 "></polygon> <polygon class="st2" points="588,120.1 591.6,120.1 594.1,130.6 594.1,130.6 596.6,120.1 600,120.1 600,134.2 597.9,134.2 597.9,122.5 597.8,122.5 595,134.2 593.1,134.2 590.2,122.5 590.2,122.5 590.2,134.2 588,134.2 "></polygon> </g> </g> </svg> 