<?xml version="1.0" encoding="UTF-8"?> <svg xmlns="http://www.w3.org/2000/svg" xmlns:xlink="http://www.w3.org/1999/xlink" version="1.1" x="0px" y="0px" viewBox="0 0 600 342.4" style="enable-background:new 0 0 600 342.4;" xml:space="preserve"> <style type="text/css"> .st0{display:none;} .st1{display:inline;fill:#1E1E1E;} .st2{fill:#FFFFFF;} </style> <g id="BACKGROUND" class="st0"> <rect x="-126.4" y="-158" class="st1" width="400" height="400"></rect> </g> <g id="LOGOS"> <g> <path class="st2" d="M555.2,226.2c0,37.1-30.6,59.9-78,59.9h-44l-46.7-46.7h92.8c9.5,0,11-13.7,1.7-15.8l-17.7-3.9 c-39.6-8.7-74.5-19.4-74.5-56.8v-0.5c0-33.6,26.3-59.6,75-59.6h33.5l46.2,46.2h-79.9c-9.5,0-11,13.7-1.7,15.8l17.7,3.9 c44.9,9.9,75.5,21.5,75.5,57.1V226.2L555.2,226.2z M290.2,291.8c-20.4,0-39.2-6.6-54.6-17.7v11.9h-53.7V56.3h60.9v62 c13.9-8.2,30-12.9,47.3-12.9c51.5,0,93.2,41.7,93.2,93.2C383.4,250.1,341.6,291.8,290.2,291.8L290.2,291.8z M166.1,177.7h-46.4 v108.4l-63.4-63.4V56.3h63.4v58h46.4V177.7L166.1,177.7z M503.6,0H0v245.9l96.4,96.4H600V96.5L503.6,0L503.6,0z"></path> <path class="st2" d="M290.2,166.2c-17.9,0-32.4,14.5-32.4,32.4c0,17.9,14.5,32.4,32.4,32.4c17.9,0,32.4-14.5,32.4-32.4 C322.5,180.7,308,166.2,290.2,166.2L290.2,166.2z"></path> <polygon class="st2" points="549.8,269.7 548.5,269.7 548.5,274.3 547.7,274.3 547.7,269.7 546.5,269.7 546.5,269 549.8,269 549.8,269.7 "></polygon> <polygon class="st2" points="554.7,274.3 553.9,274.3 553.9,269.9 553.9,269.9 552.8,274.3 552.1,274.3 551,269.9 551,269.9 551,274.3 550.2,274.3 550.2,269 551.5,269 552.5,272.9 552.5,272.9 553.4,269 554.7,269 554.7,274.3 "></polygon> </g> </g> </svg> 