<?xml version="1.0" encoding="UTF-8"?> <svg xmlns="http://www.w3.org/2000/svg" xmlns:xlink="http://www.w3.org/1999/xlink" version="1.1" x="0px" y="0px" viewBox="0 0 600 142" style="enable-background:new 0 0 600 142;" xml:space="preserve"> <style type="text/css"> .st0{display:none;} .st1{display:inline;fill:#1E1E1E;} .st2{fill:#FFFFFF;} </style> <g id="BACKGROUND" class="st0"> <rect x="-74.7" y="-170.3" class="st1" width="400" height="400"></rect> </g> <g id="LOGOS"> <g> <path class="st2" d="M167.9,30.3c-1.1,0-2.1-0.4-2.9-1.2C151.4,15.9,135,8.9,116.4,8.4C97.7,8,81,14.1,66.8,26.7 c-1.7,1.5-4.4,1.4-5.9-0.3c-1.5-1.7-1.4-4.4,0.3-5.9C77.1,6.4,95.7-0.5,116.6,0c20.8,0.5,39.1,8.3,54.2,23.1 c1.7,1.6,1.7,4.3,0.1,5.9C170,29.9,168.9,30.3,167.9,30.3L167.9,30.3z"></path> <path class="st2" d="M151,43.2c-1,0-1.9-0.3-2.7-1c-9.1-7.8-19.6-11.8-31.9-12.1c-9.8-0.2-18.9,2-26.8,6.6c-2,1.2-4.6,0.5-5.7-1.5 c-1.2-2-0.5-4.6,1.5-5.7c9.3-5.5,19.9-8.1,31.3-7.8c14.2,0.4,26.7,5.1,37.2,14.1c1.8,1.5,2,4.2,0.5,5.9 C153.4,42.7,152.2,43.2,151,43.2L151,43.2z"></path> <path class="st2" d="M558.3,98.8c0,1.5-0.4,2.2-1.1,2.9c-0.6,0.7-1.3,1.1-2.7,1.1c-1.3,0-2.1-0.3-2.9-1.1 c-0.7-0.7-1.1-1.4-1.1-2.9l0-15.8l14.3,0c-0.2,0.2-0.5,0.4-0.7,0.7c-3.7,3.6-5.7,8.4-5.7,13.7L558.3,98.8L558.3,98.8z M578.5,122.9c-6.5,6.5-14.5,9.8-24,9.8c-9.6,0-17.7-3.2-24.1-9.7c-6.5-6.5-9.7-14.5-9.7-24.1l0-24.5h-14.8c-3.1,0-5.6,1-7.3,2.7 c-1.8,1.8-2.7,4-2.7,6.6l0,18.2c-0.1,8.6-3.1,15.8-9,21.8c-5.9,6-13.1,9-21.7,9c-3.1,0-5.7-1-7.6-2.9c-1.9-1.9-2.9-4.5-2.9-7.6 c0-3.1,1-5.7,2.9-7.7c1.9-2,4.5-3,7.6-3c2.7,0,5-0.9,6.8-2.8c1.8-1.8,2.7-4.1,2.7-6.8c-0.1-0.9-0.1-2,0-3.1c0-4.2,0-6.3,0-6.4 l0-8.6c0-8.7,2.9-16,8.9-21.9c5.9-5.9,13.2-8.6,21.9-8.6l15.1,0l0-8.3c0-3.1,1-5.7,2.9-7.7c1.9-2,4.5-3,7.6-3c3.1,0,5.7,1,7.7,3 c2,2,3,4.6,3,7.7l0,8.3l35.9,0c3.1,0,5.7,1,7.6,2.9c1.9,1.9,2.9,4.5,2.9,7.6c0,7.1-3.5,10.6-10.5,10.7l-35.9,0l0,24.5 c0,3.6,1.2,6.6,3.7,9c2.5,2.5,5.5,3.7,9,3.7c3.6,0,6.5-1.2,8.9-3.7c2.4-2.5,3.6-5.5,3.6-9l0-1.4c0-3,1-5.5,3-7.5c2-2,4.6-3,7.6-3 c3,0,5.5,1,7.5,3c2,2,3,4.5,3,7.5l0,1.4C588.2,108.3,584.9,116.3,578.5,122.9L578.5,122.9z M447.8,123.4c0,5.3-4.5,9.6-10.1,9.6 c-4,0-7.5-2.2-9.2-5.5c0,0-8.5,5.6-20.8,5.6c-11.3,0-20.8-3.8-28.4-11.6c-7.7-7.7-11.5-17.2-11.5-28.5c0-11.3,3.8-20.8,11.5-28.4 c7.7-7.7,17.1-11.5,28.4-11.5c11.3,0,20.8,3.8,28.5,11.5c7.7,7.7,11.6,17.1,11.6,28.4V123.4L447.8,123.4z M360.4,105.3 c-2.5-1.3-5.4-2.1-8.5-2.2c-0.2,0-7.3,0-10.4,0l-1.5,0c-0.2,0-0.3,0-0.5,0l-0.2,0c-2.6-0.2-4.6-1.1-6.4-2.9c-2.1-2.1-3-4.3-3-7.2 c0-2.9,0.9-5.2,3-7.2c1.8-1.9,3.9-2.8,6.3-2.9l0.4,0c0.2,0,0.4,0,0.5,0l1.6,0c10,0,10.1,0,10.3,0c3.1-0.1,6-0.9,8.5-2.3 c-1,4-1.5,8.2-1.5,12.7C359,97.3,359.5,101.4,360.4,105.3L360.4,105.3z M52.8,83.5c-0.2,0.2-0.5,0.4-0.7,0.7 c-3.7,3.6-5.7,8.4-5.7,13.7l0,1.5c0,1.5-0.4,2.2-1.1,2.9c-0.7,0.7-1.3,1.1-2.8,1.1c-1.3,0-2.1-0.3-2.9-1.2 c-0.8-0.8-1.1-1.6-1.1-2.9l0-15.8L52.8,83.5L52.8,83.5z M359,129.9c-1.8,1.8-4.1,2.8-6.9,3c-0.2,0-11.4,0-11.7,0 c-11.3,0-20.8-3.8-28.5-11.6c-4.1-4.1-7.1-8.8-9-13.9c-0.3-0.9-0.6-1.8-0.9-2.8l0,17.8c0,3.1-1,5.7-2.9,7.6 c-1.9,1.9-4.5,2.9-7.6,2.9c-3.1,0-5.7-1-7.7-2.9c-2-1.9-3-4.5-3-7.6l0-35.6c0-3.4-1.2-6.4-3.7-8.9c-1.4-1.4-2.9-2.3-4.6-2.9 c-1.4-0.5-4.7-0.7-6.3-0.7c-1.6,0-4.9,0.3-6.3,0.8c-1.7,0.6-3.2,1.6-4.6,2.9c-2.5,2.5-3.7,5.4-3.7,8.9l0,35.6c0,3.1-1,5.7-3,7.6 c-2,1.9-4.5,2.9-7.7,2.9c-3.1,0-5.7-1-7.6-2.9c-1.9-1.9-2.9-4.5-2.9-7.6l0-18.4c-1.7,6.6-5.1,12.5-10.2,17.6 c-7.7,7.7-17.2,11.6-28.5,11.6c-11.3,0-20.8-3.8-28.4-11.6c-5.2-5.2-8.6-11.2-10.3-18.1c-1.7,6.8-5.1,12.9-10.3,18.1 c-7.7,7.7-17.2,11.6-28.5,11.6c-11.3,0-20.8-3.8-28.5-11.6c-5-5-8.3-10.7-10.1-17.2c-1,7.2-4.1,13.5-9.3,18.7 c-6.5,6.5-14.5,9.8-24,9.8c-9.6,0-17.7-3.2-24.1-9.7c-6.5-6.5-9.7-14.5-9.7-24.1l0-53.9c0-3.1,1-5.7,2.9-7.7c1.9-2,4.5-3,7.6-3 c3.1,0,5.7,1,7.7,3c2,2,3,4.6,3,7.7l0,8.3l35.9,0c3.1,0,5.7,1,7.6,2.9c1.9,1.9,2.9,4.5,2.9,7.6c0,7.1-3.5,10.7-10.5,10.7l-35.9,0 l0,24.5c0,3.6,1.2,6.6,3.7,9c2.5,2.5,5.5,3.7,9,3.7c3.6,0,6.5-1.2,8.9-3.7c2.4-2.5,3.6-5.5,3.6-9l0-1.4c0-3,1-5.5,3-7.5 c2-2,4.6-3,7.6-3c3,0,5.5,1,7.5,3c0.5,0.4,0.8,0.9,1.2,1.4c0.3-10.6,4.1-19.6,11.4-26.9c7.7-7.7,17.1-11.5,28.4-11.5 c11.3,0,20.8,3.8,28.5,11.5c5.2,5.2,8.6,11.2,10.3,18c1.7-6.8,5.1-12.8,10.2-18c7.7-7.7,17.1-11.5,28.4-11.5 c11.3,0,20.8,3.8,28.5,11.5c5.3,5.3,8.7,11.4,10.4,18.3c0.8-7.8,4-14.6,9.6-20.2c6.5-6.5,16.4-9.7,25.9-9.7 c9.5,0,19.4,3.2,25.9,9.7c5.5,5.4,8.6,11.9,9.5,19.4c0.3-1.3,0.7-2.6,1.2-3.8c1.9-5.2,4.9-9.8,9-13.9c7.7-7.7,17.2-11.6,28.4-11.6 c0.3,0,11.4,0,11.7,0c2.8,0.1,5.1,1.1,6.9,2.9c2,2,3,4.5,3,7.7c0,3.1-1,5.7-3,7.6c-1.8,1.8-4.2,2.8-7,2.9c-0.2,0-11.1,0-11.6,0 c0,0,0,0,0,0c-0.4,0-0.9,0-1.3,0.1c-4.7,0.3-8.7,2.1-12,5.5c-3.6,3.7-5.5,8.1-5.5,13.3c0,5.2,1.9,9.6,5.5,13.3 c3.4,3.4,7.4,5.2,12.1,5.5c0.4,0,0.8,0.1,1.3,0.1c0,0,0,0,0,0c0.5,0,11.4,0,11.6,0c2.8,0.1,5.2,1.1,7,2.9c2,1.9,3,4.5,3,7.6 C362,125.3,361,127.9,359,129.9L359,129.9z M596.8,97.4c0-5.3-1.9-10-5.5-13.6c-1.2-1.2-2.4-2.1-3.8-2.9c5.9-3,9.3-9,9.3-17.1 c0-5.4-1.9-10.2-5.5-13.7c-3.6-3.5-8.3-5.4-13.7-5.4l-27.2,0c-0.1-5.3-2-9.9-5.5-13.5c-3.6-3.6-8.4-5.5-13.8-5.5 c-5.5,0-10.2,1.9-13.8,5.6c-3.4,3.5-5.3,8.2-5.3,13.4l-6.5,0c-11.2,0-20.7,3.8-28.1,11.1c-7.6,7.6-11.4,17-11.4,28l0,8.7 c0,0.3,0,2.4,0,6.1c0,1.3,0,2.4,0,3.5c0,0.4-0.1,0.4-0.2,0.5c-0.1,0.1-0.2,0.2-0.7,0.2c-3.2,0-6.1,0.7-8.7,1.9V93 c0-13.6-4.8-25.2-14.2-34.6c-9.4-9.3-21-14-34.6-14c-13.6,0-25.2,4.8-34.6,14.1c-1,1-1.9,2-2.8,3.1c-0.4-4.6-2.3-8.7-5.5-11.9 c-3.3-3.3-7.7-5.2-12.5-5.4c-0.3,0-0.5,0-8.9,0c-1.9,0-3.3,0-3.3,0c-13.6,0-25.3,4.8-34.6,14.2c-1,1-2,2.1-2.9,3.2 c-1.3-1.7-2.7-3.3-4.3-4.9c-7.8-7.7-19.5-12.2-32-12.2c-12.5,0-24.2,4.5-32,12.3c-1.7,1.7-3.2,3.5-4.6,5.3c-1-1.2-2.1-2.4-3.2-3.5 c-9.4-9.3-21-14-34.6-14c-13.6,0-25.2,4.8-34.6,14.1c-1.5,1.5-2.9,3.1-4.1,4.7c-1.3-1.6-2.7-3.2-4.2-4.7c-9.4-9.3-21-14-34.6-14 c-12,0-22.5,3.7-31.2,11c-0.9-1.9-2.1-3.7-3.6-5.2c-3.6-3.5-8.3-5.4-13.7-5.4l-27.3,0c-0.1-5.3-2-9.9-5.5-13.5 c-3.6-3.6-8.4-5.5-13.8-5.5c-5.5,0-10.2,2-13.8,5.6C1.8,35.2,0,40,0,45.4l0,53.9c0,12,4.1,22.1,12.3,30.3 c8.1,8.1,18.3,12.2,30.2,12.2h0c11.9,0,22-4.2,30.1-12.4c1.5-1.5,2.9-3.1,4.1-4.8c0.9,1.1,1.9,2.2,3,3.3 c9.3,9.4,20.9,14.1,34.6,14.1h0c13.6,0,25.2-4.8,34.6-14.2c1.5-1.5,2.9-3.1,4.2-4.7c1.3,1.6,2.6,3.2,4.1,4.7 c9.3,9.4,20.9,14.1,34.5,14.1h0c12.2,0,22.8-3.9,31.7-11.4c0.9,2.1,2.2,4,3.8,5.7c3.6,3.5,8.3,5.4,13.7,5.4h0 c5.4,0,10.1-1.9,13.7-5.4c3.7-3.6,5.6-8.3,5.6-13.8l0-35.6c0-1.1,0.3-1.9,1.1-2.7c0.4-0.4,0.8-0.7,1.2-0.9 c0.7-0.1,2.5-0.3,3.5-0.3c1.1,0,2.8,0.2,3.6,0.3c0.4,0.2,0.8,0.5,1.2,0.9c0.8,0.8,1.1,1.6,1.2,2.7l0,35.6c0,5.5,1.9,10.2,5.6,13.8 c3.6,3.5,8.3,5.3,13.7,5.3c5.4,0,10.2-1.9,13.7-5.5c1.6-1.6,2.8-3.4,3.7-5.5c8.7,7.2,19.1,10.9,31.1,10.9l0.1,0c0.2,0,1.6,0,3.4,0 c8.3,0,8.3,0,8.7,0c4.9-0.3,9.3-2.2,12.6-5.5c3.1-3.1,4.9-7,5.4-11.5c0.9,1.1,1.9,2.1,2.9,3.1c9.3,9.4,21,14.1,34.6,14.1 c7.8,0,14.3-1.8,18.8-3.6c3.2,2.3,7,3.5,11.2,3.5c5.4,0,10.3-2.3,13.7-5.8c0,0,0,0,0,0c3.6,3.5,8.3,5.4,13.7,5.4 c10.9,0,20.3-3.9,27.8-11.5c7.5-7.6,11.4-16.9,11.5-27.9l0-18.2c0-0.2,0-0.3,0.1-0.4c0.1-0.1,0.5-0.2,1.2-0.2h6.1l0,15.8 c0,12,4.1,22.1,12.3,30.3c8.1,8.1,18.3,12.2,30.2,12.2h0.1c11.9,0,22-4.2,30.1-12.4c8.1-8.2,12.2-18.3,12.2-30.2L596.8,97.4 L596.8,97.4z"></path> <path class="st2" d="M191.9,74.4V83c3,0,5.2,0.9,7.3,3c2.1,2,3,4.2,3,7.2c0,2.9-0.9,5.2-3,7.3c-2.1,2.1-4.3,3-7.3,3 c-2.9,0-5.1-0.9-7.2-3c-2.1-2.1-3-4.3-3-7.3c0-2.9,0.9-5.2,2.9-7.2c2-2,4.3-3,7.2-3L191.9,74.4L191.9,74.4 c-5.2,0-9.7,1.8-13.3,5.5c-3.7,3.7-5.5,8.1-5.5,13.3c0,5.2,1.8,9.7,5.5,13.4c3.7,3.7,8.1,5.6,13.3,5.6c5.2,0,9.7-1.9,13.4-5.6 c3.7-3.7,5.6-8.2,5.6-13.4c0-5.2-1.9-9.7-5.6-13.3C201.6,76.2,197.1,74.4,191.9,74.4L191.9,74.4z"></path> <path class="st2" d="M407.7,103.3c-5.7,0-10.3-4.6-10.3-10.2c0-5.6,4.6-10.2,10.3-10.2c5.7,0,10.3,4.6,10.3,10.2 C418,98.7,413.4,103.3,407.7,103.3L407.7,103.3z M407.7,74.3c-10.5,0-18.9,8.4-18.9,18.9s8.5,18.9,18.9,18.9 c10.5,0,18.9-8.4,18.9-18.9S418.1,74.3,407.7,74.3L407.7,74.3z"></path> <polygon class="st2" points="114.6,61.3 124.2,80.7 145.7,83.8 130.2,99 133.9,120.4 114.7,110.3 95.4,120.4 99.1,99 83.5,83.9 105,80.7 114.6,61.3 "></polygon> <polygon class="st2" points="590.2,130.9 590.2,137.3 589,137.3 589,130.9 587,130.9 587,129.9 592.2,129.9 592.2,130.9 590.2,130.9 "></polygon> <polygon class="st2" points="598.9,137.3 598.9,132.4 597.2,136 596.3,136 594.6,132.4 594.6,137.3 593.5,137.3 593.5,129.9 594.6,129.9 596.8,134.5 598.9,129.9 600,129.9 600,137.3 598.9,137.3 "></polygon> </g> </g> </svg> 