<?xml version="1.0" encoding="utf-8"?>
<!-- Generator: Adobe Illustrator 27.0.1, SVG Export Plug-In . SVG Version: 6.00 Build 0)  -->
<svg version="1.1" id="Layer_1" xmlns="http://www.w3.org/2000/svg" xmlns:xlink="http://www.w3.org/1999/xlink" x="0px" y="0px"
	 viewBox="0 0 3200 1800" style="enable-background:new 0 0 3200 1800;" xml:space="preserve">
<style type="text/css">
	.st0{fill:url(#SVGID_1_);}
	.st1{fill:url(#SVGID_00000169532033849973366540000003583171377153204901_);}
	.st2{fill:url(#SVGID_00000079478586731979617640000002748016012008254093_);}
	.st3{fill:url(#SVGID_00000018917402447943509170000014782776992141746337_);}
</style>
<linearGradient id="SVGID_1_" gradientUnits="userSpaceOnUse" x1="-409.8327" y1="324.9042" x2="647.122" y2="941.6744">
	<stop  offset="0" style="stop-color:#4047FF"/>
	<stop  offset="1" style="stop-color:#04006C"/>
</linearGradient>
<path class="st0" d="M1265.1,1800H0V0h1151.4C1042,33.5,938.2,73.7,838.9,121v122.5L675.7,332v122.6L510.9,543
	c16.6,113.5,70,484.3,341.2,848.2C982.3,1568.1,1131.9,1702,1265.1,1800z"/>
<linearGradient id="SVGID_00000003098963286391178660000004197693395572833695_" gradientUnits="userSpaceOnUse" x1="1632.3853" y1="354.354" x2="2637.4475" y2="940.8431">
	<stop  offset="0" style="stop-color:#4047FF"/>
	<stop  offset="1" style="stop-color:#04006C"/>
</linearGradient>
<path style="fill:url(#SVGID_00000003098963286391178660000004197693395572833695_);" d="M3200,0v1800H1934.9
	c133.2-98,282.8-231.9,413.1-408.9c271.2-363.9,324.6-734.7,341.1-848.2l-164.8-88.4V332l-163.3-88.5V121
	C2261.8,73.7,2158,33.5,2048.6,0H3200z"/>
<g>
	
		<linearGradient id="SVGID_00000140710475243024471340000003460766935692001192_" gradientUnits="userSpaceOnUse" x1="507.5986" y1="900" x2="1266.9707" y2="900">
		<stop  offset="0" style="stop-color:#015CFE"/>
		<stop  offset="1" style="stop-color:#04006C"/>
	</linearGradient>
	<path style="fill:url(#SVGID_00000140710475243024471340000003460766935692001192_);" d="M1257.1,1800h9.9
		c-133-97.8-282.3-231.5-412.5-408.4c-114.9-154.1-204-327.5-265-515.4C540.3,725,522.6,605,514.1,546.8l164.5-88.2V336l163.3-88.4
		V125.1C945.7,75.8,1054.4,34.2,1169.2,0h-20.8c-108.8,33.4-212,73.4-310.8,120.5l-1.7,0.8V244l-163.3,88.4V455l-165.1,88.5l0.5,3.4
		c8.5,58,26.1,178.8,75.6,331.1c61.2,188.5,150.7,362.5,265.9,517.1C960.3,1545.5,1097.3,1681.5,1257.1,1800z"/>
	
		<linearGradient id="SVGID_00000143608356043895048760000005152535556266881465_" gradientUnits="userSpaceOnUse" x1="1933.0305" y1="900" x2="2692.4023" y2="900">
		<stop  offset="0" style="stop-color:#015CFE"/>
		<stop  offset="1" style="stop-color:#04006C"/>
	</linearGradient>
	<path style="fill:url(#SVGID_00000143608356043895048760000005152535556266881465_);" d="M2527.3,455V332.4L2364.1,244V121.4
		l-1.7-0.8c-98.8-47.1-202-87.2-310.8-120.5h-20.8c114.9,34.2,223.5,75.8,327.3,125.1v122.4l163.3,88.4v122.6l164.5,88.2
		c-8.5,58.2-26.2,178.2-75.2,329.3c-61,187.9-150.2,361.3-265,515.4c-130.3,177-279.6,310.7-412.5,408.4h9.9
		c159.8-118.5,296.8-254.5,407.5-404.9c115.3-154.7,204.7-328.7,265.9-517.1c49.4-152.3,67.1-273.1,75.6-331.1l0.5-3.4L2527.3,455z"
		/>
</g>
</svg>
