<?xml version="1.0" encoding="UTF-8"?> <svg xmlns="http://www.w3.org/2000/svg" xmlns:xlink="http://www.w3.org/1999/xlink" version="1.1" id="Layer_1" x="0px" y="0px" viewBox="0 0 797 338" style="enable-background:new 0 0 797 338;" xml:space="preserve"> <style type="text/css"> .st0{fill:#283D97;} .st1{fill:none;stroke:#283D97;stroke-width:0.75;stroke-miterlimit:10;} .st2{fill:#FFFFFF;} </style> <g> <g> <g> <g> <path class="st0" d="M573.5,119.3v-11.4c-3.9-0.3-7.7-0.5-11.6-0.5c-14.9,0-29.8,2.2-44,6.5v12c14.2-4.6,29.1-7,44-7 C565.8,118.8,569.6,119,573.5,119.3z M702.1,167.4c-5.9,0-11.8,0.7-17.6,2c-8.1-10.9-17.5-20.6-27.9-28.8v15 c7.7,7,14.7,14.9,20.8,23.6l2.3,3.3l3.9-1.1c6-1.7,12.2-2.5,18.4-2.5c37.5,0,68,30.5,68,68s-30.5,68-68,68H230 c-47.9,0-86.9-39-86.9-86.9c0-35.7,21.6-66.4,52.5-79.8v-12.3c-37.3,14-63.9,50-63.9,92.1c0,54.2,44.1,98.3,98.3,98.3h472.2 c43.8,0,79.4-35.6,79.4-79.4S745.9,167.4,702.1,167.4z"></path> </g> <g> <path class="st1" d="M573.5,119.3v-11.4c-3.9-0.3-7.7-0.5-11.6-0.5c-14.9,0-29.8,2.2-44,6.5v12c14.2-4.6,29.1-7,44-7 C565.8,118.8,569.6,119,573.5,119.3z M702.1,167.4c-5.9,0-11.8,0.7-17.6,2c-8.1-10.9-17.5-20.6-27.9-28.8v15 c7.7,7,14.7,14.9,20.8,23.6l2.3,3.3l3.9-1.1c6-1.7,12.2-2.5,18.4-2.5c37.5,0,68,30.5,68,68s-30.5,68-68,68H230 c-47.9,0-86.9-39-86.9-86.9c0-35.7,21.6-66.4,52.5-79.8v-12.3c-37.3,14-63.9,50-63.9,92.1c0,54.2,44.1,98.3,98.3,98.3h472.2 c43.8,0,79.4-35.6,79.4-79.4S745.9,167.4,702.1,167.4z"></path> </g> </g> <g> <path class="st2" d="M15.1,26.3h41.6c37.1,0,57.4,18.7,57.4,53.3c0,32.1-19.7,55.1-56.7,55.1H15.1V26.3z M42.9,49.3v62.8h12.6 c20.5,0,29.8-12,29.8-32.4c0-21.2-9.6-30.4-30.9-30.4H42.9z"></path> <path class="st2" d="M188.8,52.6l-6.5,24.8c-3.7-1.8-7.6-2.8-12.9-2.8c-8.8,0-15.9,7-15.9,20.6v39.5h-26.9V51.5h26.7v23 c3.4-16.9,9.8-24.2,22.7-24.2C181.4,50.3,185.5,51.1,188.8,52.6z"></path> <path class="st2" d="M233.6,136.1c-30.1,0-44.7-18-44.7-42.3c0-24.2,16.5-43.9,45.1-43.9c29.4,0,42.6,19.4,42.6,40.8v8h-62 c1.3,11,7.9,16.8,19.4,16.8c8.8,0,13.5-3.3,17.4-11.1l23.2,8.6C267.6,126.8,254.8,136.1,233.6,136.1z M214.9,85.5h35.6 c-0.6-9.5-5.6-16-17.1-16C223.1,69.5,216.7,75.1,214.9,85.5z"></path> <path class="st2" d="M282.3,115.6c0-9.9,4.6-15,11-19.1c6.2-4,15.3-6.2,31.2-9.6c12.6-2.7,14.4-4.7,14.4-9.1 c0-4.7-3.7-8.3-12.9-8.3c-9.5,0-16,5.2-19.4,14.8l-22.7-8.9c7.7-16.9,23.6-25.5,43-25.5c23.7,0,37.1,11,37.1,31.2v25.4 c0,7.4,2.1,9.9,7.3,9.9c2.1,0,3.9-0.4,5.5-1v16.2c-3,2.2-8.9,4.6-16.2,4.6c-13.7,0-21.1-5.9-21.7-19.4 c-4.9,12.3-16.5,19.7-30.6,19.7C292.1,136.4,282.3,128.5,282.3,115.6z M339.4,96.9v-3.4c-1.9,2.1-5.8,3.6-13.4,5.2 c-12.6,2.7-17.4,5.5-17.4,11.3c0,5,3.6,7.9,10.8,7.9C333.1,117.9,339.4,106.4,339.4,96.9z"></path> <path class="st2" d="M411.3,134.6h-26.9V51.5h26.7v19.3c5.2-14.2,14.2-20.9,27-20.9c14.1,0,22.6,7.6,25.7,20.3 c5.6-13.7,15.4-20.3,28.2-20.3c18,0,28.3,12.6,28.3,32.5v52.2h-26.9V90.4c0-13.4-3.6-19.4-13.7-19.4c-10.1,0-14.2,8-14.2,23.3 v40.4h-26.4V90.4c0-13.4-3.6-19.4-13.7-19.4c-10.1,0-14.2,8-14.2,23.3V134.6z"></path> <path class="st2" d="M570.2,26.3h28.5v108.3h-28.5V26.3z"></path> <path class="st2" d="M672.2,131.7c-4.5,2.7-10.5,4.5-17.8,4.5c-21.2,0-27.9-10.1-27.9-28.9V72.4h-17.8V51.5h18.1V31l24.8-11.9 v32.4h20.6v20.9h-20.6V103c0,8.3,3.4,11.4,10.4,11.4c4.2,0,6.8-0.9,10.2-2.4V131.7z"></path> <path class="st2" d="M108.9,288.6L96.4,277c-9.8,6.8-21.8,10.8-35.6,10.8c-26.3,0-38.7-11.3-38.7-28.1c0-14.2,8.6-22.9,24-29.5 C36.7,220,35,213,35,205.3c0-16.3,13.7-29.5,33.5-29.5c19.1,0,32.1,10.5,32.1,27.2c0,12.3-7.1,21.4-25.7,29.2l17.8,16.5 c5-7.7,8-16.8,9.4-24.6l23.5,5.5c-2.2,12.3-7.3,24.5-15.1,34.4l12.2,10.7L108.9,288.6z M63.9,266.2c5.9,0,11.1-1.6,15.7-4.5 l-23-21.2c-7.9,3.9-10.7,7.7-10.7,13.4C45.9,260.5,51.4,266.2,63.9,266.2z M64.2,222.2c12.2-5,14-9.2,14-14.4 c0-5.2-3.7-9.6-11.1-9.6c-7.1,0-10.8,4.9-10.8,10.4C56.2,213.2,58.4,216.7,64.2,222.2z"></path> <path class="st2" d="M165.7,231.6c0-30.3,19.7-55.7,54.5-55.7c36.7,0,54.6,24.9,54.6,55.7c0,30.7-18.7,55.7-55.1,55.7 C183.1,287.2,165.7,262.3,165.7,231.6z M245.9,231.6c0-20.3-8.8-32.2-25.5-32.2c-16.3,0-25.7,12.2-25.7,32.2 c0,19.6,8.2,31.9,25.4,31.9C237.1,263.5,245.9,251.6,245.9,231.6z"></path> <path class="st2" d="M333.9,285.7h-33.7l-18.1-83.1h27.5l11.1,59.4l0.9,7.7l1.5-7.9l14.8-59.2h21.5l14.1,59.2l1.2,7.9l1-7.9 l12.8-59.2h27.3l-20.5,83.1h-33.5l-12-53.7l-1.5-8.2l-1.2,8.2L333.9,285.7z"></path> <path class="st2" d="M423.8,202.6h26.7v19.1c5.3-14.2,15.3-20.8,28.3-20.8c18.4,0,29.2,12.6,29.2,32.5v52.2h-26.9v-44.2 c0-13.4-4.2-19.4-14.8-19.4c-10.4,0-15.7,8-15.7,23.3v40.4h-26.9V202.6z"></path> <path class="st2" d="M558.1,177.4h28.5v108.3h-28.5V177.4z"></path> <path class="st2" d="M660.1,282.8c-4.5,2.7-10.5,4.5-17.8,4.5c-21.2,0-27.9-10.1-27.9-28.9v-34.7h-17.8v-20.9h18.1v-20.5 l24.8-11.9v32.4h20.6v20.9h-20.6v30.6c0,8.3,3.4,11.4,10.4,11.4c4.2,0,6.8-0.9,10.2-2.4V282.8z"></path> </g> </g> </g> </svg> 