<?xml version="1.0" encoding="utf-8"?>
<!-- Generator: Adobe Illustrator 27.0.1, SVG Export Plug-In . SVG Version: 6.00 Build 0)  -->
<svg version="1.1" id="Layer_1" xmlns="http://www.w3.org/2000/svg" xmlns:xlink="http://www.w3.org/1999/xlink" x="0px" y="0px"
	 viewBox="0 0 854.6 366.1" style="enable-background:new 0 0 854.6 366.1;" xml:space="preserve">
<style type="text/css">
	.st0{fill:#FFFFFF;}
</style>
<g>
	<g>
		<g>
			<g>
				<g>
					<path class="st0" d="M850.6,85.1c-15.8-5.7-31.7-10.4-47.6-14.2v12.4c13.2,3.3,26.4,7.1,39.5,11.7v228.9
						c-133.3-45-268-20.9-398.3,2.5c-130.1,23.4-264.5,47.5-396.1,1.7V164.4h-12v172.2l4,1.4c57.4,20.6,115,28.1,172.5,28.1
						c78.7,0,157-14.1,233.8-27.9c131.4-23.6,267.2-48,400.1-0.3l8,2.9V86.5L850.6,85.1z"/>
				</g>
			</g>
			<g>
				<g>
					<path class="st0" d="M106.6,60.2c-2.2-13.8-8.7-22.4-22.9-22.4c-16.2,0-25.2,11.9-25.2,31.6c0,19.2,7.4,31.5,24.5,31.5
						c15.4,0,22.1-10.2,23.9-24.9l29,4.4C131.3,105.9,114,124,83.3,124c-38.9,0-53.2-24.9-53.2-54.6s19.2-54.6,54-54.6
						c29.4,0,45.6,15.6,50.8,38.5L106.6,60.2z"/>
					<path class="st0" d="M145.5,6.6h26.2v53.2c5.2-14,15-20.4,27.8-20.4c18.1,0,28.7,12.4,28.7,31.9v51.3h-26.4V79.1
						c0-13.1-4.1-19.1-14.6-19.1c-10.2,0-15.4,7.9-15.4,22.9v39.6h-26.4L145.5,6.6L145.5,6.6z"/>
					<path class="st0" d="M238.4,103.9c0-9.8,4.5-14.7,10.8-18.8c6.1-3.9,15-6.1,30.6-9.5c12.4-2.6,14.1-4.7,14.1-8.9
						c0-4.7-3.6-8.2-12.7-8.2c-9.3,0-15.7,5.1-19.1,14.6l-22.3-8.7c7.6-16.6,23.2-25.1,42.2-25.1c23.3,0,36.4,10.8,36.4,30.6v24.9
						c0,7.3,2,9.8,7.1,9.8c2,0,3.8-0.4,5.4-1v15.9c-2.9,2.2-8.7,4.5-15.9,4.5c-13.4,0-20.7-5.8-21.3-19.1
						c-4.8,12.1-16.2,19.4-30,19.4C248,124.3,238.4,116.5,238.4,103.9z M294.5,85.5v-3.4c-1.9,2-5.7,3.5-13.1,5.1
						c-12.4,2.6-17,5.4-17,11.1c0,5,3.5,7.7,10.6,7.7C288.2,106.1,294.5,94.8,294.5,85.5z"/>
					<path class="st0" d="M365,122.5h-26.4V40.9h26.2v18.9c5.1-14,14-20.5,26.5-20.5c13.8,0,22.1,7.4,25.2,20
						c5.5-13.4,15.2-20,27.7-20c17.6,0,27.8,12.4,27.8,31.9v51.3h-26.4V79.1c0-13.1-3.5-19.1-13.4-19.1s-14,7.9-14,22.9v39.6h-25.9
						V79.1C392.4,66,388.9,60,379,60s-14,7.9-14,22.9V122.5z"/>
					<path class="st0" d="M538.5,123.4c-13.7,0-21.1-7-25.5-17.8V154h-26.4V41h26.2v17.5c5-12.2,14.1-18.4,27.4-18.4
						c18.9,0,33.1,12.8,33.1,41.1C573.3,108.5,558.7,123.4,538.5,123.4z M546.5,81.7c0-13.7-4.8-22.1-17.5-22.1
						c-12.1,0-17.5,8.7-17.5,22.1c-0.1,13.4,4.7,21.6,17.5,21.6C541.5,103.3,546.5,95,546.5,81.7z"/>
					<path class="st0" d="M598.4,0c10.2,0,16,6.6,16,16.2c0,9.2-6,15.6-16,15.6c-10.5,0-16.3-6.4-16.3-15.6C582,6.6,587.9,0,598.4,0
						z M611.2,122.5h-26.5V40.9h26.5V122.5z"/>
					<path class="st0" d="M622.5,81.9c0-24.3,16.2-42.5,44.7-42.5c29.4,0,44.7,18.5,44.7,42.4S695.6,124,667.2,124
						C637.4,124,622.5,106.5,622.5,81.9z M684.7,81.7c0-13.7-4.8-22.1-17.5-22.1c-12.1,0-17.5,8.7-17.5,22.1
						c-0.1,13.4,4.7,21.6,17.5,21.6C679.8,103.3,684.7,95,684.7,81.7z"/>
					<path class="st0" d="M723.2,40.9h26.2v18.8c5.2-14,15-20.4,27.8-20.4c18.1,0,28.7,12.4,28.7,31.9v51.3h-26.4V79.1
						C779.6,66,775.5,60,765,60c-10.2,0-15.4,7.9-15.4,22.9v39.6h-26.4L723.2,40.9L723.2,40.9z"/>
					<path class="st0" d="M85.1,164.5h28v106.3h-28V164.5z"/>
					<path class="st0" d="M128.5,189.3h26.2V208c5.2-14,15-20.4,27.8-20.4c18.1,0,28.7,12.4,28.7,31.9v51.3h-26.4v-43.4
						c0-13.1-4.1-19.1-14.6-19.1c-10.2,0-15.4,7.9-15.4,22.9v39.6h-26.4L128.5,189.3L128.5,189.3z"/>
					<path class="st0" d="M281.6,223.9c-1.3-9.9-5.1-16-15.3-16c-11.8,0-16.9,8.4-17,22.1c0,13.7,4.5,21.6,17,21.6
						c10.1,0,13.8-6.1,15.4-15.9l27.1,5.1c-4.1,19.1-18.5,31.5-42.5,31.5c-29.7,0-44.1-17.5-44.1-42.1c0-24.3,16.2-42.5,45-42.5
						c24.9,0,37,11.8,41.4,30L281.6,223.9z"/>
					<path class="st0" d="M344.5,270.8h-26.4v-116h26.4V270.8z"/>
					<path class="st0" d="M439.4,270.8h-26.2v-18.6c-5.2,13.8-14.4,20.2-26.7,20.2c-18.6,0-27.8-12.4-27.8-31.9v-51.3H385v43.6
						c0,13.1,3.6,19.1,13.7,19.1c9.8,0,14.3-8.4,14.3-23.2v-39.5h26.4V270.8z"/>
					<path class="st0" d="M464.3,240.4c6.8,7.7,15.3,11.4,24.8,11.4c8.2,0,11.2-3.2,11.2-7.1c0-5.2-8.2-5.8-24-8.3
						c-16.2-2.6-26.4-8.2-26.4-22.6s11.8-26.5,34.2-26.5c17,0,30.4,4.5,41.1,16l-17.9,16c-6-7.6-14.6-11.4-24.5-11.4
						c-8.3,0-11.1,3.1-11.1,6.7c0,4.8,6.3,5.7,20.5,7.9c18.4,2.8,30.4,8.2,30.4,23.5c0,15.6-12.1,26.7-33.4,26.7
						c-20.1,0-33.7-5.8-42.8-15.6L464.3,240.4z"/>
					<path class="st0" d="M547.4,148.3c10.2,0,16,6.6,16,16.2c0,9.2-6,15.6-16,15.6c-10.5,0-16.3-6.4-16.3-15.6
						C531.1,154.9,537,148.3,547.4,148.3z M560.3,270.8h-26.5v-81.6h26.5V270.8z"/>
					<path class="st0" d="M571.6,230.2c0-24.3,16.2-42.5,44.7-42.5c29.4,0,44.7,18.5,44.7,42.4s-16.3,42.2-44.7,42.2
						C586.5,272.3,571.6,254.8,571.6,230.2z M633.8,230c0-13.7-4.8-22.1-17.5-22.1c-12.1,0-17.5,8.7-17.5,22.1
						c-0.1,13.4,4.7,21.6,17.5,21.6C628.9,251.6,633.8,243.3,633.8,230z"/>
					<path class="st0" d="M672.3,189.3h26.2V208c5.2-14,15-20.4,27.8-20.4c18.1,0,28.7,12.4,28.7,31.9v51.3h-26.4v-43.4
						c0-13.1-4.1-19.1-14.6-19.1c-10.2,0-15.4,7.9-15.4,22.9v39.6h-26.4v-81.5L672.3,189.3L672.3,189.3z"/>
				</g>
			</g>
		</g>
	</g>
</g>
</svg>
