<?xml version="1.0" encoding="utf-8"?>
<!-- Generator: Adobe Illustrator 27.0.1, SVG Export Plug-In . SVG Version: 6.00 Build 0)  -->
<svg version="1.1" id="Layer_1" xmlns="http://www.w3.org/2000/svg" xmlns:xlink="http://www.w3.org/1999/xlink" x="0px" y="0px"
	 viewBox="0 0 943.9 403.6" style="enable-background:new 0 0 943.9 403.6;" xml:space="preserve">
<style type="text/css">
	.st0{fill:#FFFFFF;}
</style>
<g>
	<g>
		<g>
			<g>
				<g>
					<path class="st0" d="M901.9,113.4h-55.1v13.3h55.1c15.9,0,28.8,12.9,28.8,28.8v114.8c0,15.9-12.9,28.8-28.8,28.8H263.4v78.3
						L157.9,299H42c-15.9,0-28.8-12.9-28.8-28.8V155.4c0-15.9,12.9-28.8,28.8-28.8h48.7v-13.3H42c-23.2,0-42,18.9-42,42v114.8
						c0,23.2,18.9,42,42,42h111.5l123.1,91.3v-91.3h625.2c23.2,0,42-18.9,42-42V155.4C943.9,132.3,925,113.4,901.9,113.4z"/>
				</g>
			</g>
			<g>
				<g>
					<path class="st0" d="M121.1,0h81.5v22.5h-55.1V43h42.6v19.3h-42.6v20.9h56.2V106H121L121.1,0L121.1,0z"/>
					<path class="st0" d="M241.5,106.1h-26.3V24.7h26.2v18.9c5.1-14,14-20.5,26.4-20.5c13.8,0,22.1,7.4,25.1,19.9
						c5.5-13.4,15.1-19.9,27.6-19.9c17.6,0,27.8,12.4,27.8,31.8v51.2H322V62.8c0-13.1-3.5-19-13.4-19s-14,7.8-14,22.8v39.5h-25.9
						V62.8c0-13.1-3.5-19-13.4-19s-14,7.8-14,22.8v39.5H241.5z"/>
					<path class="st0" d="M414.6,107c-13.7,0-21.1-7-25.4-17.7v48.2h-26.3V24.7H389v17.4c4.9-12.2,14.1-18.3,27.3-18.3
						c18.9,0,33,12.8,33,41C449.4,92.1,434.8,107,414.6,107z M422.6,65.4c0-13.7-4.8-22.1-17.4-22.1c-12.1,0-17.4,8.7-17.4,22.1
						c-0.1,13.4,4.7,21.5,17.4,21.5C417.7,86.9,422.6,78.6,422.6,65.4z"/>
					<path class="st0" d="M458.4,65.5c0-24.3,16.1-42.4,44.6-42.4c29.4,0,44.6,18.5,44.6,42.3s-16.3,42.1-44.6,42.1
						C473.2,107.5,458.4,90.1,458.4,65.5z M520.4,65.4c0-13.7-4.8-22.1-17.4-22.1c-12.1,0-17.4,8.7-17.4,22.1
						c-0.1,13.4,4.7,21.5,17.4,21.5C515.5,86.9,520.4,78.6,520.4,65.4z"/>
					<path class="st0" d="M602.5,106.1h-33l-17.7-81.4h26.9l10.9,58.1l0.9,7.6l1.5-7.7l14.5-58h21.1l13.8,58l1.2,7.7l1-7.7l12.5-58
						h26.7l-20.1,81.4h-32.8l-11.8-52.6l-1.5-8l-1.2,8L602.5,106.1z"/>
					<path class="st0" d="M729.4,107.5c-29.5,0-43.7-17.6-43.7-41.4c0-23.7,16.1-43,44.2-43c28.8,0,41.7,19,41.7,40v7.8h-60.7
						c1.3,10.8,7.7,16.4,19,16.4c8.6,0,13.2-3.2,17-10.9l22.7,8.4C762.7,98.4,750.2,107.5,729.4,107.5z M711.1,58H746
						c-0.6-9.3-5.5-15.7-16.7-15.7C719.1,42.3,712.8,47.8,711.1,58z"/>
					<path class="st0" d="M843,25.7L836.6,50c-3.6-1.7-7.4-2.8-12.6-2.8c-8.6,0-15.5,6.8-15.5,20.2v38.7h-26.3V24.7h26.2v22.5
						c3.3-16.6,9.6-23.7,22.2-23.7C835.8,23.5,839.8,24.3,843,25.7z"/>
					<path class="st0" d="M51.5,216.6c7.7,9.6,16.3,15.3,30.4,15.3c9.9,0,14.7-4.5,14.7-10.5c0-7.8-8.7-9.7-26.6-12.8
						c-21.8-3.6-35.6-10-35.6-29.9c0-17.9,14.8-32.6,41.4-32.6c19.5,0,35.2,6.1,47.8,21.2l-21.8,17.1c-6.5-9.6-15-15-28.2-15
						c-10.5,0-15.1,4.8-15.1,10.2c0,7.6,7.3,9.4,24,12.1c24.6,4.1,38.8,11.2,38.8,31.1c0,19.6-15.7,32.8-41.1,32.8
						c-24.3,0-39.1-8.1-50.1-20.8L51.5,216.6z"/>
					<path class="st0" d="M187.8,251.1c-4.4,2.6-10.3,4.4-17.4,4.4c-20.8,0-27.3-9.9-27.3-28.3v-34h-17.4v-20.5h17.7v-20.1
						l24.3-11.6v31.7h20.2v20.5h-20.2v29.9c0,8.1,3.3,11.2,10.2,11.2c4.1,0,6.7-0.9,10-2.3v19.1L187.8,251.1L187.8,251.1z"/>
					<path class="st0" d="M193.1,213.5c0-24.3,16.1-42.4,44.6-42.4c29.4,0,44.6,18.5,44.6,42.3s-16.3,42.1-44.6,42.1
						C208,255.5,193.1,238.1,193.1,213.5z M255.2,213.4c0-13.7-4.8-22.1-17.4-22.1c-12.1,0-17.4,8.7-17.4,22.1
						c-0.1,13.4,4.7,21.5,17.4,21.5C250.3,234.9,255.2,226.6,255.2,213.4z"/>
					<path class="st0" d="M354.5,173.7l-6.4,24.3c-3.6-1.7-7.4-2.8-12.6-2.8c-8.6,0-15.5,6.8-15.5,20.2v38.7h-26.3v-81.4h26.2v22.5
						c3.3-16.6,9.6-23.7,22.2-23.7C347.2,171.5,351.3,172.2,354.5,173.7z"/>
					<path class="st0" d="M400.1,285.4h-27.6l14.8-34.4l-32.1-78.3h27l16.4,41.1l2.9,10.8l3.1-10.8l15.5-41.1h26.7L400.1,285.4z"/>
					<path class="st0" d="M511.1,251.1c-4.4,2.6-10.3,4.4-17.4,4.4c-20.8,0-27.3-9.9-27.3-28.3v-34H449v-20.5h17.7v-20.1L491,141
						v31.7h20.2v20.5H491v29.9c0,8.1,3.3,11.2,10.2,11.2c4.1,0,6.7-0.9,10-2.3v19.1L511.1,251.1L511.1,251.1z"/>
					<path class="st0" d="M560.2,255.5c-29.5,0-43.7-17.6-43.7-41.4c0-23.7,16.1-43,44.2-43c28.8,0,41.7,19,41.7,40v7.8h-60.7
						c1.3,10.8,7.7,16.4,19,16.4c8.6,0,13.2-3.2,17-10.9l22.7,8.4C593.5,246.4,581,255.5,560.2,255.5z M541.9,206h34.9
						c-0.6-9.3-5.5-15.7-16.7-15.7C549.9,190.3,543.7,195.8,541.9,206z"/>
					<path class="st0" d="M639.3,254.1H613V138.4h26.3V254.1z"/>
					<path class="st0" d="M680.9,254.1h-26.3V138.4h26.3V254.1z"/>
					<path class="st0" d="M709.8,131.8c10.2,0,16,6.5,16,16.1c0,9.2-6,15.5-16,15.5c-10.5,0-16.3-6.4-16.3-15.5
						C693.5,138.4,699.3,131.8,709.8,131.8z M722.6,254.1h-26.4v-81.4h26.4V254.1z"/>
					<path class="st0" d="M737.7,172.7h26.2v18.7c5.2-14,15-20.3,27.8-20.3c18,0,28.6,12.4,28.6,31.8v51.2H794v-43.3
						c0-13.1-4.1-19-14.5-19c-10.2,0-15.4,7.8-15.4,22.8v39.5h-26.3L737.7,172.7L737.7,172.7z"/>
					<path class="st0" d="M831.1,213.4c0-27.8,16.6-41.6,34.7-41.6c13.1,0,20.9,5.1,25.4,16.4v-15.5h26.2v70.8
						c0,30.7-17.1,45.1-43.9,45.1c-20.8,0-32.1-6-41.3-16.7l22.5-14.8c4.1,6.4,8.7,9.9,18.3,9.9c11.5,0,18.2-7,18.2-21.5v-10
						c-4.7,10.9-12.6,17.7-26.4,17.7C844.6,253,831.1,239.8,831.1,213.4z M892.7,213.1c0-13.7-4.8-21.9-17.4-21.9
						c-12.1,0-17.4,8.6-17.4,21.9c-0.1,13.2,4.7,21.4,17.4,21.4C887.8,234.4,892.7,226.2,892.7,213.1z"/>
				</g>
			</g>
		</g>
	</g>
</g>
</svg>
