<?xml version="1.0" encoding="UTF-8"?> <svg xmlns="http://www.w3.org/2000/svg" xmlns:xlink="http://www.w3.org/1999/xlink" version="1.1" id="Layer_1" x="0px" y="0px" viewBox="0 0 404.9 133.1" style="enable-background:new 0 0 404.9 133.1;" xml:space="preserve"> <style type="text/css"> .st0{fill:#FFFFFF;} .st1{fill:none;stroke:#FFFFFF;stroke-width:3;stroke-miterlimit:10;} </style> <g> <path class="st0" d="M76.6,55.3c-2.8,0-5.4,1.1-13.4,6.8v30.6c13.8-15.4,17.7-26,17.7-31.4C80.9,57.5,79.2,55.3,76.6,55.3z M63.2,52.9V24.6c8.3,0.5,14.5,5,14.5,10.4C77.7,40.7,73.6,46.8,63.2,52.9z M102.2,23c-0.1-0.5-0.3-0.7-0.5-0.8l-9.7-2.6l-1.4-5.5 c-0.1-0.3-0.1-0.5-0.4-0.5l-10-2.7l-1.2-5.3c-0.1-0.4-0.3-0.6-0.5-0.7l-26-4.8c-0.4-0.1-0.9-0.1-1.3,0L25,4.9 c-0.3,0.1-0.5,0.3-0.5,0.7l-1.2,5.3l-10,2.7c-0.3,0.1-0.3,0.3-0.4,0.5l-1.4,5.5l-9.7,2.6c-0.3,0.1-0.4,0.3-0.5,0.8 C0.4,27.2,0,31.7,0,36.2c0,39,20.3,72.8,50.6,93c0.4,0.3,0.8,0.5,1.1,0.5c0.3,0,0.7-0.3,1.1-0.5c30.3-20.2,50.6-54,50.6-93 C103.4,31.7,103,27.2,102.2,23z M47.9,111.2c0,0.3-0.3,0.4-0.5,0.1c-7.4-8.5-12.5-18.9-15.8-30.3l-5.1,3.2 c-1.4,0.9-2.4,0.5-3.2-0.9c-6.9-12.2-11.4-32.2-11.8-46.3c0-0.7,0.1-1.1,0.7-1.8c1.8-2.2,3.9-4.3,6-6.2c0.4-0.4,0.8-0.1,0.8,0.5 c0,17.3,3,33.4,7.7,44c0.4,0.8,0.8,0.8,1.4,0.4l1.5-0.9c-2.8-12.6-4.5-29.4-4.1-48.7c0-0.7,0.1-0.9,0.5-1.2 c1.5-0.9,4.2-2.4,6.5-3.4c0.7-0.3,0.8-0.1,0.8,0.4c-0.4,28.1,1.9,47.6,6.9,63.2c0.1,0.4,0.5,0.3,0.5-0.1 c-0.3-5.7-0.3-10.7-0.3-16.8l-0.3-48.6c0-0.5,0.1-0.8,0.7-0.9c2.3-0.5,4.3-0.9,6.8-1.2c0.3,0,0.4,0.1,0.4,0.4V111.2z M56,111.3 c-0.3,0.3-0.5,0.1-0.5-0.1V16.1c0-0.3,0.1-0.4,0.4-0.4c18.1,1.2,29.8,8.8,29.8,19.8c0,4.6-1.8,9.1-4.7,12.3c6,1.6,8.3,6.1,8.3,12 C89.2,70.3,81.5,87.8,56,111.3z M66.8,128.9l-0.8-2h-0.6v2.7h0.4v-2.1l0.8,2.1h0.2l0.8-2.1v2.1h0.4V127h-0.6L66.8,128.9z M62.6,127.4h1v2.3h0.5v-2.3h1V127h-2.4V127.4z"></path> <g> <g> <path class="st0" d="M221.9,49.6H258V57h-27.9v13.7h21.8V77h-21.8v14.2h28v7.4h-36.2V49.6z"></path> <path class="st0" d="M266.7,49.6h8.2v41.5h25.3v7.5h-33.5V49.6z"></path> <path class="st0" d="M323.2,98.6h-8.3l-18.6-49.1h8.9L317,81.2l2.5,8.3l2.6-8.3l12.2-31.6h8.9L323.2,98.6z"></path> <path class="st0" d="M349.6,49.6h8.2v49.1h-8.2V49.6z"></path> <path class="st0" d="M371.2,83.6c4.2,5.6,8.7,8.1,15.7,8.1c6.2,0,9.6-3.1,9.6-7.3c0-5.6-6.6-6.7-13.5-7.9 c-8.5-1.4-16.9-3.6-16.9-13.4c0-7.8,6.3-14.4,18-14.4c9.1,0,15.5,3,20.7,10l-7.2,5.4c-3.4-5.1-7.3-7.8-14.3-7.8 c-6.4,0-9.5,3.2-9.5,6.9c0,5.4,5.9,6.4,13.4,7.7c8.1,1.5,17,3.6,17,13.6c0,8.7-6.7,14.8-17.9,14.8c-10.1,0-17.3-3.6-22-10.1 L371.2,83.6z"></path> </g> </g> <line class="st1" x1="165.1" y1="10.9" x2="165.1" y2="133.1"></line> </g> </svg> 