<?xml version="1.0" encoding="utf-8"?>
<!-- Generator: Adobe Illustrator 27.0.1, SVG Export Plug-In . SVG Version: 6.00 Build 0)  -->
<svg version="1.1" id="Layer_1" xmlns="http://www.w3.org/2000/svg" xmlns:xlink="http://www.w3.org/1999/xlink" x="0px" y="0px"
	 viewBox="0 0 574.7 496.7" style="enable-background:new 0 0 574.7 496.7;" xml:space="preserve">
<style type="text/css">
	.st0{fill:#FFFFFF;}
</style>
<g>
	<g>
		<g>
			<g>
				<g>
					<path class="st0" d="M569,321.1l-109.8-84.7v15.9L561.3,331c0.7,0.5,0.8,1.3,0.8,1.7c0,0.4-0.1,1.1-0.8,1.7L367.8,483.6
						c-0.9,0.7-1.8,0.4-2.2,0.2c-0.4-0.2-1.2-0.7-1.2-1.9v-40.8H79.9c-1.2,0-2.1-0.9-2.1-2.1V279.3H65.2v159.8
						c0,8.1,6.6,14.7,14.7,14.7h271.9V482c0,5.6,3.1,10.7,8.2,13.2c2.1,1,4.3,1.5,6.5,1.5c3.2,0,6.3-1,9-3.1L569,344.3
						c3.6-2.8,5.7-7,5.7-11.6C574.7,328.1,572.6,323.9,569,321.1z"/>
				</g>
			</g>
			<g>
				<g>
					<path class="st0" d="M87.4,50.1c-2.1-13.6-8.6-22-22.5-22c-15.9,0-24.8,11.7-24.8,31.1c0,18.9,7.3,30.9,24,30.9
						c15.2,0,21.8-10,23.5-24.5l28.5,4.3c-4.4,25.2-21.5,42.9-51.7,42.9c-38.2,0-52.2-24.5-52.2-53.7S31.1,5.4,65.3,5.4
						c28.9,0,44.8,15.3,50,37.8L87.4,50.1z"/>
					<path class="st0" d="M185.1,32.2l-6.3,23.9c-3.6-1.7-7.3-2.7-12.5-2.7c-8.4,0-15.3,6.7-15.3,19.9v38.1h-25.9V31.2h25.8v22.2
						c3.3-16.3,9.4-23.3,21.9-23.3C178,30.1,182,30.8,185.1,32.2z"/>
					<path class="st0" d="M228.4,112.8c-29.1,0-43.1-17.3-43.1-40.8c0-23.3,15.9-42.4,43.5-42.4c28.3,0,41.1,18.7,41.1,39.4v7.7H210
						c1.3,10.6,7.6,16.2,18.7,16.2c8.4,0,13-3.1,16.7-10.7l22.3,8.3C261.1,103.8,248.8,112.8,228.4,112.8z M210.3,64h34.4
						c-0.6-9.2-5.4-15.5-16.5-15.5C218.2,48.5,212,54,210.3,64z"/>
					<path class="st0" d="M275.3,93c0-9.6,4.4-14.5,10.6-18.5c6-3.9,14.7-6,30.1-9.3c12.2-2.6,13.9-4.6,13.9-8.7c0-4.6-3.6-8-12.5-8
						c-9.2,0-15.5,5-18.7,14.3l-21.9-8.6c7.4-16.3,22.8-24.6,41.5-24.6c22.9,0,35.8,10.6,35.8,30.1v24.5c0,7.2,2,9.6,7,9.6
						c2,0,3.7-0.4,5.3-1v15.6c-2.9,2.1-8.6,4.4-15.6,4.4c-13.2,0-20.3-5.7-20.9-18.7c-4.7,11.9-15.9,19-29.5,19
						C284.8,113.1,275.3,105.5,275.3,93z M330.4,75v-3.3c-1.9,2-5.6,3.4-12.9,5c-12.2,2.6-16.7,5.3-16.7,10.9
						c0,4.9,3.4,7.6,10.4,7.6C324.3,95.2,330.4,84.2,330.4,75z"/>
					<path class="st0" d="M422.9,108.5c-4.3,2.6-10.2,4.3-17.2,4.3c-20.5,0-26.9-9.7-26.9-27.9V51.4h-17.2V31.2h17.5V11.5L403,0
						v31.2h19.9v20.2H403v29.5c0,8,3.3,11,10,11c4,0,6.6-0.9,9.9-2.3V108.5z"/>
					<path class="st0" d="M471.3,112.8c-29.1,0-43.1-17.3-43.1-40.8c0-23.3,15.9-42.4,43.5-42.4c28.3,0,41.1,18.7,41.1,39.4v7.7H453
						c1.3,10.6,7.6,16.2,18.8,16.2c8.4,0,13-3.1,16.7-10.7l22.3,8.3C504,103.8,491.7,112.8,471.3,112.8z M453.2,64h34.4
						c-0.6-9.2-5.4-15.5-16.5-15.5C461.1,48.5,454.9,54,453.2,64z"/>
					<path class="st0" d="M56.5,257.1h-32L2.4,152.6h28.1l13.2,67.3l1.9,10.9l1.9-10.9L65,152.6h22.9l16.5,67.3l2.1,12l2-12
						l15.3-67.3h28.1l-25.6,104.5H93.8l-17.2-68.8l-1.1-8.7l-1.3,8.7L56.5,257.1z"/>
					<path class="st0" d="M160.5,143.2h25.8v52.2c5.2-13.7,14.7-20,27.3-20c17.7,0,28.2,12.2,28.2,31.3v50.4h-25.9v-42.7
						c0-12.9-4-18.8-14.3-18.8c-10,0-15.2,7.7-15.2,22.5V257h-25.9L160.5,143.2L160.5,143.2z"/>
					<path class="st0" d="M251.8,238.8c0-9.6,4.4-14.5,10.6-18.5c6-3.9,14.7-6,30.1-9.3c12.2-2.6,13.9-4.6,13.9-8.7
						c0-4.6-3.6-8-12.5-8c-9.2,0-15.5,5-18.8,14.3l-21.9-8.6c7.4-16.3,22.8-24.6,41.5-24.6c22.9,0,35.8,10.6,35.8,30.1V230
						c0,7.2,2,9.6,7,9.6c2,0,3.7-0.4,5.3-1v15.6c-2.9,2.1-8.6,4.4-15.6,4.4c-13.2,0-20.3-5.7-20.9-18.7c-4.7,11.9-15.9,19-29.5,19
						C261.3,258.8,251.8,251.2,251.8,238.8z M306.9,220.7v-3.3c-1.9,2-5.6,3.4-12.9,5c-12.2,2.6-16.7,5.3-16.7,10.9
						c0,4.9,3.4,7.6,10.4,7.6C300.8,240.9,306.9,229.9,306.9,220.7z"/>
					<path class="st0" d="M399.4,254.2c-4.3,2.6-10.2,4.3-17.2,4.3c-20.5,0-26.9-9.7-26.9-27.9v-33.5h-17.2v-20.2h17.5v-19.8
						l23.9-11.5v31.2h19.9V197h-19.9v29.5c0,8,3.3,11,10,11c4,0,6.6-0.9,9.9-2.3L399.4,254.2L399.4,254.2z"/>
					<path class="st0" d="M410.9,167.2c0-9.3,6.6-15.6,15.3-15.6c10,0,17.2,6.7,17.2,21c0,16.6-9.4,30.5-25.6,35.8l-7.2-14.3
						c11.2-3,18.2-7.4,20.8-13.7c-1.6,0.7-3.6,1-5.7,1C416.4,181.4,410.9,175.9,410.9,167.2z"/>
					<path class="st0" d="M461.7,227.2c6.7,7.6,15,11.2,24.3,11.2c8,0,11-3.1,11-7c0-5.2-8-5.7-23.6-8.2c-15.9-2.6-25.9-8-25.9-22.2
						s11.6-26,33.6-26c16.7,0,29.9,4.4,40.4,15.7l-17.6,15.7c-5.9-7.4-14.3-11.2-24-11.2c-8.2,0-10.9,3-10.9,6.6
						c0,4.7,6.2,5.6,20.2,7.7c18,2.7,29.9,8,29.9,23c0,15.3-11.9,26.2-32.8,26.2c-19.8,0-33.1-5.7-42.1-15.3L461.7,227.2z"/>
					<path class="st0" d="M137.7,402.8h-26V298.3h32.9l34.5,69.6l2.7,8.2l-0.6-10.4v-67.3h26v104.5h-31.5L139.8,330l-3.3-8.6
						l1.1,11.3L137.7,402.8L137.7,402.8z"/>
					<path class="st0" d="M261.6,404.3c-29.1,0-43.1-17.3-43.1-40.8c0-23.3,15.9-42.4,43.5-42.4c28.3,0,41.1,18.8,41.1,39.4v7.7
						h-59.8c1.3,10.6,7.6,16.2,18.7,16.2c8.4,0,13-3.1,16.7-10.7L301,382C294.4,395.2,282.1,404.3,261.6,404.3z M243.6,355.4H278
						c-0.6-9.2-5.4-15.5-16.5-15.5C251.5,340,245.3,345.4,243.6,355.4z"/>
					<path class="st0" d="M330.1,361.7l-28.9-39.1h29.5l15,21.3l14.7-21.3h29.3l-28.9,39.5l30.2,40.6h-29l-16.6-23.2l-16.6,23.2
						h-29.5L330.1,361.7z"/>
					<path class="st0" d="M452,400c-4.3,2.6-10.2,4.3-17.2,4.3c-20.5,0-26.9-9.7-26.9-27.9v-33.5h-17.2v-20.2h17.5v-19.8l23.9-11.5
						v31.2H452v20.2h-19.9v29.5c0,8,3.3,11,10,11c4,0,6.6-0.9,9.9-2.3V400z"/>
				</g>
			</g>
		</g>
	</g>
</g>
</svg>
