<?xml version="1.0" encoding="UTF-8"?> <svg xmlns="http://www.w3.org/2000/svg" xmlns:xlink="http://www.w3.org/1999/xlink" version="1.1" id="Layer_1" x="0px" y="0px" viewBox="0 0 972.7 122.2" style="enable-background:new 0 0 972.7 122.2;" xml:space="preserve"> <style type="text/css"> .st0{fill:#FFFFFF;} .st1{fill:none;stroke:#FFFFFF;stroke-width:3;stroke-miterlimit:10;} </style> <g> <g> <path class="st0" d="M495,31.4h39.6v7.2H519v41.9h-8.2V38.6H495V31.4z"></path> <path class="st0" d="M550.5,61.9v18.5h-8.2V31.4h22c11.7,0,17.5,5.5,17.5,14c0,7.2-5.2,12.2-12.8,13.6c2.3,0.3,4,0.9,5.5,1.9 c2.8,1.8,4.2,5.1,5.8,10.8l2.5,8.8h-8.7l-2.3-8.7c-2.1-8.1-4.1-9.9-12.7-9.9H550.5z M550.5,38.5v17.4H562c7.5,0,11.8-3.4,11.8-8.9 c0-5.4-3.4-8.5-11.4-8.5H550.5z"></path> <path class="st0" d="M590.3,31.4h8.2v49.1h-8.2V31.4z"></path> <path class="st0" d="M622.3,54.8l-16.4-23.5h9.1l10.9,15.9l1.3,2.2l1.3-2.2l10.7-15.9h9.1l-16.5,23.5l17.7,25.6h-9.1l-12.3-18.1 l-1.3-2.2l-1.2,2.2l-12.2,18.1h-9L622.3,54.8z"></path> <path class="st0" d="M655.6,31.4h8.2v49.1h-8.2V31.4z"></path> <path class="st0" d="M674.6,31.4h36.1v7.4h-27.9v13.7h21.8v6.3h-21.8v14.2h28v7.4h-36.2V31.4z"></path> <path class="st0" d="M788.5,31.4v49.1h-7.9v-35L781,38l-2,7.3l-13.1,35.1h-6.5l-13-35.1l-2-7l0.4,7.1v35h-8V31.4h11.2l13.8,38 l0.9,3.5l1-3.4l14-38L788.5,31.4z"></path> <path class="st0" d="M797.1,55.8c0-13.5,8.5-25.1,23.7-25.1c15.9,0,23.7,11.4,23.7,25.1c0,13.7-8,25.3-23.9,25.3 C804.5,81.1,797.1,69.7,797.1,55.8z M836.1,55.8c0-10.1-5-17.7-15.3-17.7c-9.8,0-15.3,7.8-15.3,17.7c0,9.9,4.7,17.7,15.2,17.7 S836.1,65.9,836.1,55.8z"></path> <path class="st0" d="M847.1,31.4h39.6v7.2h-15.7v41.9h-8.2V38.6h-15.7V31.4z"></path> <path class="st0" d="M894.4,31.4h36.1v7.4h-27.9v13.7h21.8v6.3h-21.8v14.2h28v7.4h-36.2V31.4z"></path> <path class="st0" d="M939.1,31.4h8.2v41.5h25.3v7.5h-33.5V31.4z"></path> </g> <line class="st1" x1="441.1" y1="0" x2="441.1" y2="122.2"></line> <g id="Discovery_Plus_Logo_2_"> <path id="Discovery_1_" class="st0" d="M128.1,42.5v14.1c-1.9-2.4-4.6-4.6-8.9-4.6c-6.3,0-12.2,4.9-12.2,13.7 c0,8.7,6,13.7,12.2,13.7c4.3,0,7-2.2,8.9-4.9v4.4h6V42.5H128.1z M120.6,74.1c-4.1,0-7.6-3.3-7.6-8.4c0-5.3,3.4-8.4,7.6-8.4 c4,0,7.6,3.3,7.6,8.4C128.2,70.8,124.6,74.1,120.6,74.1z M141.4,52.5v26.2h6V52.5H141.4z M141.2,42.5v5.7h6.5v-5.7H141.2z M173.3,71L173.3,71c0-4.8-4.3-6.6-8.2-7.8c-3.1-1-5.9-1.8-5.9-3.7v-0.1c0-1.5,1.3-2.6,3.7-2.6c2.2,0,4.9,0.9,7.4,2.5l2.4-4.3 c-2.8-1.8-6.4-3-9.6-3c-5.2,0-9.3,3-9.3,8v0.1c0,5,4.3,6.6,8.2,7.7c3.1,0.9,5.9,1.6,5.9,3.7v0.1c0,1.7-1.5,2.8-4.1,2.8 c-2.7,0-5.8-1.1-8.6-3.2l-2.7,4.1c3.3,2.6,7.4,3.9,11.1,3.9C169.1,79.3,173.3,76.5,173.3,71z M201.5,74.4l-3.6-3.6 c-1.9,1.9-4,3.3-6.8,3.3c-4.6,0-7.9-3.8-7.9-8.5c0-4.6,3.2-8.4,7.6-8.4c3,0,5,1.3,6.8,3.3l3.7-4c-2.4-2.7-5.5-4.5-10.5-4.5 c-7.8,0-13.6,6.3-13.6,13.8s5.8,13.6,13.6,13.6C195.9,79.3,198.9,77.3,201.5,74.4z M218.1,52c-8,0-14,6.2-14,13.8 c0,7.5,5.9,13.6,13.9,13.6c8.1,0,14.1-6.2,14.1-13.7C232.1,58.1,226.2,52,218.1,52z M218.1,74.1c-4.7,0-8-3.8-8-8.5 c0-4.6,3.1-8.4,7.9-8.4c4.7,0,8,3.8,8,8.5C226.1,70.4,223,74.1,218.1,74.1z M254.4,52.5l-7.1,19.3l-7.1-19.3h-6.5L244.5,79h5.4 l10.7-26.4H254.4z M287.8,66.1c0-7.6-4.2-14.2-12.6-14.2c-7.5,0-12.8,6.2-12.8,13.7c0,8.1,5.9,13.7,13.5,13.7 c4.8,0,8.2-1.9,10.7-4.9l-3.5-3.1c-2.1,2-4.2,3.1-7.1,3.1c-3.9,0-6.9-2.4-7.6-6.7h19.3C287.7,67.2,287.8,66.7,287.8,66.1z M268.4,63.8c0.5-4.1,3.1-6.9,6.8-6.9c4,0,6.3,3,6.7,6.9H268.4z M299.5,68.8c0-7,3.7-10.4,8.9-10.4h0.3V52 c-4.6-0.2-7.7,2.5-9.3,6.4v-5.9h-6v26.2h6V68.8z M338.9,52.5h-6.3L325.8,72l-7.5-19.5h-6.4l10.9,26.2c-1,2.3-2,3-3.7,3 c-1.2,0-2.4-0.4-3.5-1l-2,4.5c1.8,1,3.7,1.6,6.2,1.6c4.2,0,6.6-2,8.6-7.4L338.9,52.5z M364.4,63.4h15.3v-5.3h-15.3V42.5h-5.3v15.6 h-15.3v5.3h15.3v15.3h5.3V63.4z"></path> <path id="Mark" class="st0" d="M49.2,71.6c0,11.9-9.7,21.6-21.6,21.6S6,83.5,6,71.6S15.7,50,27.6,50S49.2,59.7,49.2,71.6z M78.7,33.7c-7.4-7-17-10.8-27.2-10.8H24.6l0,21.1C10.7,45.6,0,57.5,0,71.5c0,7.9,3.1,15.1,8.9,20.3c5.2,4.7,12.1,7.4,18.9,7.4 h23.7c10.3,0,20-3.7,27.2-10.5c7.6-7.1,11.8-16.9,11.8-27.6C90.4,50.6,86.2,40.9,78.7,33.7z M87.7,61.1c0,10-3.9,19.1-10.9,25.6 c-6.8,6.3-15.8,9.8-25.4,9.8H27.6c-13.8,0-25-11.2-25-25c0-13.7,11-24.8,24.7-24.9c0,0,0-14.1,0-21h24.1c9.5,0,18.5,3.6,25.3,10.1 C83.8,42.4,87.7,51.4,87.7,61.1z M74.5,38.1c-6.2-5.9-14.4-9.1-23-9.1H30.7l0,17.8c12.3,1.5,21.9,12,21.9,24.8 c0,9.2-5,17.3-12.5,21.6h11.3c8.7,0,16.9-3.2,23.1-8.9c6.3-5.9,9.8-14.2,9.8-23.2C84.4,52.3,80.9,44.2,74.5,38.1z"></path> </g> </g> </svg> 