<?xml version="1.0" encoding="utf-8"?>
<!-- Generator: Adobe Illustrator 23.0.1, SVG Export Plug-In . SVG Version: 6.00 Build 0)  -->
<svg version="1.1" id="Livello_1" xmlns="http://www.w3.org/2000/svg" xmlns:xlink="http://www.w3.org/1999/xlink" x="0px" y="0px"
	 viewBox="0 0 600.26 122.1" enable-background="new 0 0 600.26 122.1" xml:space="preserve">
<g>
	<g>
		<path fill="#0022AF" d="M166.28,58.998l-18.332-44.884h8.634l10.467,26.788l11.472-28.03l11.414,28.03l10.408-26.788h8.279
			l-18.273,44.884l-12.064-28.917L166.28,58.998z"/>
		<path fill="#0022AF" d="M248.058,57.284h-8.397L235.285,48h-18.391l-4.376,9.284h-8.456L226.06,12.4L248.058,57.284z
			 M219.791,41.849h12.596l-6.328-13.365L219.791,41.849z"/>
		<path fill="#0022AF" d="M261.598,57.284h-7.984V14.115h12.182c9.521,0,16.321,4.909,16.321,13.365
			c0,5.854-3.253,9.876-8.456,11.827l13.423,17.977H277.8l-12.359-16.676h-3.844L261.598,57.284L261.598,57.284z M261.598,34.22
			h4.199c4.909,0,8.22-2.425,8.22-6.741c0-4.376-3.311-6.8-8.22-6.8h-4.199V34.22z"/>
		<path fill="#0022AF" d="M386.521,57.284h-7.984V14.115h12.182c9.521,0,16.321,4.909,16.321,13.365
			c0,5.854-3.253,9.876-8.456,11.827l13.423,17.977h-9.284l-12.359-16.676h-3.844L386.521,57.284L386.521,57.284z M386.521,34.22
			h4.199c4.909,0,8.22-2.425,8.22-6.741c0-4.376-3.311-6.8-8.22-6.8h-4.199V34.22z"/>
		<path fill="#0022AF" d="M324.314,14.115h7.806v44.824l-30.396-29.272v27.616h-7.806V12.458l30.396,29.272V14.115z"/>
		<path fill="#0022AF" d="M342.586,14.115h26.611v6.623h-18.805v11.177h17.327v6.682h-17.327v12.064h18.924v6.623h-26.729
			L342.586,14.115L342.586,14.115z"/>
		<path fill="#0022AF" d="M433.114,14.115h12.419c9.639,0,14.665,4.494,14.665,11.413c0,4.435-2.72,7.569-6.031,8.989
			c4.909,1.301,8.693,5.026,8.693,10.467c0,7.628-5.913,12.301-15.257,12.301h-14.488L433.114,14.115L433.114,14.115z
			 M445.06,32.387c4.494,0,7.333-2.011,7.333-5.796c0-3.844-2.838-5.854-7.333-5.854h-4.14v11.649L445.06,32.387L445.06,32.387z
			 M447.129,50.661c4.554,0,7.629-2.366,7.629-6.209c0-3.785-3.075-6.15-7.629-6.15h-6.209v12.359H447.129z"/>
		<path fill="#0022AF" d="M479.233,57.284h-7.984V14.115h12.182c9.521,0,16.321,4.909,16.321,13.365
			c0,5.854-3.253,9.876-8.456,11.827l13.423,17.977h-9.284l-12.359-16.676h-3.844L479.233,57.284L479.233,57.284z M479.233,34.22
			h4.199c4.909,0,8.22-2.425,8.22-6.741c0-4.376-3.311-6.8-8.22-6.8h-4.199V34.22z"/>
		<path fill="#0022AF" d="M551.356,35.699c0,12.301-9.817,22.294-22.058,22.294c-12.241,0-22.057-9.994-22.057-22.294
			s9.817-22.294,22.057-22.294C541.539,13.405,551.356,23.398,551.356,35.699z M515.223,35.699c0,8.516,6.268,14.902,14.074,14.902
			c7.806,0,14.075-6.387,14.075-14.902s-6.268-14.902-14.075-14.902C521.492,20.797,515.223,27.183,515.223,35.699z"/>
		<path fill="#0022AF" d="M570.092,51.193c4.376,0,7.451-1.951,7.451-5.499c0-2.779-1.833-4.022-4.554-5.381l-7.215-3.43
			c-4.672-2.248-8.634-5.026-8.634-11.059c0-7.51,6.149-12.419,14.193-12.419c4.909,0,9.284,2.07,11.649,4.257v8.279
			c-3.311-3.311-7.629-5.736-11.945-5.736c-3.607,0-6.328,1.774-6.328,4.967c0,2.366,1.715,3.607,4.08,4.79l6.742,3.134
			c6.268,2.898,9.58,5.854,9.58,11.886c0,8.042-6.682,13.01-15.198,13.01c-5.499,0-10.348-2.069-13.188-4.317v-8.16
			C560.512,48.59,565.184,51.193,570.092,51.193z"/>
		<path fill="#0022AF" d="M600.26,52.67c0,2.838-2.248,5.026-5.026,5.026h-0.119c-2.78,0-4.967-2.188-4.967-5.026
			c0-2.78,2.188-4.967,4.967-4.967h0.119C598.013,47.703,600.26,49.892,600.26,52.67z"/>
		<path fill="#0022AF" d="M425.595,115.055h-7.984V71.886h12.182c9.521,0,16.321,4.909,16.321,13.365
			c0,5.854-3.253,9.876-8.456,11.827l13.423,17.977h-9.284L429.438,98.38h-3.844L425.595,115.055L425.595,115.055z M425.595,91.992
			h4.199c4.909,0,8.22-2.425,8.22-6.741c0-4.376-3.311-6.8-8.22-6.8h-4.199V91.992z"/>
		<path fill="#0022AF" d="M381.245,71.886h26.611v6.623h-18.805v11.177h17.327v6.682h-17.327v12.064h18.924v6.623h-26.729
			L381.245,71.886L381.245,71.886z"/>
		<path fill="#0022AF" d="M331.083,93.471c0,12.301-9.817,22.294-22.058,22.294c-12.241,0-22.057-9.994-22.057-22.294
			s9.817-22.294,22.057-22.294C321.266,71.177,331.083,81.171,331.083,93.471z M294.95,93.471c0,8.516,6.269,14.902,14.075,14.902
			c7.806,0,14.075-6.387,14.075-14.902s-6.268-14.902-14.075-14.902C301.22,78.569,294.95,84.956,294.95,93.471z"/>
		<path fill="#0022AF" d="M166.653,71.886c12.301,0,22.176,9.284,22.176,21.585c0,12.3-9.876,21.585-22.176,21.585h-13.306V71.886
			L166.653,71.886L166.653,71.886z M161.332,78.51v29.923h4.79c8.693,0,14.725-6.742,14.725-14.961S174.813,78.51,166.18,78.51
			H161.332z"/>
		<path fill="#0022AF" d="M204.969,71.886v43.169h-7.984V71.886H204.969z"/>
		<path fill="#0022AF" d="M226.449,108.965c4.376,0,7.452-1.951,7.452-5.499c0-2.78-1.833-4.022-4.554-5.381l-7.215-3.43
			c-4.672-2.247-8.634-5.026-8.634-11.058c0-7.511,6.15-12.419,14.192-12.419c4.909,0,9.284,2.069,11.649,4.257v8.279
			c-3.312-3.311-7.629-5.736-11.946-5.736c-3.607,0-6.328,1.774-6.328,4.968c0,2.365,1.715,3.607,4.08,4.79l6.742,3.135
			c6.268,2.898,9.579,5.854,9.579,11.886c0,8.042-6.682,13.01-15.197,13.01c-5.499,0-10.349-2.07-13.188-4.317v-8.16
			C216.868,106.362,221.54,108.965,226.449,108.965z"/>
		<path fill="#0022AF" d="M280.718,103.524v9.225c-3.193,1.951-7.037,3.016-11.177,3.016c-12.301,0-22.235-9.994-22.235-22.294
			c0-12.301,9.935-22.294,22.235-22.294c4.139,0,7.984,1.064,11.177,3.016v9.225c-2.543-2.838-6.446-4.612-10.999-4.612
			c-8.161,0-14.429,6.387-14.429,14.666s6.268,14.665,14.429,14.665C274.272,108.137,278.175,106.362,280.718,103.524z"/>
		<path fill="#0022AF" d="M331.788,71.886h8.811l13.423,28.917l13.306-28.917h8.456l-21.998,44.884L331.788,71.886z"/>
		<path fill="#0022AF" d="M465.679,115.055V95.659l-16.145-23.773h9.048l11.059,16.381l11.177-16.381h8.989l-16.085,23.773v19.396
			H465.679z"/>
	</g>
	<g>
		
			<linearGradient id="SVGID_1_" gradientUnits="userSpaceOnUse" x1="8.0859" y1="63.3579" x2="118.3417" y2="63.3579" gradientTransform="matrix(1 0 0 -1 0 124)">
			<stop  offset="0" style="stop-color:#4047FF"/>
			<stop  offset="1" style="stop-color:#04006C"/>
		</linearGradient>
		<path fill="url(#SVGID_1_)" d="M118.342,39.835c-0.839,5.744-3.541,24.512-17.268,42.932
			c-13.962,18.968-32.321,28.171-37.86,31.002c-5.539-2.832-23.898-12.034-37.86-31.002C11.627,64.346,8.926,45.577,8.086,39.835
			l8.34-4.473v-6.205l8.265-4.477v-6.201c11.434-5.453,24.031-9.038,38.522-10.963c14.491,1.925,27.088,5.511,38.522,10.963v6.201
			l8.265,4.477v6.205L118.342,39.835z"/>
		<path fill="#FFC200" d="M117.468,30.905v-6.184l-8.265-4.477v-6.467l-4.24-2.019C92.915,6.013,79.593,2.177,64.228,0.136L63.224,0
			L62.22,0.136C46.854,2.177,33.533,6.014,21.486,11.758l-4.24,2.019v6.467L8.98,24.721v6.184L0,35.722l0.71,5.133
			c2.379,17.223,8.659,32.81,18.655,46.337c10.103,13.669,23.741,24.852,40.535,33.245l3.324,1.663l3.324-1.663
			c16.794-8.393,30.432-19.576,40.535-33.245c9.996-13.527,16.276-29.114,18.655-46.337l0.71-5.133L117.468,30.905z M118.342,39.835
			c-0.839,5.744-3.541,24.512-17.268,42.932c-13.962,18.968-32.321,28.171-37.86,31.002c-5.539-2.832-23.898-12.034-37.86-31.002
			C11.627,64.346,8.926,45.577,8.086,39.835l8.34-4.473v-6.205l8.265-4.477v-6.201c11.434-5.453,24.031-9.038,38.522-10.963
			c14.491,1.925,27.088,5.511,38.522,10.963v6.201l8.265,4.477v6.205L118.342,39.835z"/>
		<path fill="#FFC200" d="M50.861,22.439l0.384,50.448l-0.356,0.208c-5.341-13.498-8.524-30.342-9.528-47.235
			c-2.622,1.179-5.404,2.638-8.256,4.444c1.152,15.326,3.771,28.735,8.478,41.464l-2.664,1.543
			c-7.058-9.884-11.669-21.906-14.836-36.165c-2.181,1.959-4.345,4.153-6.458,6.612c4.138,17.115,10.651,30.084,20.171,40.641
			l7.339-4.387c3.595,7.491,8.646,14.883,14.195,20.792V20.944C56.505,21.219,53.711,21.706,50.861,22.439z"/>
		<path fill="#FFC200" d="M98.101,48.445c2.991-3.311,3.627-5.72,3.627-8.635c0-4.125-3.408-7.796-8.365-10.95
			c-2.994-1.906-7.577-4.213-14.261-6.076c-3.846-1.033-7.856-1.661-11.982-1.84v79.862c16.786-8.642,36.741-32.321,36.842-44.369
			C103.993,52.752,102.049,50.345,98.101,48.445z M75.374,30.494c4.133,0,17.504,4.228,17.504,9.567c0,1.924-1.699,4.683-6.988,7.46
			l-10.516,5.64V30.494z M85.793,74.782c-2.362,2.724-6.231,6.877-10.419,10.113V61.981c0,0,15.172-8.539,15.729-8.903
			c4.542,1.151,4.311,4.491,4.311,4.837C95.41,62.123,91.109,68.637,85.793,74.782z"/>
	</g>
</g>
</svg>
