<?xml version="1.0" encoding="UTF-8"?> <svg xmlns="http://www.w3.org/2000/svg" xmlns:xlink="http://www.w3.org/1999/xlink" version="1.1" id="Layer_1" x="0px" y="0px" viewBox="0 0 774.9 700.5" style="enable-background:new 0 0 774.9 700.5;" xml:space="preserve"> <style type="text/css"> .st0{display:none;} .st1{display:inline;fill:none;stroke:#04006C;stroke-width:0.5;stroke-linecap:round;stroke-linejoin:round;stroke-miterlimit:10;} .st2{display:inline;} .st3{fill:#04006C;} .st4{display:inline;fill:#00A7B5;} .st5{fill:#FFFFFF;} .st6{display:inline;fill:#9000E8;} .st7{display:inline;fill:#04006C;} .st8{display:inline;fill:#FD5911;} .st9{clip-path:url(#SVGID_00000052811309368296111720000000383408503397617036_);fill-rule:evenodd;clip-rule:evenodd;fill:#00A7B5;} .st10{opacity:0.302;clip-path:url(#SVGID_00000052811309368296111720000000383408503397617036_);fill:none;stroke:#FFFFFF;stroke-width:0.75;stroke-linejoin:round;stroke-miterlimit:10;} .st11{clip-path:url(#SVGID_00000152249021056445409000000016105434240828702094_);fill-rule:evenodd;clip-rule:evenodd;fill:#9000E8;} .st12{opacity:0.302;clip-path:url(#SVGID_00000152249021056445409000000016105434240828702094_);fill:none;stroke:#FFFFFF;stroke-width:0.75;stroke-linejoin:round;stroke-miterlimit:10;} .st13{clip-path:url(#SVGID_00000100363624660224961470000017910759257393241991_);fill-rule:evenodd;clip-rule:evenodd;fill:#04006C;} .st14{opacity:0.302;clip-path:url(#SVGID_00000100363624660224961470000017910759257393241991_);fill:none;stroke:#FFFFFF;stroke-width:0.75;stroke-linejoin:round;stroke-miterlimit:10;} .st15{clip-path:url(#SVGID_00000086671798188426143560000000564416274025045926_);fill-rule:evenodd;clip-rule:evenodd;fill:#FD5911;} .st16{opacity:0.302;clip-path:url(#SVGID_00000086671798188426143560000000564416274025045926_);fill:none;stroke:#FFFFFF;stroke-width:0.75;stroke-linejoin:round;stroke-miterlimit:10;} .st17{clip-path:url(#SVGID_00000042724622803075022980000014626412759639223483_);} .st18{clip-path:url(#SVGID_00000177477117427912471340000000533521697864719526_);} .st19{clip-path:url(#SVGID_00000114779114342648332340000008673206417118103976_);} .st20{clip-path:url(#SVGID_00000056391953643783091230000004090647243950831519_);} .st21{clip-path:url(#SVGID_00000006676549850392242410000018346499097188427912_);fill:#FD5911;} .st22{opacity:0.302;clip-path:url(#SVGID_00000006676549850392242410000018346499097188427912_);fill:none;stroke:#FFFFFF;stroke-width:0.75;stroke-linejoin:round;stroke-miterlimit:10;} .st23{clip-path:url(#SVGID_00000067198886871860385610000004439232588087311762_);fill:#04006C;} .st24{opacity:0.302;clip-path:url(#SVGID_00000067198886871860385610000004439232588087311762_);fill:none;stroke:#FFFFFF;stroke-width:0.75;stroke-linejoin:round;stroke-miterlimit:10;} .st25{clip-path:url(#SVGID_00000103945772744695188630000005979850643773184702_);fill:#9000E8;} .st26{opacity:0.302;clip-path:url(#SVGID_00000103945772744695188630000005979850643773184702_);fill:none;stroke:#FFFFFF;stroke-width:0.75;stroke-linejoin:round;stroke-miterlimit:10;} .st27{clip-path:url(#SVGID_00000062176610225825746310000005163597274759309223_);fill:#00A7B5;} .st28{opacity:0.302;clip-path:url(#SVGID_00000062176610225825746310000005163597274759309223_);fill:none;stroke:#FFFFFF;stroke-width:0.75;stroke-linejoin:round;stroke-miterlimit:10;} .st29{clip-path:url(#SVGID_00000093158589392776795930000005017235260254579084_);} .st30{clip-path:url(#SVGID_00000131345202309447720530000014120379903988843434_);} .st31{clip-path:url(#SVGID_00000098913588941605388830000007373368449362749602_);} .st32{clip-path:url(#SVGID_00000127044119561887550700000015332033045767156872_);} .st33{clip-path:url(#SVGID_00000149355185312158442750000012991274726318031293_);} .st34{clip-path:url(#SVGID_00000010307997410831717660000009135708235878010524_);} .st35{clip-path:url(#SVGID_00000039817828705029053090000013038226333566913678_);} .st36{clip-path:url(#SVGID_00000158025485146295709970000012928368711714468225_);} .st37{clip-path:url(#SVGID_00000088837317384144323460000003115193695343529857_);} .st38{clip-path:url(#SVGID_00000088855740784873308230000016064440305770707620_);} .st39{clip-path:url(#SVGID_00000168091344368272773830000006993015735103608224_);} .st40{clip-path:url(#SVGID_00000140717940137473204890000009581576571065663638_);} .st41{clip-path:url(#SVGID_00000067950793427095944220000004409236097024909480_);fill-rule:evenodd;clip-rule:evenodd;fill:#04006C;} .st42{opacity:0.302;clip-path:url(#SVGID_00000067950793427095944220000004409236097024909480_);fill:none;stroke:#FFFFFF;stroke-width:0.75;stroke-linejoin:round;stroke-miterlimit:10;} .st43{clip-path:url(#SVGID_00000157275871033183125910000002759920489161973653_);fill-rule:evenodd;clip-rule:evenodd;fill:#C058FF;} .st44{opacity:0.302;clip-path:url(#SVGID_00000157275871033183125910000002759920489161973653_);fill:none;stroke:#FFFFFF;stroke-width:0.75;stroke-linejoin:round;stroke-miterlimit:10;} .st45{clip-path:url(#SVGID_00000075158992254662709550000008781185799240169368_);} .st46{clip-path:url(#SVGID_00000137838858952694582120000015094303377976647832_);} .st47{fill:none;stroke:#04006C;stroke-width:0.5;stroke-linecap:round;stroke-linejoin:round;stroke-miterlimit:10;} .st48{clip-path:url(#SVGID_00000080191781495120890850000006115999255754290102_);fill:#C058FF;} .st49{opacity:0.302;clip-path:url(#SVGID_00000080191781495120890850000006115999255754290102_);fill:none;stroke:#FFFFFF;stroke-width:0.75;stroke-linejoin:round;stroke-miterlimit:10;} .st50{clip-path:url(#SVGID_00000002359245677789274990000017467093071375170193_);fill:#04006C;} .st51{opacity:0.302;clip-path:url(#SVGID_00000002359245677789274990000017467093071375170193_);fill:none;stroke:#FFFFFF;stroke-width:0.75;stroke-linejoin:round;stroke-miterlimit:10;} .st52{clip-path:url(#SVGID_00000042013717932170925970000005033578060580241293_);} .st53{clip-path:url(#SVGID_00000162320097138510058450000004983137639283159951_);} .st54{clip-path:url(#SVGID_00000021815526065014952710000016026984075403509672_);} .st55{clip-path:url(#SVGID_00000081622138021163614740000016621954584233674418_);} .st56{clip-path:url(#SVGID_00000143599878926919966010000014968971128362962594_);} .st57{clip-path:url(#SVGID_00000040556326539868804360000016393465652162821023_);} .st58{clip-path:url(#SVGID_00000104697674361501628650000008032108088395523984_);} .st59{clip-path:url(#SVGID_00000003082242115036683680000013457018507921661336_);} .st60{fill:#C058FF;} </style> <g class="st0"> <line class="st1" x1="112.5" y1="532.1" x2="231.8" y2="532.1"></line> <line class="st1" x1="84.5" y1="569.3" x2="231.8" y2="569.3"></line> <line class="st1" x1="156.5" y1="606.5" x2="231.8" y2="606.5"></line> <line class="st1" x1="163.5" y1="643.7" x2="231.8" y2="643.7"></line> <g class="st2"> <path class="st3" d="M49.7,533.4c1.2,1.5,2.6,2.4,4.9,2.4c1.6,0,2.4-0.7,2.4-1.7c0-1.3-1.4-1.6-4.3-2.1c-3.5-0.6-5.7-1.6-5.7-4.8 c0-2.9,2.4-5.2,6.6-5.2c3.1,0,5.6,1,7.7,3.4l-3.5,2.7c-1-1.5-2.4-2.4-4.5-2.4c-1.7,0-2.4,0.8-2.4,1.6c0,1.2,1.2,1.5,3.8,1.9 c3.9,0.7,6.2,1.8,6.2,5c0,3.1-2.5,5.3-6.6,5.3c-3.9,0-6.3-1.3-8-3.3L49.7,533.4z"></path> <path class="st3" d="M72.6,539.4h-4.6l-6.4-17h4.7l3.5,10l0.5,2.2l0.6-2.2l3.5-10h4.7L72.6,539.4z"></path> <path class="st3" d="M85,534.7v4.7h-4.4v-17h7.5c5,0,7.3,2.5,7.3,6.1c0,3.5-2.4,6.3-7.5,6.3H85z M85,526.1v5.7h2.6 c2.2,0,3.4-1,3.4-2.9c0-1.9-1.1-2.8-3.4-2.8H85z"></path> <path class="st3" d="M96.7,530.5h3.3v-3.4h3.2v3.4h3.3v3h-3.3v3.4H100v-3.4h-3.3V530.5z"></path> </g> <g class="st2"> <path class="st3" d="M57.2,576.8h-4.6l-6.4-17H51l3.5,10l0.5,2.2l0.6-2.2l3.5-10h4.7L57.2,576.8z"></path> <path class="st3" d="M69.6,572.1v4.7h-4.4v-17h7.5c5,0,7.3,2.5,7.3,6.1c0,3.5-2.4,6.3-7.5,6.3H69.6z M69.6,563.5v5.7h2.6 c2.2,0,3.4-1,3.4-2.9c0-1.9-1.1-2.8-3.4-2.8H69.6z"></path> </g> <g class="st2"> <path class="st3" d="M47.7,596.8h6.5c5.8,0,9,2.9,9,8.4c0,5-3.1,8.6-8.9,8.6h-6.6V596.8z M52.1,600.5v9.9h2c3.2,0,4.7-1.9,4.7-5.1 c0-3.3-1.5-4.8-4.8-4.8H52.1z"></path> <path class="st3" d="M67.5,594.3c1.6,0,2.6,1,2.6,2.6c0,1.5-1,2.5-2.6,2.5c-1.7,0-2.6-1-2.6-2.5C64.9,595.3,65.9,594.3,67.5,594.3 z M69.6,613.9h-4.2v-13h4.2V613.9z"></path> <path class="st3" d="M81.9,601l-1,3.9c-0.6-0.3-1.2-0.4-2-0.4c-1.4,0-2.5,1.1-2.5,3.2v6.2h-4.2v-13h4.2v3.6 c0.5-2.7,1.5-3.8,3.6-3.8C80.7,600.6,81.4,600.7,81.9,601z"></path> <path class="st3" d="M89.5,614.1c-4.7,0-7-2.8-7-6.6c0-3.8,2.6-6.9,7.1-6.9c4.6,0,6.7,3.1,6.7,6.4v1.3h-9.7 c0.2,1.7,1.2,2.6,3.1,2.6c1.4,0,2.1-0.5,2.7-1.7l3.6,1.4C94.9,612.6,92.9,614.1,89.5,614.1z M86.6,606.1h5.6 c-0.1-1.5-0.9-2.5-2.7-2.5C87.9,603.6,86.9,604.5,86.6,606.1z"></path> <path class="st3" d="M107,606.3c-0.2-1.6-0.8-2.6-2.4-2.6c-1.9,0-2.7,1.4-2.7,3.5c0,2.2,0.7,3.4,2.7,3.4c1.6,0,2.2-1,2.5-2.5 l4.3,0.8c-0.7,3.1-3,5-6.8,5c-4.8,0-7.1-2.8-7.1-6.7c0-3.9,2.6-6.8,7.2-6.8c4,0,5.9,1.9,6.6,4.8L107,606.3z"></path> <path class="st3" d="M122.2,613.4c-0.7,0.4-1.7,0.7-2.8,0.7c-3.3,0-4.4-1.6-4.4-4.5v-5.5h-2.8v-3.3h2.8v-3.2l3.9-1.9v5.1h3.2v3.3 h-3.2v4.8c0,1.3,0.5,1.8,1.6,1.8c0.7,0,1.1-0.1,1.6-0.4V613.4z"></path> <path class="st3" d="M123.6,607.4c0-3.9,2.6-6.8,7.2-6.8c4.7,0,7.2,3,7.2,6.8s-2.6,6.8-7.2,6.8 C125.9,614.1,123.6,611.3,123.6,607.4z M133.5,607.3c0-2.2-0.8-3.5-2.8-3.5c-1.9,0-2.8,1.4-2.8,3.5c0,2.1,0.7,3.4,2.8,3.4 C132.7,610.8,133.5,609.4,133.5,607.3z"></path> <path class="st3" d="M149.7,601l-1,3.9c-0.6-0.3-1.2-0.4-2-0.4c-1.4,0-2.5,1.1-2.5,3.2v6.2h-4.2v-13h4.2v3.6 c0.5-2.7,1.5-3.8,3.6-3.8C148.5,600.6,149.1,600.7,149.7,601z"></path> </g> <g class="st2"> <path class="st3" d="M67.5,634.2v17h-4.2v-11.7l0.1-2.3l-0.5,2.4l-3.4,11.7h-3.8l-3.3-11.6l-0.5-2.4l0.1,2.2v11.7h-4.2v-17H54 l3.5,12.6l0.2,1l0.2-1l3.6-12.6H67.5z"></path> <path class="st3" d="M69.5,648.3c0-1.6,0.7-2.4,1.7-3c1-0.6,2.4-1,4.9-1.5c2-0.4,2.3-0.7,2.3-1.4c0-0.7-0.6-1.3-2-1.3 c-1.5,0-2.5,0.8-3.1,2.3l-3.6-1.4c1.2-2.7,3.7-4,6.8-4c3.7,0,5.8,1.7,5.8,4.9v4c0,1.2,0.3,1.6,1.1,1.6c0.3,0,0.6-0.1,0.9-0.2v2.5 c-0.5,0.3-1.4,0.7-2.5,0.7c-2.1,0-3.3-0.9-3.4-3.1c-0.8,1.9-2.6,3.1-4.8,3.1C71.1,651.5,69.5,650.3,69.5,648.3z M78.5,645.3v-0.5 c-0.3,0.3-0.9,0.6-2.1,0.8c-2,0.4-2.7,0.9-2.7,1.8c0,0.8,0.6,1.2,1.7,1.2C77.5,648.6,78.5,646.8,78.5,645.3z"></path> <path class="st3" d="M85.8,638.2H90v3c0.8-2.2,2.4-3.3,4.5-3.3c2.9,0,4.6,2,4.6,5.1v8.2h-4.2v-6.9c0-2.1-0.7-3.1-2.3-3.1 c-1.6,0-2.5,1.3-2.5,3.7v6.3h-4.2V638.2z"></path> <path class="st3" d="M100.8,648.3c0-1.6,0.7-2.4,1.7-3c1-0.6,2.4-1,4.9-1.5c2-0.4,2.3-0.7,2.3-1.4c0-0.7-0.6-1.3-2-1.3 c-1.5,0-2.5,0.8-3.1,2.3L101,642c1.2-2.7,3.7-4,6.8-4c3.7,0,5.8,1.7,5.8,4.9v4c0,1.2,0.3,1.6,1.1,1.6c0.3,0,0.6-0.1,0.9-0.2v2.5 c-0.5,0.3-1.4,0.7-2.5,0.7c-2.1,0-3.3-0.9-3.4-3.1c-0.8,1.9-2.6,3.1-4.8,3.1C102.3,651.5,100.8,650.3,100.8,648.3z M109.8,645.3 v-0.5c-0.3,0.3-0.9,0.6-2.1,0.8c-2,0.4-2.7,0.9-2.7,1.8c0,0.8,0.6,1.2,1.7,1.2C108.8,648.6,109.8,646.8,109.8,645.3z"></path> <path class="st3" d="M116.5,644.7c0-4.5,2.7-6.7,5.6-6.7c2.1,0,3.4,0.8,4.1,2.6v-2.5h4.2v11.3c0,4.9-2.7,7.2-7,7.2 c-3.3,0-5.1-1-6.6-2.7l3.6-2.4c0.7,1,1.4,1.6,2.9,1.6c1.8,0,2.9-1.1,2.9-3.4v-1.6c-0.7,1.7-2,2.8-4.2,2.8 C118.6,651.1,116.5,649,116.5,644.7z M126.3,644.7c0-2.2-0.8-3.5-2.8-3.5c-1.9,0-2.8,1.4-2.8,3.5c0,2.1,0.7,3.4,2.8,3.4 C125.6,648.1,126.3,646.8,126.3,644.7z"></path> <path class="st3" d="M139.2,651.5c-4.7,0-7-2.8-7-6.6c0-3.8,2.6-6.9,7.1-6.9c4.6,0,6.7,3.1,6.7,6.4v1.3h-9.7 c0.2,1.7,1.2,2.6,3.1,2.6c1.4,0,2.1-0.5,2.7-1.7l3.6,1.4C144.5,650,142.5,651.5,139.2,651.5z M136.3,643.5h5.6 c-0.1-1.5-0.9-2.5-2.7-2.5C137.6,641,136.6,641.9,136.3,643.5z"></path> <path class="st3" d="M157.6,638.4l-1,3.9c-0.6-0.3-1.2-0.4-2-0.4c-1.4,0-2.5,1.1-2.5,3.2v6.2h-4.2v-13h4.2v3.6 c0.5-2.7,1.5-3.8,3.6-3.8C156.4,638,157.1,638.1,157.6,638.4z"></path> </g> <rect x="39" y="44.6" class="st4" width="178.3" height="32.1"></rect> <g class="st2"> <path class="st5" d="M49.5,52.6h7.6c3.7,0,5.3,1.4,5.3,3.7c0,1.9-1.4,3.1-3.6,3.5c2.4,0.2,4,1.4,4,3.6c0,2.7-2.1,4-5.8,4h-7.5 V52.6z M53.4,55.6v3.2h2.4c2,0,2.8-0.6,2.8-1.6c0-1.1-0.7-1.5-2.8-1.5H53.4z M53.4,61.2v3.3h2.8c2.2,0,2.8-0.7,2.8-1.8 c0-1-0.8-1.5-2.9-1.5H53.4z"></path> <path class="st5" d="M64,64.9c0-1.4,0.6-2.1,1.5-2.6c0.9-0.6,2.1-0.9,4.3-1.3c1.7-0.4,2-0.7,2-1.2c0-0.7-0.5-1.1-1.8-1.1 c-1.3,0-2.2,0.7-2.7,2l-3.1-1.2c1.1-2.3,3.2-3.5,5.9-3.5c3.3,0,5.1,1.5,5.1,4.3v3.5c0,1,0.3,1.4,1,1.4c0.3,0,0.5-0.1,0.8-0.1V67 c-0.4,0.3-1.2,0.6-2.2,0.6c-1.9,0-2.9-0.8-3-2.7c-0.7,1.7-2.3,2.7-4.2,2.7C65.3,67.7,64,66.6,64,64.9z M71.8,62.3v-0.5 c-0.3,0.3-0.8,0.5-1.8,0.7c-1.7,0.4-2.4,0.8-2.4,1.5c0,0.7,0.5,1.1,1.5,1.1C70.9,65.2,71.8,63.6,71.8,62.3z"></path> <path class="st5" d="M85.7,67.6c-1.9,0-3-1-3.6-2.5v2.4h-3.7V51.2h3.7v7.3c0.7-1.7,2-2.6,3.8-2.6c2.6,0,4.6,1.8,4.6,5.7 C90.6,65.5,88.5,67.6,85.7,67.6z M86.8,61.8c0-1.9-0.7-3.1-2.4-3.1c-1.7,0-2.4,1.2-2.5,3.1c0,1.9,0.7,3,2.5,3 C86.1,64.8,86.8,63.6,86.8,61.8z"></path> <path class="st5" d="M97.4,71.9h-3.9l2.1-4.8l-4.5-11h3.8l2.3,5.8l0.4,1.5l0.4-1.5l2.2-5.8h3.8L97.4,71.9z"></path> <path class="st5" d="M110.4,52.6h7.6c3.7,0,5.3,1.4,5.3,3.7c0,1.9-1.4,3.1-3.6,3.5c2.4,0.2,4,1.4,4,3.6c0,2.7-2.1,4-5.8,4h-7.5 V52.6z M114.2,55.6v3.2h2.4c2,0,2.8-0.6,2.8-1.6c0-1.1-0.7-1.5-2.8-1.5H114.2z M114.2,61.2v3.3h2.8c2.2,0,2.8-0.7,2.8-1.8 c0-1-0.8-1.5-2.9-1.5H114.2z"></path> <path class="st5" d="M124.9,61.8c0-3.4,2.3-6,6.3-6c4.1,0,6.3,2.6,6.3,5.9s-2.3,5.9-6.3,5.9C127,67.7,124.9,65.2,124.9,61.8z M133.6,61.8c0-1.9-0.7-3.1-2.4-3.1c-1.7,0-2.4,1.2-2.4,3.1c0,1.9,0.7,3,2.4,3C132.9,64.8,133.6,63.6,133.6,61.8z"></path> <path class="st5" d="M138.9,61.8c0-3.4,2.3-6,6.3-6c4.1,0,6.3,2.6,6.3,5.9s-2.3,5.9-6.3,5.9C141,67.7,138.9,65.2,138.9,61.8z M147.6,61.8c0-1.9-0.7-3.1-2.4-3.1c-1.7,0-2.4,1.2-2.4,3.1c0,1.9,0.7,3,2.4,3C146.9,64.8,147.6,63.6,147.6,61.8z"></path> <path class="st5" d="M157.1,67.5h-3.7V56.1h3.7v2.7c0.7-2,2-2.9,3.7-2.9c1.9,0,3.1,1,3.5,2.8c0.8-1.9,2.1-2.8,3.9-2.8 c2.5,0,3.9,1.7,3.9,4.5v7.2h-3.7v-6.1c0-1.8-0.5-2.7-1.9-2.7s-2,1.1-2,3.2v5.5H161v-6.1c0-1.8-0.5-2.7-1.9-2.7c-1.4,0-2,1.1-2,3.2 V67.5z"></path> <path class="st5" d="M180.2,67.7c-4.1,0-6.1-2.5-6.1-5.8c0-3.3,2.3-6,6.2-6c4,0,5.9,2.7,5.9,5.6v1.1h-8.5c0.2,1.5,1.1,2.3,2.7,2.3 c1.2,0,1.9-0.4,2.4-1.5l3.2,1.2C184.9,66.4,183.1,67.7,180.2,67.7z M177.6,60.7h4.9c-0.1-1.3-0.8-2.2-2.3-2.2 C178.7,58.5,177.9,59.3,177.6,60.7z"></path> <path class="st5" d="M196.6,56.2l-0.9,3.4c-0.5-0.2-1-0.4-1.8-0.4c-1.2,0-2.2,1-2.2,2.8v5.4h-3.7V56.1h3.7v3.2 c0.5-2.3,1.3-3.3,3.1-3.3C195.6,55.9,196.2,56,196.6,56.2z"></path> <path class="st5" d="M199.3,63.2c1,1.1,2.1,1.6,3.5,1.6c1.1,0,1.6-0.4,1.6-1c0-0.7-1.1-0.8-3.4-1.2c-2.3-0.4-3.7-1.1-3.7-3.2 s1.7-3.7,4.8-3.7c2.4,0,4.3,0.6,5.7,2.2l-2.5,2.2c-0.8-1.1-2-1.6-3.4-1.6c-1.2,0-1.5,0.4-1.5,0.9c0,0.7,0.9,0.8,2.9,1.1 c2.6,0.4,4.3,1.1,4.3,3.3c0,2.2-1.7,3.7-4.7,3.7c-2.8,0-4.7-0.8-6-2.2L199.3,63.2z"></path> </g> <rect x="39" y="81.3" class="st6" width="178.3" height="32.5"></rect> <g class="st2"> <path class="st5" d="M104.3,101.6c1.8,0,3.1-0.9,3.5-2.9h-4.1v-2.5h7.8v8.3h-3.6v-3.6c-0.8,2.3-2.5,3.8-5,3.8 c-4.4,0-6.3-3.4-6.3-7.2c0-4.6,2.9-8.1,7.9-8.1c3.6,0,5.6,1.4,7.1,3.6l-3.7,2c-0.7-1.5-1.7-2.3-3.5-2.3c-2.2,0-3.8,1.6-3.8,4.4 C100.7,100,101.9,101.6,104.3,101.6z"></path> <path class="st5" d="M119.5,104.7c-4.1,0-6.1-2.5-6.1-5.8c0-3.3,2.3-6,6.2-6c4,0,5.9,2.7,5.9,5.6v1.1h-8.5 c0.2,1.5,1.1,2.3,2.7,2.3c1.2,0,1.9-0.4,2.4-1.5l3.2,1.2C124.2,103.4,122.4,104.7,119.5,104.7z M116.9,97.8h4.9 c-0.1-1.3-0.8-2.2-2.3-2.2C118.1,95.6,117.2,96.3,116.9,97.8z"></path> <path class="st5" d="M127.4,93.1h3.7v2.6c0.7-2,2.1-2.9,3.9-2.9c2.5,0,4,1.7,4,4.5v7.2h-3.7v-6.1c0-1.8-0.6-2.7-2-2.7 c-1.4,0-2.2,1.1-2.2,3.2v5.5h-3.7V93.1z"></path> <path class="st5" d="M150.5,96.8l-4.8-7.1h4.2l2.9,4.4l2.8-4.4h4.2l-4.9,7.1l5.2,7.7H156l-3.3-5l-3.2,5h-4.2L150.5,96.8z"></path> </g> <rect x="39" y="118.4" class="st7" width="178.3" height="32.5"></rect> <g class="st2"> <path class="st5" d="M87.9,126.7v14.9h-3.7v-10.3l0.1-2l-0.4,2.1l-3,10.2h-3.3l-2.9-10.2l-0.5-2.1l0.1,2v10.3h-3.7v-14.9h5.5l3,11 l0.1,0.9l0.2-0.9l3.1-11H87.9z"></path> <path class="st5" d="M92.4,124.4c1.4,0,2.2,0.9,2.2,2.3c0,1.3-0.8,2.2-2.2,2.2c-1.5,0-2.3-0.9-2.3-2.2 C90.2,125.4,91,124.4,92.4,124.4z M94.2,141.6h-3.7v-11.4h3.7V141.6z"></path> <path class="st5" d="M100.4,141.6h-3.7v-16.2h3.7V141.6z"></path> <path class="st5" d="M106.6,141.6h-3.7v-16.2h3.7V141.6z"></path> <path class="st5" d="M114.7,141.8c-4.1,0-6.1-2.5-6.1-5.8c0-3.3,2.3-6,6.2-6c4,0,5.9,2.7,5.9,5.6v1.1h-8.5 c0.2,1.5,1.1,2.3,2.7,2.3c1.2,0,1.9-0.4,2.4-1.5l3.2,1.2C119.4,140.5,117.6,141.8,114.7,141.8z M112.1,134.8h4.9 c-0.1-1.3-0.8-2.2-2.3-2.2C113.3,132.6,112.4,133.4,112.1,134.8z"></path> <path class="st5" d="M122.6,130.2h3.7v2.6c0.7-2,2.1-2.9,3.9-2.9c2.5,0,4,1.7,4,4.5v7.2h-3.7v-6.1c0-1.8-0.6-2.7-2-2.7 c-1.4,0-2.2,1.1-2.2,3.2v5.5h-3.7V130.2z"></path> <path class="st5" d="M136.6,130.2h3.7v2.6c0.7-2,2.1-2.9,3.9-2.9c2.5,0,4,1.7,4,4.5v7.2h-3.7v-6.1c0-1.8-0.6-2.7-2-2.7 c-1.4,0-2.2,1.1-2.2,3.2v5.5h-3.7V130.2z"></path> <path class="st5" d="M152.6,124.4c1.4,0,2.2,0.9,2.2,2.3c0,1.3-0.8,2.2-2.2,2.2c-1.5,0-2.3-0.9-2.3-2.2 C150.3,125.4,151.1,124.4,152.6,124.4z M154.4,141.6h-3.7v-11.4h3.7V141.6z"></path> <path class="st5" d="M156.2,139c0-1.4,0.6-2.1,1.5-2.6c0.9-0.6,2.1-0.9,4.3-1.3c1.7-0.4,2-0.7,2-1.2c0-0.7-0.5-1.1-1.8-1.1 c-1.3,0-2.2,0.7-2.7,2l-3.1-1.2c1.1-2.3,3.2-3.5,5.9-3.5c3.3,0,5.1,1.5,5.1,4.3v3.5c0,1,0.3,1.4,1,1.4c0.3,0,0.5-0.1,0.8-0.1v2.2 c-0.4,0.3-1.2,0.6-2.2,0.6c-1.9,0-2.9-0.8-3-2.7c-0.7,1.7-2.3,2.7-4.2,2.7C157.6,141.8,156.2,140.7,156.2,139z M164.1,136.4v-0.5 c-0.3,0.3-0.8,0.5-1.8,0.7c-1.7,0.4-2.4,0.8-2.4,1.5c0,0.7,0.5,1.1,1.5,1.1C163.2,139.3,164.1,137.7,164.1,136.4z"></path> <path class="st5" d="M174.4,141.6h-3.7v-16.2h3.7V141.6z"></path> <path class="st5" d="M178.3,137.3c1,1.1,2.1,1.6,3.5,1.6c1.1,0,1.6-0.4,1.6-1c0-0.7-1.1-0.8-3.4-1.2c-2.3-0.4-3.7-1.1-3.7-3.2 s1.7-3.7,4.8-3.7c2.4,0,4.3,0.6,5.7,2.2l-2.5,2.2c-0.8-1.1-2-1.6-3.4-1.6c-1.2,0-1.5,0.4-1.5,0.9c0,0.7,0.9,0.8,2.9,1.1 c2.6,0.4,4.3,1.1,4.3,3.3c0,2.2-1.7,3.7-4.7,3.7c-2.8,0-4.7-0.8-6-2.2L178.3,137.3z"></path> </g> <rect x="39" y="155.6" class="st8" width="178.3" height="32.5"></rect> <g class="st2"> <path class="st5" d="M105.1,175.7c1.8,0,3.1-0.9,3.5-2.9h-4.1v-2.5h7.8v8.3h-3.6V175c-0.8,2.3-2.5,3.8-5,3.8 c-4.4,0-6.3-3.4-6.3-7.2c0-4.6,2.9-8.1,7.9-8.1c3.6,0,5.6,1.4,7.1,3.6l-3.7,2c-0.7-1.5-1.7-2.3-3.5-2.3c-2.2,0-3.8,1.6-3.8,4.4 C101.5,174.1,102.8,175.7,105.1,175.7z"></path> <path class="st5" d="M120.3,178.8c-4.1,0-6.1-2.5-6.1-5.8c0-3.3,2.3-6,6.2-6c4,0,5.9,2.7,5.9,5.6v1.1h-8.5 c0.2,1.5,1.1,2.3,2.7,2.3c1.2,0,1.9-0.4,2.4-1.5l3.2,1.2C125,177.6,123.2,178.8,120.3,178.8z M117.8,171.9h4.9 c-0.1-1.3-0.8-2.2-2.3-2.2C118.9,169.7,118,170.5,117.8,171.9z"></path> <path class="st5" d="M128.2,167.2h3.7v2.6c0.7-2,2.1-2.9,3.9-2.9c2.5,0,4,1.7,4,4.5v7.2h-3.7v-6.1c0-1.8-0.6-2.7-2-2.7 c-1.4,0-2.2,1.1-2.2,3.2v5.5h-3.7V167.2z"></path> <path class="st5" d="M154,167.9l1.1-0.9h-8v-3.3h11.6v3.3l-6.8,7l-1.4,1.2h8.4v3.4h-12v-3.3L154,167.9z"></path> </g> <g class="st2"> <defs> <rect id="SVGID_1_" x="223.6" width="524.4" height="499.5"></rect> </defs> <clipPath id="SVGID_00000119831074990368148060000006513889949456206214_"> <use xlink:href="#SVGID_1_" style="overflow:visible;"></use> </clipPath> <path style="clip-path:url(#SVGID_00000119831074990368148060000006513889949456206214_);fill-rule:evenodd;clip-rule:evenodd;fill:#00A7B5;" d=" M487,48c24.6,0,48.9,4.5,71.9,13.2L523,156c-11.5-4.4-23.7-6.6-35.9-6.6L487,48z"></path> <path style="opacity:0.302;clip-path:url(#SVGID_00000119831074990368148060000006513889949456206214_);fill:none;stroke:#FFFFFF;stroke-width:0.75;stroke-linejoin:round;stroke-miterlimit:10;" d=" M487,48c24.6,0,48.9,4.5,71.9,13.2L523,156c-11.5-4.4-23.7-6.6-35.9-6.6L487,48z"></path> </g> <g class="st2"> <defs> <rect id="SVGID_00000034797922113482292020000009892165709376933292_" x="223.6" width="524.4" height="499.5"></rect> </defs> <clipPath id="SVGID_00000061448451802987237140000011055154444308294072_"> <use xlink:href="#SVGID_00000034797922113482292020000009892165709376933292_" style="overflow:visible;"></use> </clipPath> <path style="clip-path:url(#SVGID_00000061448451802987237140000011055154444308294072_);fill-rule:evenodd;clip-rule:evenodd;fill:#9000E8;" d=" M558.9,61.2c104.7,39.7,157.4,156.7,117.7,261.4c-17.2,45.5-50.2,83.2-93,106.4l-48.3-89.1c49.2-26.7,67.5-88.2,40.8-137.4 c-11.6-21.4-30.5-37.9-53.2-46.5L558.9,61.2z"></path> <path style="opacity:0.302;clip-path:url(#SVGID_00000061448451802987237140000011055154444308294072_);fill:none;stroke:#FFFFFF;stroke-width:0.75;stroke-linejoin:round;stroke-miterlimit:10;" d=" M558.9,61.2c104.7,39.7,157.4,156.7,117.7,261.4c-17.2,45.5-50.2,83.2-93,106.4l-48.3-89.1c49.2-26.7,67.5-88.2,40.8-137.4 c-11.6-21.4-30.5-37.9-53.2-46.5L558.9,61.2z"></path> </g> <g class="st2"> <defs> <rect id="SVGID_00000023998845543717444680000004350228819695455127_" x="223.6" width="524.4" height="499.5"></rect> </defs> <clipPath id="SVGID_00000013911983454654147310000009790998061898931379_"> <use xlink:href="#SVGID_00000023998845543717444680000004350228819695455127_" style="overflow:visible;"></use> </clipPath> <path style="clip-path:url(#SVGID_00000013911983454654147310000009790998061898931379_);fill-rule:evenodd;clip-rule:evenodd;fill:#04006C;" d=" M583.6,429c-98.4,53.3-221.5,16.8-274.8-81.6S292,125.9,390.4,72.5c8.1-4.4,16.5-8.2,25.1-11.5l35.7,94.9 c-52.4,19.7-78.9,78.2-59.1,130.6c19.7,52.4,78.2,78.9,130.6,59.1c4.3-1.6,8.5-3.5,12.6-5.7L583.6,429z"></path> <path style="opacity:0.302;clip-path:url(#SVGID_00000013911983454654147310000009790998061898931379_);fill:none;stroke:#FFFFFF;stroke-width:0.75;stroke-linejoin:round;stroke-miterlimit:10;" d=" M583.6,429c-98.4,53.3-221.5,16.8-274.8-81.6S292,125.9,390.4,72.5c8.1-4.4,16.5-8.2,25.1-11.5l35.7,94.9 c-52.4,19.7-78.9,78.2-59.1,130.6c19.7,52.4,78.2,78.9,130.6,59.1c4.3-1.6,8.5-3.5,12.6-5.7L583.6,429z"></path> </g> <g class="st2"> <defs> <rect id="SVGID_00000044873202178961618210000009885477785184932278_" x="223.6" width="524.4" height="499.5"></rect> </defs> <clipPath id="SVGID_00000164479670502115699230000017008569725410065806_"> <use xlink:href="#SVGID_00000044873202178961618210000009885477785184932278_" style="overflow:visible;"></use> </clipPath> <path style="clip-path:url(#SVGID_00000164479670502115699230000017008569725410065806_);fill-rule:evenodd;clip-rule:evenodd;fill:#FD5911;" d=" M415.6,61c22.8-8.6,47-13,71.4-13l0,101.4c-12.2,0-24.3,2.2-35.7,6.5L415.6,61z"></path> <path style="opacity:0.302;clip-path:url(#SVGID_00000164479670502115699230000017008569725410065806_);fill:none;stroke:#FFFFFF;stroke-width:0.75;stroke-linejoin:round;stroke-miterlimit:10;" d=" M415.6,61c22.8-8.6,47-13,71.4-13l0,101.4c-12.2,0-24.3,2.2-35.7,6.5L415.6,61z"></path> </g> <g class="st2"> <defs> <rect id="SVGID_00000157299681155092193560000014248589703346960006_" x="286.8" y="69.9" width="461.1" height="48.2"></rect> </defs> <clipPath id="SVGID_00000069369630352701720510000004218745071694365874_"> <use xlink:href="#SVGID_00000157299681155092193560000014248589703346960006_" style="overflow:visible;"></use> </clipPath> <g style="clip-path:url(#SVGID_00000069369630352701720510000004218745071694365874_);"> <path class="st5" d="M511.4,107.6c-4.5,0-7.1-1.7-8.5-4.1l5.1-3c0.6,1.5,1.7,2.5,3.4,2.5c2,0,3.1-1.2,3.1-3.2 c0-2.1-1.3-3.2-3.1-3.2c-1.6,0-2.6,0.9-3.3,2l-4.7-0.7l1.1-11.8h14.4v4.7h-10.1l-0.6,5.3c1.1-1.8,2.9-2.9,5.5-2.9 c3.7,0,6.1,2.3,6.1,6.7C519.9,104.5,516.7,107.6,511.4,107.6z"></path> <path class="st5" d="M522.1,104.4c0-2,1.4-3.3,3.4-3.3c2,0,3.4,1.3,3.4,3.3c0,1.9-1.4,3.3-3.4,3.3 C523.5,107.6,522.1,106.3,522.1,104.4z"></path> <path class="st5" d="M540,107.6c-5.9,0-9.2-2-9.2-5.8c0-2.9,2.1-4.9,5.3-5.6c-2.6-0.5-4.5-1.9-4.5-4.7c0-3.3,3.3-5.7,8.5-5.7 c5,0,8.4,2.3,8.4,5.5c0,2.7-1.8,4.2-4.4,4.8c3.1,0.6,5.1,2.6,5.1,5.4C549.1,105.2,545.5,107.6,540,107.6z M543.7,100.3 c0-1.6-1.2-2.7-3.7-2.7c-2.4,0-3.7,1.2-3.7,2.8c0,1.5,1.1,2.7,3.7,2.7C542.6,103.1,543.7,101.9,543.7,100.3z M543.3,92.5 c0-1.5-1.1-2.5-3.3-2.5c-2.2,0-3.4,1.1-3.4,2.6c0,1.5,1.1,2.5,3.3,2.5C542.3,95,543.3,94,543.3,92.5z"></path> <path class="st5" d="M556.5,96.9c-3.2,0-5.4-2.2-5.4-5.6c0-3.3,2.2-5.5,5.4-5.5s5.4,2.2,5.4,5.5 C561.8,94.6,559.6,96.9,556.5,96.9z M551.5,104.7l8.6-7.2l1.2,1.1l-5.8,9.6L551.5,104.7z M556.5,93.7c1,0,1.6-0.9,1.6-2.4 c0-1.5-0.6-2.4-1.6-2.4c-1,0-1.7,0.8-1.7,2.4C554.8,92.8,555.4,93.7,556.5,93.7z M567.5,107.6c-3.2,0-5.4-2.3-5.4-5.7 c0-3.3,2.2-5.5,5.4-5.5c3.2,0,5.4,2.2,5.4,5.5C572.9,105.3,570.7,107.6,567.5,107.6z M572.4,88.8l-8.8,7.1l-1.3-1.1l6-9.6 L572.4,88.8z M567.5,104.4c1,0,1.6-0.9,1.6-2.5c0-1.5-0.6-2.3-1.6-2.3c-1.1,0-1.7,0.8-1.7,2.3 C565.8,103.5,566.4,104.4,567.5,104.4z"></path> </g> </g> <g class="st2"> <defs> <rect id="SVGID_00000183971584945248728980000000167133564494995872_" x="298.7" y="301" width="449.2" height="48.6"></rect> </defs> <clipPath id="SVGID_00000011748006112360477210000006680755190788516499_"> <use xlink:href="#SVGID_00000183971584945248728980000000167133564494995872_" style="overflow:visible;"></use> </clipPath> <g style="clip-path:url(#SVGID_00000011748006112360477210000006680755190788516499_);"> <path class="st5" d="M577.5,331.3c0.9,1.8,2.5,2.8,4.6,2.8c2.3,0,3.3-1,3.3-2.5c0-1.6-1.3-2.2-3.8-2.2h-2.8v-3.5h2.5 c2.2,0,3.6-0.7,3.6-2.2c0-1.6-1.1-2.4-3.1-2.4c-1.9,0-3.3,1-4.2,3.1l-4.5-2.4c2-3.3,5.1-5,9.2-5c4.7,0,7.7,2,7.7,5.5 c0,2.8-2,4.4-4.9,5c3.4,0.5,5.4,2,5.4,5.1c0,3.6-3,6.2-8.2,6.2c-4.3,0-7.5-1.5-9.3-4.6L577.5,331.3z"></path> <path class="st5" d="M610.7,320.1l-4.4,3.3c-1-1.4-1.9-2-3.7-2c-2.6,0-4.3,1.9-4.4,6.4c1.3-2.1,3.2-3.2,5.8-3.2 c3.9,0,6.6,2.3,6.6,6.6c0,4.1-2.9,7.6-8.5,7.6c-6.7,0-9.4-4.8-9.4-10.4c0-7.5,4.2-11.5,10-11.5C606.8,316.8,609,318,610.7,320.1z M598.5,330.6c0.5,2.3,1.6,3.4,3.7,3.4c2.2,0,3.3-1.3,3.3-3.3c0-2.1-1.5-2.9-3.2-2.9C600.5,327.9,599.1,328.9,598.5,330.6z"></path> <path class="st5" d="M612.8,335.4c0-2,1.4-3.3,3.4-3.3c2,0,3.4,1.3,3.4,3.3c0,1.9-1.4,3.3-3.4,3.3 C614.1,338.7,612.8,337.4,612.8,335.4z"></path> <path class="st5" d="M625.6,331.3c0.9,1.8,2.5,2.8,4.6,2.8c2.3,0,3.3-1,3.3-2.5c0-1.6-1.3-2.2-3.8-2.2H627v-3.5h2.5 c2.2,0,3.6-0.7,3.6-2.2c0-1.6-1.1-2.4-3.1-2.4c-1.9,0-3.3,1-4.2,3.1l-4.5-2.4c2-3.3,5.1-5,9.2-5c4.7,0,7.7,2,7.7,5.5 c0,2.8-2,4.4-4.9,5c3.4,0.5,5.4,2,5.4,5.1c0,3.6-3,6.2-8.2,6.2c-4.3,0-7.5-1.5-9.3-4.6L625.6,331.3z"></path> <path class="st5" d="M646.4,327.9c-3.2,0-5.4-2.2-5.4-5.6c0-3.3,2.2-5.5,5.4-5.5s5.4,2.2,5.4,5.5 C651.7,325.7,649.5,327.9,646.4,327.9z M641.4,335.8l8.6-7.2l1.2,1.1l-5.8,9.6L641.4,335.8z M646.4,324.8c1,0,1.6-0.9,1.6-2.4 c0-1.5-0.6-2.4-1.6-2.4c-1,0-1.7,0.8-1.7,2.4C644.7,323.9,645.3,324.8,646.4,324.8z M657.4,338.6c-3.2,0-5.4-2.3-5.4-5.7 c0-3.3,2.2-5.5,5.4-5.5c3.2,0,5.4,2.2,5.4,5.5C662.8,336.3,660.6,338.6,657.4,338.6z M662.3,319.9l-8.8,7.1l-1.3-1.1l6-9.6 L662.3,319.9z M657.4,335.5c1,0,1.6-0.9,1.6-2.5c0-1.5-0.6-2.3-1.6-2.3c-1.1,0-1.7,0.8-1.7,2.3 C655.8,334.6,656.4,335.5,657.4,335.5z"></path> </g> </g> <g class="st2"> <defs> <rect id="SVGID_00000052815528517537032910000008070526350302924714_" x="223.6" y="310.1" width="452.3" height="48.2"></rect> </defs> <clipPath id="SVGID_00000085208573151321556490000014027289254848446854_"> <use xlink:href="#SVGID_00000052815528517537032910000008070526350302924714_" style="overflow:visible;"></use> </clipPath> <g style="clip-path:url(#SVGID_00000085208573151321556490000014027289254848446854_);"> <path class="st5" d="M330.4,347.8c-4.5,0-7.1-1.7-8.5-4.1l5.1-3c0.6,1.5,1.7,2.5,3.4,2.5c2,0,3.1-1.2,3.1-3.2 c0-2.1-1.3-3.2-3.1-3.2c-1.6,0-2.6,0.9-3.3,2l-4.7-0.7l1.1-11.8h14.4v4.7h-10.1l-0.6,5.3c1.1-1.8,2.9-2.9,5.5-2.9 c3.7,0,6.1,2.3,6.1,6.7C338.9,344.6,335.7,347.8,330.4,347.8z"></path> <path class="st5" d="M356.9,332.2c0,4.4-4,6.8-11.4,10.3h11.6v4.9h-16.3v-4.7c9.1-5.6,10.8-7.6,10.8-9.8c0-1.7-1-2.7-2.7-2.7 c-1.9,0-3.1,1.2-3.6,4l-5.1-1.6c1.2-4.3,4.3-6.7,8.9-6.7C354.4,325.9,356.9,328.8,356.9,332.2z"></path> <path class="st5" d="M359.4,344.5c0-2,1.4-3.3,3.3-3.3c2,0,3.4,1.3,3.4,3.3c0,1.9-1.4,3.3-3.4,3.3 C360.7,347.8,359.4,346.5,359.4,344.5z"></path> <path class="st5" d="M384.5,332.2c0,4.4-4,6.8-11.4,10.3h11.6v4.9h-16.3v-4.7c9.1-5.6,10.8-7.6,10.8-9.8c0-1.7-1-2.7-2.7-2.7 c-1.9,0-3.1,1.2-3.6,4l-5.1-1.6c1.2-4.3,4.3-6.7,8.9-6.7C382,325.9,384.5,328.8,384.5,332.2z"></path> <path class="st5" d="M392.3,337c-3.2,0-5.4-2.2-5.4-5.6c0-3.3,2.2-5.5,5.4-5.5s5.4,2.2,5.4,5.5C397.7,334.7,395.5,337,392.3,337z M387.3,344.9l8.6-7.2l1.2,1.1l-5.8,9.6L387.3,344.9z M392.3,333.9c1,0,1.6-0.9,1.6-2.4c0-1.5-0.6-2.4-1.6-2.4 c-1,0-1.7,0.8-1.7,2.4C390.6,333,391.3,333.9,392.3,333.9z M403.3,347.7c-3.2,0-5.4-2.3-5.4-5.7c0-3.3,2.2-5.5,5.4-5.5 c3.2,0,5.4,2.2,5.4,5.5C408.7,345.4,406.5,347.7,403.3,347.7z M408.3,329l-8.8,7.1l-1.3-1.1l6-9.6L408.3,329z M403.3,344.6 c1,0,1.6-0.9,1.6-2.5c0-1.5-0.6-2.3-1.6-2.3c-1.1,0-1.7,0.8-1.7,2.3C401.7,343.7,402.3,344.6,403.3,344.6z"></path> </g> </g> <g class="st2"> <defs> <rect id="SVGID_00000121971766209132116550000008187574930461101977_" x="223.6" y="70.3" width="464.9" height="48.2"></rect> </defs> <clipPath id="SVGID_00000086682952408382391390000018246267118223327915_"> <use xlink:href="#SVGID_00000121971766209132116550000008187574930461101977_" style="overflow:visible;"></use> </clipPath> <g style="clip-path:url(#SVGID_00000086682952408382391390000018246267118223327915_);"> <path class="st5" d="M420.2,108c-4.5,0-7.1-1.7-8.5-4.1l5.1-3c0.6,1.5,1.7,2.5,3.4,2.5c2,0,3.1-1.2,3.1-3.2 c0-2.1-1.3-3.2-3.1-3.2c-1.6,0-2.6,0.9-3.3,2l-4.7-0.7l1.1-11.8h14.4v4.7h-10.1l-0.6,5.3c1.1-1.8,2.9-2.9,5.5-2.9 c3.7,0,6.1,2.3,6.1,6.7C428.6,104.8,425.4,108,420.2,108z"></path> <path class="st5" d="M430.9,104.7c0-2,1.4-3.3,3.3-3.3c2,0,3.4,1.3,3.4,3.3c0,1.9-1.4,3.3-3.4,3.3 C432.2,108,430.9,106.6,430.9,104.7z"></path> <path class="st5" d="M450,91.1h-10.3v-4.7h15.7v4.4l-8.2,16.8h-5.9L450,91.1z"></path> <path class="st5" d="M462.8,97.2c-3.2,0-5.4-2.2-5.4-5.6c0-3.3,2.2-5.5,5.4-5.5s5.4,2.2,5.4,5.5C468.1,94.9,466,97.2,462.8,97.2z M457.8,105l8.6-7.2l1.2,1.1l-5.8,9.6L457.8,105z M462.8,94.1c1,0,1.6-0.9,1.6-2.4c0-1.5-0.6-2.4-1.6-2.4c-1,0-1.7,0.8-1.7,2.4 C461.1,93.2,461.7,94.1,462.8,94.1z M473.8,107.9c-3.2,0-5.4-2.3-5.4-5.7c0-3.3,2.2-5.5,5.4-5.5c3.2,0,5.4,2.2,5.4,5.5 C479.2,105.6,477,107.9,473.8,107.9z M478.7,89.2l-8.8,7.1l-1.3-1.1l6-9.6L478.7,89.2z M473.8,104.8c1,0,1.6-0.9,1.6-2.5 c0-1.5-0.6-2.3-1.6-2.3c-1.1,0-1.7,0.8-1.7,2.3C472.2,103.9,472.8,104.8,473.8,104.8z"></path> </g> </g> <g class="st2"> <path class="st3" d="M243.4,487.1h2v13.1h7.9v1.8h-9.9V487.1z"></path> <path class="st3" d="M261,502.2c-3.9,0-5.9-2.5-5.9-5.8c0-3.3,2.2-6,5.8-6c3.6,0,5.3,2.6,5.3,5.8v0.6H257c0.2,2.3,1.5,3.8,3.9,3.8 c1.7,0,2.7-0.8,3.4-1.9l1.7,0.9C265.1,501,263.6,502.2,261,502.2z M257.1,495.5h7.2c-0.1-2.1-1.2-3.5-3.4-3.5 C258.7,492,257.3,493.4,257.1,495.5z"></path> <path class="st3" d="M267.9,499.4c0-1.3,0.6-2.1,1.5-2.6c0.8-0.5,1.9-0.8,3.5-1.1c2.2-0.5,3.2-0.8,3.2-1.8c0-1-0.7-1.9-2.6-1.9 c-1.9,0-2.9,0.9-3.5,2.5l-1.8-0.6c1-2.3,2.8-3.5,5.4-3.5c2.8,0,4.4,1.4,4.4,3.9v4.7c0,1.3,0.4,1.7,1.2,1.7c0.3,0,0.6-0.1,0.8-0.1 v1.4c-0.3,0.2-0.9,0.3-1.4,0.3c-1.7,0-2.4-0.8-2.4-2.7v-0.6c-0.7,2.1-2.6,3.3-4.7,3.3C269.1,502.2,267.9,501,267.9,499.4z M276.3,496.4v-0.9c-0.4,0.6-1.3,0.9-3.1,1.3c-2.1,0.5-3.3,0.9-3.3,2.3c0,1,0.8,1.6,2.3,1.6C274.2,500.7,276.3,499,276.3,496.4z"></path> <path class="st3" d="M286.6,490.4c2,0,3.3,0.9,4.1,2.6v-7.3h2V502h-2v-2.6c-0.8,1.8-2.4,2.8-4.3,2.8c-2.7,0-5.1-1.9-5.1-5.8 C281.4,492.4,283.9,490.4,286.6,490.4z M290.8,496.3c0-2.4-1.2-4.2-3.8-4.2c-2.2,0-3.7,1.7-3.7,4.3c0,2.7,1.4,4.2,3.7,4.2 C289.6,500.5,290.8,498.6,290.8,496.3z"></path> <path class="st3" d="M301.1,502.2c-3.9,0-5.9-2.5-5.9-5.8c0-3.3,2.2-6,5.8-6c3.6,0,5.3,2.6,5.3,5.8v0.6h-9.2 c0.2,2.3,1.5,3.8,3.9,3.8c1.7,0,2.7-0.8,3.4-1.9l1.7,0.9C305.2,501,303.6,502.2,301.1,502.2z M297.2,495.5h7.2 c-0.1-2.1-1.2-3.5-3.4-3.5C298.7,492,297.4,493.4,297.2,495.5z"></path> <path class="st3" d="M316.2,491l-0.6,1.8c-0.6-0.4-1.2-0.6-2-0.6c-1.6,0-2.8,1.3-2.8,4.2v5.6h-2v-11.4h2v2.9 c0.5-2.1,1.7-3.1,3.4-3.1C315,490.4,315.7,490.6,316.2,491z"></path> <path class="st3" d="M318.6,498.5c0.9,1.3,2.2,2,4,2c1.9,0,2.6-1,2.6-1.9c0-1.3-1.6-1.5-3.9-1.9c-2.4-0.4-3.8-1.1-3.8-3 c0-2,1.7-3.5,4.4-3.5c2.4,0,4,0.8,5.2,2.4l-1.5,1.3c-0.9-1.4-2.1-2.1-3.8-2.1c-1.8,0-2.6,0.8-2.6,1.8c0,1.1,1.1,1.4,3.3,1.8 c2.5,0.4,4.4,0.9,4.4,3.1c0,1.9-1.6,3.5-4.5,3.5c-2.7,0-4.4-0.9-5.4-2.3L318.6,498.5z"></path> <path class="st3" d="M329.7,485.8h2v7.8c0.8-2.1,2.3-3.2,4.3-3.2c2.8,0,4.2,2,4.2,4.8v6.8h-2v-6.4c0-2.1-0.7-3.6-3-3.6 c-2,0-3.5,1.6-3.5,4.5v5.5h-2V485.8z"></path> <path class="st3" d="M344.2,486.1c0.9,0,1.4,0.6,1.4,1.4s-0.5,1.3-1.4,1.3c-0.9,0-1.4-0.6-1.4-1.3S343.4,486.1,344.2,486.1z M345.2,502h-2v-11.4h2V502z"></path> <path class="st3" d="M354.7,502.2c-2,0-3.5-1-4.2-2.7v7h-2v-15.8h2v2.6c0.8-1.8,2.5-2.8,4.4-2.8c2.6,0,5,1.9,5,5.8 C359.8,500,357.5,502.2,354.7,502.2z M357.8,496.2c0-2.7-1.5-4.2-3.7-4.2c-2.5,0-3.8,1.9-3.8,4.3c0,2.4,1.3,4.2,3.9,4.2 C356.4,500.5,357.8,498.9,357.8,496.2z"></path> </g> <g class="st2"> <defs> <rect id="SVGID_00000134243984435827648520000002552298837280144769_" x="239.7" y="512.8" width="493.9" height="150"></rect> </defs> <clipPath id="SVGID_00000177449103211559007690000016653864587546432959_"> <use xlink:href="#SVGID_00000134243984435827648520000002552298837280144769_" style="overflow:visible;"></use> </clipPath> <rect x="240.9" y="627.5" style="clip-path:url(#SVGID_00000177449103211559007690000016653864587546432959_);fill:#FD5911;" width="3" height="32.5"></rect> <rect x="240.9" y="627.5" style="opacity:0.302;clip-path:url(#SVGID_00000177449103211559007690000016653864587546432959_);fill:none;stroke:#FFFFFF;stroke-width:0.75;stroke-linejoin:round;stroke-miterlimit:10;" width="3" height="32.5"></rect> </g> <g class="st2"> <defs> <rect id="SVGID_00000164477334536870588440000015481491176284800953_" x="239.7" y="512.8" width="493.9" height="150"></rect> </defs> <clipPath id="SVGID_00000100345974623982878160000006972436559257130386_"> <use xlink:href="#SVGID_00000164477334536870588440000015481491176284800953_" style="overflow:visible;"></use> </clipPath> <path style="clip-path:url(#SVGID_00000100345974623982878160000006972436559257130386_);fill:#04006C;" d="M272.5,548.1h-31.6 V516h31.6V548.1z M341,585.5H240.9V553H341V585.5z M423.2,622.6H240.9v-32.2h182.3V622.6z M512,660H243.9v-32.5H512V660z"></path> <path style="opacity:0.302;clip-path:url(#SVGID_00000100345974623982878160000006972436559257130386_);fill:none;stroke:#FFFFFF;stroke-width:0.75;stroke-linejoin:round;stroke-miterlimit:10;" d=" M272.5,548.1h-31.6V516h31.6V548.1z M341,585.5H240.9V553H341V585.5z M423.2,622.6H240.9v-32.2h182.3V622.6z M512,660H243.9v-32.5 H512V660z"></path> </g> <g class="st2"> <defs> <rect id="SVGID_00000165931696225265291230000009556976735988222376_" x="239.7" y="512.8" width="493.9" height="150"></rect> </defs> <clipPath id="SVGID_00000037668083958833452120000000641851433420862381_"> <use xlink:href="#SVGID_00000165931696225265291230000009556976735988222376_" style="overflow:visible;"></use> </clipPath> <path style="clip-path:url(#SVGID_00000037668083958833452120000000641851433420862381_);fill:#9000E8;" d="M642,548.1H272.5V516 H642V548.1z M681.5,585.5H341V553h340.5V585.5z M694.8,622.6H423.2v-32.2h271.6V622.6z M710.9,660H512v-32.5h198.9V660z"></path> <path style="opacity:0.302;clip-path:url(#SVGID_00000037668083958833452120000000641851433420862381_);fill:none;stroke:#FFFFFF;stroke-width:0.75;stroke-linejoin:round;stroke-miterlimit:10;" d=" M642,548.1H272.5V516H642V548.1z M681.5,585.5H341V553h340.5V585.5z M694.8,622.6H423.2v-32.2h271.6V622.6z M710.9,660H512v-32.5 h198.9V660z"></path> </g> <g class="st2"> <defs> <rect id="SVGID_00000121253323383496507710000013772608444882309020_" x="239.7" y="512.8" width="493.9" height="150"></rect> </defs> <clipPath id="SVGID_00000160895550505765218060000005908942606818811554_"> <use xlink:href="#SVGID_00000121253323383496507710000013772608444882309020_" style="overflow:visible;"></use> </clipPath> <path style="clip-path:url(#SVGID_00000160895550505765218060000005908942606818811554_);fill:#00A7B5;" d="M733.3,548.1H642V516 h91.2V548.1z M733.3,585.5h-51.7V553h51.7V585.5z M733.3,622.6h-38.5v-32.2h38.5V622.6z M733.3,660h-22.4v-32.5h22.4V660z"></path> <path style="opacity:0.302;clip-path:url(#SVGID_00000160895550505765218060000005908942606818811554_);fill:none;stroke:#FFFFFF;stroke-width:0.75;stroke-linejoin:round;stroke-miterlimit:10;" d=" M733.3,548.1H642V516h91.2V548.1z M733.3,585.5h-51.7V553h51.7V585.5z M733.3,622.6h-38.5v-32.2h38.5V622.6z M733.3,660h-22.4 v-32.5h22.4V660z"></path> </g> <g class="st2"> <defs> <rect id="SVGID_00000075877622766555775430000001779645962505111199_" x="223.6" y="627.8" width="318.5" height="31.8"></rect> </defs> <clipPath id="SVGID_00000171696086336447931910000009753169601598820750_"> <use xlink:href="#SVGID_00000075877622766555775430000001779645962505111199_" style="overflow:visible;"></use> </clipPath> <g style="clip-path:url(#SVGID_00000171696086336447931910000009753169601598820750_);"> <path class="st5" d="M361.2,652.5c-3.4,0-5.3-1.3-6.4-3.1l3.8-2.2c0.5,1.1,1.3,1.9,2.6,1.9c1.5,0,2.3-0.9,2.3-2.4 c0-1.6-1-2.4-2.3-2.4c-1.2,0-2,0.7-2.5,1.5l-3.6-0.5l0.9-8.9h10.8v3.6h-7.6l-0.4,4c0.8-1.3,2.2-2.2,4.1-2.2c2.8,0,4.6,1.7,4.6,5 C367.5,650.2,365.1,652.5,361.2,652.5z"></path> <path class="st5" d="M380.5,646.6h2.3v2.6h-2.3v3.1l-4,0v-3.2h-7.9v-2.4l6.5-10.4h4.8l0.2,0.2l-7.5,10h4v-3.2h4V646.6z"></path> <path class="st5" d="M388,644.5c-2.4,0-4-1.7-4-4.2c0-2.4,1.6-4.1,4-4.1c2.4,0,4,1.7,4,4.1C392,642.8,390.4,644.5,388,644.5z M384.3,650.3l6.5-5.4l0.9,0.8l-4.4,7.2L384.3,650.3z M388,642.1c0.8,0,1.2-0.7,1.2-1.8c0-1.1-0.4-1.8-1.2-1.8 c-0.8,0-1.2,0.6-1.2,1.8C386.7,641.4,387.2,642.1,388,642.1z M396.3,652.5c-2.4,0-4-1.7-4-4.2c0-2.4,1.6-4.1,4-4.1 c2.4,0,4,1.7,4,4.1C400.3,650.8,398.7,652.5,396.3,652.5z M400,638.4l-6.6,5.3l-0.9-0.8l4.5-7.2L400,638.4z M396.3,650.1 c0.8,0,1.2-0.7,1.2-1.9c0-1.1-0.4-1.7-1.2-1.7c-0.8,0-1.2,0.6-1.2,1.7C395,649.5,395.5,650.1,396.3,650.1z"></path> </g> </g> <g class="st2"> <defs> <rect id="SVGID_00000041290572641266761870000008830351264343586712_" x="223.6" y="590.4" width="267.4" height="32.2"></rect> </defs> <clipPath id="SVGID_00000013900198519328950220000008050784763575849357_"> <use xlink:href="#SVGID_00000041290572641266761870000008830351264343586712_" style="overflow:visible;"></use> </clipPath> <g style="clip-path:url(#SVGID_00000013900198519328950220000008050784763575849357_);"> <path class="st5" d="M312.9,609.6c0.7,1.4,1.9,2.1,3.5,2.1c1.7,0,2.5-0.8,2.5-1.9c0-1.2-0.9-1.6-2.8-1.6h-2.1v-2.6h1.9 c1.6,0,2.7-0.5,2.7-1.7c0-1.2-0.8-1.8-2.3-1.8c-1.4,0-2.5,0.7-3.2,2.3l-3.4-1.8c1.5-2.5,3.8-3.8,6.9-3.8c3.5,0,5.8,1.5,5.8,4.2 c0,2.1-1.5,3.3-3.7,3.7c2.5,0.4,4,1.5,4,3.8c0,2.7-2.2,4.7-6.2,4.7c-3.2,0-5.6-1.1-7-3.5L312.9,609.6z"></path> <path class="st5" d="M331.8,602.5h-7.8v-3.5h11.8v3.3l-6.2,12.6h-4.4L331.8,602.5z"></path> <path class="st5" d="M341.4,607.1c-2.4,0-4-1.7-4-4.2c0-2.4,1.6-4.1,4-4.1c2.4,0,4,1.7,4,4.1 C345.4,605.4,343.8,607.1,341.4,607.1z M337.7,612.9l6.5-5.4l0.9,0.8l-4.4,7.2L337.7,612.9z M341.4,604.7c0.8,0,1.2-0.7,1.2-1.8 c0-1.1-0.4-1.8-1.2-1.8c-0.8,0-1.2,0.6-1.2,1.8C340.2,604,340.6,604.7,341.4,604.7z M349.7,615.1c-2.4,0-4-1.7-4-4.2 c0-2.4,1.6-4.1,4-4.1c2.4,0,4,1.7,4,4.1C353.7,613.4,352.1,615.1,349.7,615.1z M353.4,601l-6.6,5.3l-0.9-0.8l4.5-7.2L353.4,601z M349.7,612.7c0.8,0,1.2-0.7,1.2-1.9c0-1.1-0.4-1.7-1.2-1.7c-0.8,0-1.2,0.6-1.2,1.7C348.4,612.1,348.9,612.7,349.7,612.7z"></path> </g> </g> <g class="st2"> <defs> <rect id="SVGID_00000089542680533423792110000004944120574909299109_" x="223.6" y="553.4" width="234.9" height="31.8"></rect> </defs> <clipPath id="SVGID_00000083773924251548593550000012729672697967255460_"> <use xlink:href="#SVGID_00000089542680533423792110000004944120574909299109_" style="overflow:visible;"></use> </clipPath> <g style="clip-path:url(#SVGID_00000083773924251548593550000012729672697967255460_);"> <path class="st5" d="M279.9,566.4c0,3.3-3,5.1-8.6,7.8h8.7v3.7h-12.2v-3.6c6.8-4.2,8.1-5.7,8.1-7.4c0-1.3-0.7-2-2-2 c-1.4,0-2.3,0.9-2.7,3l-3.8-1.2c0.9-3.2,3.2-5,6.7-5C278,561.7,279.9,563.8,279.9,566.4z"></path> <path class="st5" d="M288.7,578.1c-4.1,0-7.1-2.7-7.1-8.3c0-5.5,3.3-8.1,7.1-8.1c3.9,0,7.1,2.6,7.1,8.1 C295.8,575.3,292.8,578.1,288.7,578.1z M288.7,574.5c1.8,0,2.9-1.1,2.9-4.7c0-3.6-1.1-4.7-2.8-4.7c-1.8,0-2.9,1.2-2.9,4.7 S286.8,574.5,288.7,574.5z"></path> <path class="st5" d="M301.6,570c-2.4,0-4-1.7-4-4.2c0-2.4,1.6-4.1,4-4.1c2.4,0,4,1.7,4,4.1C305.6,568.3,304,570,301.6,570z M297.9,575.9l6.5-5.4l0.9,0.8l-4.4,7.2L297.9,575.9z M301.6,567.6c0.8,0,1.2-0.7,1.2-1.8c0-1.1-0.4-1.8-1.2-1.8 c-0.8,0-1.2,0.6-1.2,1.8C300.4,567,300.8,567.6,301.6,567.6z M309.9,578c-2.4,0-4-1.7-4-4.2c0-2.4,1.6-4.1,4-4.1 c2.4,0,4,1.7,4,4.1C313.9,576.3,312.3,578,309.9,578z M313.6,564l-6.6,5.3l-0.9-0.8l4.5-7.2L313.6,564z M309.9,575.7 c0.8,0,1.2-0.7,1.2-1.9c0-1.1-0.4-1.7-1.2-1.7c-0.8,0-1.2,0.6-1.2,1.7C308.6,575,309.1,575.7,309.9,575.7z"></path> </g> </g> <g class="st2"> <defs> <rect id="SVGID_00000151512553384269291360000000045790098107504271_" x="223.6" y="516" width="157" height="32.2"></rect> </defs> <clipPath id="SVGID_00000011014026143816989450000006595823128845650591_"> <use xlink:href="#SVGID_00000151512553384269291360000000045790098107504271_" style="overflow:visible;"></use> </clipPath> <g style="clip-path:url(#SVGID_00000011014026143816989450000006595823128845650591_);"> <path class="st5" d="M262.3,526.7l-3.3,2.5c-0.7-1-1.4-1.5-2.8-1.5c-1.9,0-3.2,1.4-3.3,4.8c0.9-1.6,2.4-2.4,4.3-2.4 c2.9,0,5,1.7,5,4.9c0,3.1-2.2,5.7-6.4,5.7c-5,0-7-3.6-7-7.8c0-5.6,3.2-8.6,7.5-8.6C259.4,524.3,261,525.2,262.3,526.7z M253.1,534.6c0.3,1.7,1.2,2.6,2.8,2.6c1.6,0,2.5-0.9,2.5-2.4c0-1.6-1.1-2.2-2.4-2.2C254.6,532.6,253.6,533.3,253.1,534.6z"></path> <path class="st5" d="M267.9,532.6c-2.4,0-4-1.7-4-4.2c0-2.4,1.6-4.1,4-4.1c2.4,0,4,1.7,4,4.1 C271.9,530.9,270.2,532.6,267.9,532.6z M264.1,538.5l6.5-5.4l0.9,0.8l-4.4,7.2L264.1,538.5z M267.9,530.2c0.8,0,1.2-0.7,1.2-1.8 c0-1.1-0.4-1.8-1.2-1.8c-0.8,0-1.2,0.6-1.2,1.8C266.6,529.6,267.1,530.2,267.9,530.2z M276.1,540.6c-2.4,0-4-1.7-4-4.2 c0-2.4,1.6-4.1,4-4.1c2.4,0,4,1.7,4,4.1C280.2,538.9,278.5,540.6,276.1,540.6z M279.8,526.6l-6.6,5.3l-0.9-0.8l4.5-7.2 L279.8,526.6z M276.1,538.3c0.8,0,1.2-0.7,1.2-1.9c0-1.1-0.4-1.7-1.2-1.7c-0.8,0-1.2,0.6-1.2,1.7 C274.9,537.6,275.3,538.3,276.1,538.3z"></path> </g> </g> <g class="st2"> <defs> <rect id="SVGID_00000147903978812703575100000003649252887690591922_" x="223.6" y="496.7" width="524.4" height="180.7"></rect> </defs> <clipPath id="SVGID_00000059269594065139240400000006547069317769378697_"> <use xlink:href="#SVGID_00000147903978812703575100000003649252887690591922_" style="overflow:visible;"></use> </clipPath> <g style="clip-path:url(#SVGID_00000059269594065139240400000006547069317769378697_);"> <path class="st5" d="M599.2,646.6h2.3v2.6h-2.3v3.1l-4,0v-3.2h-7.9v-2.4l6.5-10.4h4.8l0.2,0.2l-7.5,10h4v-3.2h4V646.6z"></path> <path class="st5" d="M609.6,652.5c-4.1,0-7.1-2.7-7.1-8.3c0-5.5,3.3-8.1,7.1-8.1c3.9,0,7.1,2.6,7.1,8.1 C616.7,649.7,613.7,652.5,609.6,652.5z M609.6,649c1.8,0,2.9-1.1,2.9-4.7c0-3.6-1.1-4.7-2.8-4.7c-1.8,0-2.9,1.2-2.9,4.7 S607.8,649,609.6,649z"></path> <path class="st5" d="M622.5,644.5c-2.4,0-4-1.7-4-4.2c0-2.4,1.6-4.1,4-4.1s4,1.7,4,4.1C626.5,642.8,624.9,644.5,622.5,644.5z M618.8,650.3l6.5-5.4l0.9,0.8l-4.4,7.2L618.8,650.3z M622.5,642.1c0.8,0,1.2-0.7,1.2-1.8c0-1.1-0.4-1.8-1.2-1.8 c-0.8,0-1.2,0.6-1.2,1.8C621.3,641.4,621.7,642.1,622.5,642.1z M630.8,652.5c-2.4,0-4-1.7-4-4.2c0-2.4,1.6-4.1,4-4.1 c2.4,0,4,1.7,4,4.1C634.8,650.8,633.2,652.5,630.8,652.5z M634.5,638.4l-6.6,5.3L627,643l4.5-7.2L634.5,638.4z M630.8,650.1 c0.8,0,1.2-0.7,1.2-1.9c0-1.1-0.4-1.7-1.2-1.7c-0.8,0-1.2,0.6-1.2,1.7C629.6,649.5,630,650.1,630.8,650.1z"></path> </g> </g> <g class="st2"> <defs> <rect id="SVGID_00000079452363542439625230000014689376264593707163_" x="223.6" y="496.7" width="524.4" height="180.7"></rect> </defs> <clipPath id="SVGID_00000182491307949806421110000005084809082628970922_"> <use xlink:href="#SVGID_00000079452363542439625230000014689376264593707163_" style="overflow:visible;"></use> </clipPath> <g style="clip-path:url(#SVGID_00000182491307949806421110000005084809082628970922_);"> <path class="st5" d="M542.8,615.1c-3.4,0-5.3-1.3-6.4-3.1l3.8-2.2c0.5,1.1,1.3,1.9,2.6,1.9c1.5,0,2.3-0.9,2.3-2.4 c0-1.6-1-2.4-2.3-2.4c-1.2,0-2,0.7-2.5,1.5l-3.6-0.5l0.9-8.9h10.8v3.6h-7.6l-0.4,4c0.8-1.3,2.2-2.2,4.1-2.2c2.8,0,4.6,1.7,4.6,5 C549.1,612.8,546.7,615.1,542.8,615.1z"></path> <path class="st5" d="M556.6,615.1c-3.4,0-5.3-1.3-6.4-3.1l3.8-2.2c0.5,1.1,1.3,1.9,2.6,1.9c1.5,0,2.3-0.9,2.3-2.4 c0-1.6-1-2.4-2.3-2.4c-1.2,0-2,0.7-2.5,1.5l-3.6-0.5l0.9-8.9h10.8v3.6h-7.6l-0.4,4c0.8-1.3,2.2-2.2,4.1-2.2c2.8,0,4.6,1.7,4.6,5 C562.9,612.8,560.5,615.1,556.6,615.1z"></path> <path class="st5" d="M568.6,607.1c-2.4,0-4-1.7-4-4.2c0-2.4,1.6-4.1,4-4.1s4,1.7,4,4.1C572.7,605.4,571,607.1,568.6,607.1z M564.9,612.9l6.5-5.4l0.9,0.8l-4.4,7.2L564.9,612.9z M568.6,604.7c0.8,0,1.2-0.7,1.2-1.8c0-1.1-0.4-1.8-1.2-1.8 c-0.8,0-1.2,0.6-1.2,1.8C567.4,604,567.9,604.7,568.6,604.7z M576.9,615.1c-2.4,0-4-1.7-4-4.2c0-2.4,1.6-4.1,4-4.1 c2.4,0,4,1.7,4,4.1C580.9,613.4,579.3,615.1,576.9,615.1z M580.6,601l-6.6,5.3l-0.9-0.8l4.5-7.2L580.6,601z M576.9,612.7 c0.8,0,1.2-0.7,1.2-1.9c0-1.1-0.4-1.7-1.2-1.7c-0.8,0-1.2,0.6-1.2,1.7C575.7,612.1,576.1,612.7,576.9,612.7z"></path> </g> </g> <g class="st2"> <defs> <rect id="SVGID_00000088107555238368233580000013871662916705806499_" x="223.6" y="496.7" width="524.4" height="180.7"></rect> </defs> <clipPath id="SVGID_00000049936247864501172740000004891357261953237942_"> <use xlink:href="#SVGID_00000088107555238368233580000013871662916705806499_" style="overflow:visible;"></use> </clipPath> <g style="clip-path:url(#SVGID_00000049936247864501172740000004891357261953237942_);"> <path class="st5" d="M501.5,564.1l-3.3,2.5c-0.7-1-1.4-1.5-2.8-1.5c-1.9,0-3.2,1.4-3.3,4.8c0.9-1.6,2.4-2.4,4.3-2.4 c2.9,0,5,1.7,5,4.9c0,3.1-2.2,5.7-6.4,5.7c-5,0-7-3.6-7-7.8c0-5.6,3.2-8.6,7.5-8.6C498.6,561.7,500.2,562.6,501.5,564.1z M492.3,572c0.3,1.7,1.2,2.6,2.8,2.6c1.6,0,2.5-0.9,2.5-2.4c0-1.6-1.1-2.2-2.4-2.2C493.8,570,492.8,570.7,492.3,572z"></path> <path class="st5" d="M502.7,575.6l3.3-2.5c0.7,1,1.4,1.5,2.8,1.5c1.9,0,3.2-1.4,3.2-4.8c-0.9,1.6-2.3,2.4-4.3,2.4 c-2.9,0-5-1.7-5-4.9c0-3.1,2.2-5.7,6.4-5.7c5,0,7,3.6,7,7.8c0,5.6-3.1,8.6-7.3,8.6C505.6,578.1,504,577.1,502.7,575.6z M509,569.8c1.3,0,2.4-0.6,2.9-2.1c-0.3-1.8-1.2-2.6-2.7-2.6c-1.6,0-2.5,0.9-2.5,2.4S507.6,569.8,509,569.8z"></path> <path class="st5" d="M521.9,570c-2.4,0-4-1.7-4-4.2c0-2.4,1.6-4.1,4-4.1s4,1.7,4,4.1C526,568.3,524.3,570,521.9,570z M518.2,575.9l6.5-5.4l0.9,0.8l-4.4,7.2L518.2,575.9z M521.9,567.6c0.8,0,1.2-0.7,1.2-1.8c0-1.1-0.4-1.8-1.2-1.8 c-0.8,0-1.2,0.6-1.2,1.8C520.7,567,521.1,567.6,521.9,567.6z M530.2,578c-2.4,0-4-1.7-4-4.2c0-2.4,1.6-4.1,4-4.1 c2.4,0,4,1.7,4,4.1C534.2,576.3,532.6,578,530.2,578z M533.9,564l-6.6,5.3l-0.9-0.8l4.5-7.2L533.9,564z M530.2,575.7 c0.8,0,1.2-0.7,1.2-1.9c0-1.1-0.4-1.7-1.2-1.7c-0.8,0-1.2,0.6-1.2,1.7C529,575,529.4,575.7,530.2,575.7z"></path> </g> </g> <g class="st2"> <defs> <rect id="SVGID_00000044885761700953647070000004223296468498712761_" x="223.6" y="496.7" width="524.4" height="180.7"></rect> </defs> <clipPath id="SVGID_00000060712072759421486560000015999381253331936178_"> <use xlink:href="#SVGID_00000044885761700953647070000004223296468498712761_" style="overflow:visible;"></use> </clipPath> <g style="clip-path:url(#SVGID_00000060712072759421486560000015999381253331936178_);"> <path class="st5" d="M443.2,528h-7.8v-3.5h11.8v3.3l-6.2,12.6h-4.4L443.2,528z"></path> <path class="st5" d="M454.6,540.7c-3.4,0-5.3-1.3-6.4-3.1l3.8-2.2c0.5,1.1,1.3,1.9,2.6,1.9c1.5,0,2.3-0.9,2.3-2.4 c0-1.6-1-2.4-2.3-2.4c-1.2,0-2,0.7-2.5,1.5l-3.6-0.5l0.9-8.9h10.8v3.6h-7.6l-0.4,4c0.8-1.3,2.2-2.2,4.1-2.2c2.8,0,4.6,1.7,4.6,5 C460.9,538.3,458.5,540.7,454.6,540.7z"></path> <path class="st5" d="M466.6,532.6c-2.4,0-4-1.7-4-4.2c0-2.4,1.6-4.1,4-4.1c2.4,0,4,1.7,4,4.1C470.6,530.9,469,532.6,466.6,532.6z M462.9,538.5l6.5-5.4l0.9,0.8l-4.4,7.2L462.9,538.5z M466.6,530.2c0.8,0,1.2-0.7,1.2-1.8c0-1.1-0.4-1.8-1.2-1.8 c-0.8,0-1.2,0.6-1.2,1.8C465.4,529.6,465.8,530.2,466.6,530.2z M474.9,540.6c-2.4,0-4-1.7-4-4.2c0-2.4,1.6-4.1,4-4.1 c2.4,0,4,1.7,4,4.1C478.9,538.9,477.3,540.6,474.9,540.6z M478.6,526.6l-6.6,5.3l-0.9-0.8l4.5-7.2L478.6,526.6z M474.9,538.3 c0.8,0,1.2-0.7,1.2-1.9c0-1.1-0.4-1.7-1.2-1.7c-0.8,0-1.2,0.6-1.2,1.7C473.6,537.6,474.1,538.3,474.9,538.3z"></path> </g> </g> <g class="st2"> <defs> <rect id="SVGID_00000134230047121099159240000003024367515619982989_" x="223.6" y="496.7" width="524.4" height="180.7"></rect> </defs> <clipPath id="SVGID_00000058580367312292712780000014680988949526152883_"> <use xlink:href="#SVGID_00000134230047121099159240000003024367515619982989_" style="overflow:visible;"></use> </clipPath> <g style="clip-path:url(#SVGID_00000058580367312292712780000014680988949526152883_);"> <path class="st5" d="M701.1,652.5c-3.4,0-5.3-1.3-6.4-3.1l3.8-2.2c0.5,1.1,1.3,1.9,2.6,1.9c1.5,0,2.3-0.9,2.3-2.4 c0-1.6-1-2.4-2.3-2.4c-1.2,0-2,0.7-2.5,1.5l-3.6-0.5l0.9-8.9h10.8v3.6h-7.6l-0.4,4c0.8-1.3,2.2-2.2,4.1-2.2c2.8,0,4.6,1.7,4.6,5 C707.4,650.2,705,652.5,701.1,652.5z"></path> <path class="st5" d="M713.1,644.5c-2.4,0-4-1.7-4-4.2c0-2.4,1.6-4.1,4-4.1s4,1.7,4,4.1C717.2,642.8,715.5,644.5,713.1,644.5z M709.4,650.3l6.5-5.4l0.9,0.8l-4.4,7.2L709.4,650.3z M713.1,642.1c0.8,0,1.2-0.7,1.2-1.8c0-1.1-0.4-1.8-1.2-1.8 c-0.8,0-1.2,0.6-1.2,1.8C711.9,641.4,712.4,642.1,713.1,642.1z M721.4,652.5c-2.4,0-4-1.7-4-4.2c0-2.4,1.6-4.1,4-4.1 c2.4,0,4,1.7,4,4.1C725.4,650.8,723.8,652.5,721.4,652.5z M725.1,638.4l-6.6,5.3l-0.9-0.8l4.5-7.2L725.1,638.4z M721.4,650.1 c0.8,0,1.2-0.7,1.2-1.9c0-1.1-0.4-1.7-1.2-1.7c-0.8,0-1.2,0.6-1.2,1.7C720.2,649.5,720.6,650.1,721.4,650.1z"></path> </g> </g> <g class="st2"> <defs> <rect id="SVGID_00000052788554044316689150000011317768248360536207_" x="223.6" y="496.7" width="524.4" height="180.7"></rect> </defs> <clipPath id="SVGID_00000055688080325444032780000007206007546094614166_"> <use xlink:href="#SVGID_00000052788554044316689150000011317768248360536207_" style="overflow:visible;"></use> </clipPath> <g style="clip-path:url(#SVGID_00000055688080325444032780000007206007546094614166_);"> <path class="st5" d="M697.5,615.1c-4.4,0-6.9-1.5-6.9-4.4c0-2.2,1.6-3.7,4-4.2c-2-0.4-3.4-1.4-3.4-3.6c0-2.5,2.5-4.3,6.4-4.3 c3.8,0,6.3,1.7,6.3,4.2c0,2.1-1.4,3.2-3.3,3.6c2.3,0.5,3.8,1.9,3.8,4C704.4,613.3,701.7,615.1,697.5,615.1z M700.3,609.7 c0-1.2-0.9-2.1-2.8-2.1c-1.8,0-2.8,0.9-2.8,2.1c0,1.2,0.8,2,2.8,2C699.5,611.7,700.3,610.8,700.3,609.7z M700.1,603.8 c0-1.1-0.8-1.9-2.5-1.9c-1.6,0-2.5,0.8-2.5,1.9c0,1.1,0.8,1.9,2.5,1.9C699.3,605.7,700.1,604.9,700.1,603.8z"></path> <path class="st5" d="M709.9,607.1c-2.4,0-4-1.7-4-4.2c0-2.4,1.6-4.1,4-4.1s4,1.7,4,4.1C713.9,605.4,712.3,607.1,709.9,607.1z M706.2,612.9l6.5-5.4l0.9,0.8l-4.4,7.2L706.2,612.9z M709.9,604.7c0.8,0,1.2-0.7,1.2-1.8c0-1.1-0.4-1.8-1.2-1.8 c-0.8,0-1.2,0.6-1.2,1.8C708.6,604,709.1,604.7,709.9,604.7z M718.2,615.1c-2.4,0-4-1.7-4-4.2c0-2.4,1.6-4.1,4-4.1 c2.4,0,4,1.7,4,4.1C722.2,613.4,720.6,615.1,718.2,615.1z M721.9,601l-6.6,5.3l-0.9-0.8l4.5-7.2L721.9,601z M718.2,612.7 c0.8,0,1.2-0.7,1.2-1.9c0-1.1-0.4-1.7-1.2-1.7c-0.8,0-1.2,0.6-1.2,1.7C716.9,612.1,717.4,612.7,718.2,612.7z"></path> </g> </g> <g class="st2"> <defs> <rect id="SVGID_00000176023131548261176840000001154384732371412370_" x="223.6" y="496.7" width="524.4" height="180.7"></rect> </defs> <clipPath id="SVGID_00000017516872225399850750000017368920065558721424_"> <use xlink:href="#SVGID_00000176023131548261176840000001154384732371412370_" style="overflow:visible;"></use> </clipPath> <g style="clip-path:url(#SVGID_00000017516872225399850750000017368920065558721424_);"> <path class="st5" d="M694.8,577.8h-4v-11.9c-0.6,2-1.9,3.2-3.8,3.2h-0.2v-3.9h0.1c2.8,0,4.1-1.2,4.1-3.3h3.7V577.8z"></path> <path class="st5" d="M704.6,577.8h-4v-11.9c-0.6,2-1.9,3.2-3.8,3.2h-0.2v-3.9h0.1c2.8,0,4.1-1.2,4.1-3.3h3.7V577.8z"></path> <path class="st5" d="M711,570c-2.4,0-4-1.7-4-4.2c0-2.4,1.6-4.1,4-4.1s4,1.7,4,4.1C715,568.3,713.4,570,711,570z M707.2,575.9 l6.5-5.4l0.9,0.8l-4.4,7.2L707.2,575.9z M711,567.6c0.8,0,1.2-0.7,1.2-1.8c0-1.1-0.4-1.8-1.2-1.8c-0.8,0-1.2,0.6-1.2,1.8 C709.7,567,710.2,567.6,711,567.6z M719.3,578c-2.4,0-4-1.7-4-4.2c0-2.4,1.6-4.1,4-4.1c2.4,0,4,1.7,4,4.1 C723.3,576.3,721.6,578,719.3,578z M723,564l-6.6,5.3l-0.9-0.8l4.5-7.2L723,564z M719.3,575.7c0.8,0,1.2-0.7,1.2-1.9 c0-1.1-0.4-1.7-1.2-1.7c-0.8,0-1.2,0.6-1.2,1.7C718,575,718.5,575.7,719.3,575.7z"></path> </g> </g> <g class="st2"> <defs> <rect id="SVGID_00000145738587125285350690000005101734510494144902_" x="223.6" y="496.7" width="524.4" height="180.7"></rect> </defs> <clipPath id="SVGID_00000162331486012117105880000013895169032843533493_"> <use xlink:href="#SVGID_00000145738587125285350690000005101734510494144902_" style="overflow:visible;"></use> </clipPath> <g style="clip-path:url(#SVGID_00000162331486012117105880000013895169032843533493_);"> <path class="st5" d="M674.5,540.4h-4v-11.9c-0.6,2-1.9,3.2-3.8,3.2h-0.2v-3.9h0.1c2.8,0,4.1-1.2,4.1-3.3h3.7V540.4z"></path> <path class="st5" d="M676.6,538.2l3.3-2.5c0.7,1,1.4,1.5,2.8,1.5c1.9,0,3.2-1.4,3.2-4.8c-0.9,1.6-2.3,2.4-4.3,2.4 c-2.9,0-5-1.7-5-4.9c0-3.1,2.2-5.7,6.4-5.7c5,0,7,3.6,7,7.8c0,5.6-3.1,8.6-7.3,8.6C679.5,540.7,677.8,539.7,676.6,538.2z M682.8,532.4c1.3,0,2.4-0.6,2.9-2.1c-0.3-1.8-1.2-2.6-2.7-2.6c-1.6,0-2.5,0.9-2.5,2.4S681.5,532.4,682.8,532.4z"></path> <path class="st5" d="M695.8,532.6c-2.4,0-4-1.7-4-4.2c0-2.4,1.6-4.1,4-4.1s4,1.7,4,4.1C699.8,530.9,698.2,532.6,695.8,532.6z M692.1,538.5l6.5-5.4l0.9,0.8l-4.4,7.2L692.1,538.5z M695.8,530.2c0.8,0,1.2-0.7,1.2-1.8c0-1.1-0.4-1.8-1.2-1.8 c-0.8,0-1.2,0.6-1.2,1.8C694.6,529.6,695,530.2,695.8,530.2z M704.1,540.6c-2.4,0-4-1.7-4-4.2c0-2.4,1.6-4.1,4-4.1 c2.4,0,4,1.7,4,4.1C708.1,538.9,706.5,540.6,704.1,540.6z M707.8,526.6l-6.6,5.3l-0.9-0.8l4.5-7.2L707.8,526.6z M704.1,538.3 c0.8,0,1.2-0.7,1.2-1.9c0-1.1-0.4-1.7-1.2-1.7c-0.8,0-1.2,0.6-1.2,1.7C702.9,537.6,703.3,538.3,704.1,538.3z"></path> </g> </g> <g class="st2"> <path class="st3" d="M453.3,229.7c0,7-6.4,10.8-18.3,16.5h18.6v7.9h-26v-7.6c14.6-9,17.3-12.2,17.3-15.7c0-2.7-1.6-4.2-4.2-4.2 c-3,0-4.9,1.9-5.7,6.3l-8.2-2.6c2-6.8,6.8-10.7,14.2-10.7C449.3,219.6,453.3,224.3,453.3,229.7z"></path> <path class="st3" d="M471.9,254.6c-8.8,0-15.1-5.8-15.1-17.7c0-11.8,6.9-17.2,15.1-17.2c8.4,0,15.2,5.5,15.2,17.2 C487.1,248.6,480.7,254.6,471.9,254.6z M471.9,247.1c3.9,0,6.1-2.4,6.1-10.1c0-7.6-2.3-10-6.1-10c-3.8,0-6.2,2.5-6.2,10 C465.8,244.4,468,247.1,471.9,247.1z"></path> <path class="st3" d="M516.3,229.7c0,7-6.4,10.8-18.3,16.5h18.6v7.9h-26v-7.6c14.6-9,17.3-12.2,17.3-15.7c0-2.7-1.6-4.2-4.2-4.2 c-3,0-4.9,1.9-5.7,6.3l-8.2-2.6c2-6.8,6.8-10.7,14.2-10.7C512.3,219.6,516.3,224.3,516.3,229.7z"></path> <path class="st3" d="M525.7,242.8c1.4,2.9,4.1,4.4,7.4,4.4c3.6,0,5.3-1.6,5.3-4c0-2.5-2-3.5-6-3.5h-4.4v-5.6h4 c3.4,0,5.8-1.1,5.8-3.6c0-2.6-1.8-3.8-4.9-3.8c-3,0-5.3,1.5-6.8,4.9l-7.3-3.9c3.2-5.3,8.1-8.1,14.7-8.1c7.5,0,12.4,3.3,12.4,8.9 c0,4.5-3.2,7-7.9,8c5.4,0.8,8.6,3.1,8.6,8.2c0,5.7-4.8,9.9-13.2,9.9c-6.8,0-11.9-2.4-14.9-7.4L525.7,242.8z"></path> </g> <g class="st2"> <path class="st3" d="M414.5,279c2.3,0,3.9-1.3,4.2-4.1h-4.5v-1.3h6.2v6.7h-1.7v-1.9l0.1-1.6c-0.6,2.4-2.3,3.7-4.7,3.7 c-3.6,0-5.6-2.9-5.6-6.3c0-4.1,2.5-6.8,6.3-6.8c2.9,0,4.5,1.3,5.6,3.2l-1.5,1c-0.8-1.8-2-2.6-4.1-2.6c-2.7,0-4.5,1.9-4.5,5.2 C410.3,277,411.8,279,414.5,279z"></path> <path class="st3" d="M424.8,280.4h-1.7v-13.9h1.7V280.4z"></path> <path class="st3" d="M426.9,275.5c0-2.8,1.9-5.1,4.9-5.1c3.1,0,4.9,2.2,4.9,5.1c0,2.8-1.8,5.1-4.9,5.1 C428.6,280.5,426.9,278.3,426.9,275.5z M435,275.5c0-2.2-1.1-3.7-3.2-3.7c-2.1,0-3.2,1.6-3.2,3.7c0,2.1,1,3.6,3.2,3.6 S435,277.6,435,275.5z"></path> <path class="st3" d="M444.2,280.5c-1.7,0-3-0.9-3.6-2.3v2.2h-1.7v-13.9h1.7v6.3c0.7-1.6,2.1-2.4,3.7-2.4c2.3,0,4.3,1.6,4.3,5 C448.6,278.7,446.6,280.5,444.2,280.5z M446.9,275.4c0-2.3-1.3-3.6-3.2-3.6c-2.1,0-3.2,1.6-3.2,3.7c0,2,1.1,3.6,3.3,3.6 C445.7,279.1,446.9,277.7,446.9,275.4z"></path> <path class="st3" d="M450.1,278.1c0-1.1,0.5-1.8,1.3-2.3c0.7-0.4,1.6-0.7,3-1c1.9-0.4,2.7-0.7,2.7-1.6c0-0.8-0.6-1.6-2.3-1.6 c-1.6,0-2.5,0.8-3,2.1l-1.5-0.5c0.8-1.9,2.4-3,4.6-3c2.4,0,3.8,1.2,3.8,3.3v4c0,1.1,0.4,1.4,1.1,1.4c0.3,0,0.5-0.1,0.7-0.1v1.2 c-0.3,0.2-0.7,0.3-1.2,0.3c-1.5,0-2.1-0.7-2.1-2.3v-0.5c-0.6,1.8-2.2,2.9-4,2.9C451.1,280.5,450.1,279.5,450.1,278.1z M457.3,275.6v-0.8c-0.3,0.5-1.1,0.8-2.6,1.1c-1.8,0.4-2.8,0.8-2.8,2c0,0.8,0.6,1.4,2,1.4C455.5,279.2,457.3,277.8,457.3,275.6z"></path> <path class="st3" d="M463.8,280.4h-1.7v-13.9h1.7V280.4z"></path> <path class="st3" d="M475.5,280.4h-1.9l-3.2-12.8h1.9l2.2,9.3l0.3,1.7l0.3-1.7l2.6-9.3h1.6l2.6,9.3l0.4,1.7l0.4-1.8l2.5-9.3h1.8 l-3.5,12.8h-2l-2.6-9.5l-0.3-1.4l-0.3,1.4L475.5,280.4z"></path> <path class="st3" d="M488.3,275.5c0-2.8,1.9-5.1,4.9-5.1c3.1,0,4.9,2.2,4.9,5.1c0,2.8-1.8,5.1-4.9,5.1 C490.1,280.5,488.3,278.3,488.3,275.5z M496.5,275.5c0-2.2-1.1-3.7-3.2-3.7c-2.1,0-3.2,1.6-3.2,3.7c0,2.1,1,3.6,3.2,3.6 S496.5,277.6,496.5,275.5z"></path> <path class="st3" d="M506.8,270.9l-0.5,1.5c-0.5-0.3-1-0.5-1.7-0.5c-1.4,0-2.4,1.1-2.4,3.6v4.8h-1.7v-9.8h1.7v2.5 c0.5-1.8,1.4-2.6,2.9-2.6C505.7,270.4,506.3,270.6,506.8,270.9z"></path> <path class="st3" d="M510.1,276.4l5.1-5.9h2l-3.9,4.4l4.1,5.4h-2l-3.4-4.7l-1.8,2v2.7h-1.7v-13.9h1.7V276.4z"></path> <path class="st3" d="M519.8,272h-2.1v-1.4h2.1v-0.9c0-2.4,1-3.3,3.1-3.3h1.4v1.4H523c-1.2,0-1.5,0.4-1.5,1.8v0.9h2.9v1.4h-2.9v8.4 h-1.6V272z"></path> <path class="st3" d="M525.7,275.5c0-2.8,1.9-5.1,4.9-5.1c3.1,0,4.9,2.2,4.9,5.1c0,2.8-1.8,5.1-4.9,5.1 C527.4,280.5,525.7,278.3,525.7,275.5z M533.9,275.5c0-2.2-1.1-3.7-3.2-3.7c-2.1,0-3.2,1.6-3.2,3.7c0,2.1,1,3.6,3.2,3.6 C532.8,279.1,533.9,277.6,533.9,275.5z"></path> <path class="st3" d="M544.1,270.9l-0.5,1.5c-0.5-0.3-1-0.5-1.7-0.5c-1.4,0-2.4,1.1-2.4,3.6v4.8h-1.7v-9.8h1.7v2.5 c0.5-1.8,1.4-2.6,2.9-2.6C543.1,270.4,543.7,270.6,544.1,270.9z"></path> <path class="st3" d="M553,274.4c-0.3-1.6-1.1-2.6-2.9-2.6c-2.1,0-3.2,1.6-3.2,3.7c0,2.1,1,3.6,3.2,3.6c1.7,0,2.6-0.9,3-2.6 l1.7,0.4c-0.5,2-2,3.6-4.7,3.6c-3.2,0-4.9-2.2-4.9-5.1c0-2.8,1.8-5.1,4.9-5.1c2.8,0,4.1,1.6,4.6,3.7L553,274.4z"></path> <path class="st3" d="M561.3,280.5c-3.4,0-5-2.2-5-5c0-2.8,1.9-5.2,5-5.2c3.1,0,4.6,2.2,4.6,5v0.5H558c0.1,2,1.3,3.2,3.4,3.2 c1.5,0,2.3-0.7,2.9-1.7l1.4,0.8C564.9,279.5,563.5,280.5,561.3,280.5z M558,274.8h6.2c-0.1-1.8-1-3-2.9-3 C559.4,271.8,558.2,273,558,274.8z"></path> </g> </g> <g> <g> <defs> <rect id="SVGID_00000056411366352189751390000015355975976854365826_" x="221.8" y="-1.8" width="528.3" height="503.3"></rect> </defs> <clipPath id="SVGID_00000106119262453513897570000015364838440440620963_"> <use xlink:href="#SVGID_00000056411366352189751390000015355975976854365826_" style="overflow:visible;"></use> </clipPath> <path style="clip-path:url(#SVGID_00000106119262453513897570000015364838440440620963_);fill-rule:evenodd;clip-rule:evenodd;fill:#04006C;" d=" M487.2,46.6c112.8,0,204.2,91.4,204.2,204.2S600,455.1,487.2,455.1c-15.4,0-30.8-1.8-45.9-5.2l22.9-99.5 c55,12.7,109.8-21.6,122.5-76.6c12.7-55-21.6-109.8-76.6-122.5c-7.5-1.7-15.2-2.6-22.9-2.6L487.2,46.6z"></path> <path style="opacity:0.302;clip-path:url(#SVGID_00000106119262453513897570000015364838440440620963_);fill:none;stroke:#FFFFFF;stroke-width:0.75;stroke-linejoin:round;stroke-miterlimit:10;" d=" M487.2,46.6c112.8,0,204.2,91.4,204.2,204.2S600,455.1,487.2,455.1c-15.4,0-30.8-1.8-45.9-5.2l22.9-99.5 c55,12.7,109.8-21.6,122.5-76.6c12.7-55-21.6-109.8-76.6-122.5c-7.5-1.7-15.2-2.6-22.9-2.6L487.2,46.6z"></path> </g> <g> <defs> <rect id="SVGID_00000081641461960110740400000004222886058826616473_" x="221.8" y="-1.8" width="528.3" height="503.3"></rect> </defs> <clipPath id="SVGID_00000098214438172906134450000007010592201336687267_"> <use xlink:href="#SVGID_00000081641461960110740400000004222886058826616473_" style="overflow:visible;"></use> </clipPath> <path style="clip-path:url(#SVGID_00000098214438172906134450000007010592201336687267_);fill-rule:evenodd;clip-rule:evenodd;fill:#C058FF;" d=" M441.3,449.9c-109.9-25.3-178.5-135-153.1-244.9c21.4-92.7,103.9-158.4,199-158.4l0,102.1c-56.4,0-102.1,45.7-102.1,102.1 c0,47.6,32.8,88.8,79.2,99.5L441.3,449.9z"></path> <path style="opacity:0.302;clip-path:url(#SVGID_00000098214438172906134450000007010592201336687267_);fill:none;stroke:#FFFFFF;stroke-width:0.75;stroke-linejoin:round;stroke-miterlimit:10;" d=" M441.3,449.9c-109.9-25.3-178.5-135-153.1-244.9c21.4-92.7,103.9-158.4,199-158.4l0,102.1c-56.4,0-102.1,45.7-102.1,102.1 c0,47.6,32.8,88.8,79.2,99.5L441.3,449.9z"></path> </g> <g> <defs> <rect id="SVGID_00000079487042665802268130000014289402678093097125_" x="372.9" y="332.5" width="377.2" height="49"></rect> </defs> <clipPath id="SVGID_00000036969730995451704450000000551223757294200206_"> <use xlink:href="#SVGID_00000079487042665802268130000014289402678093097125_" style="overflow:visible;"></use> </clipPath> <g style="clip-path:url(#SVGID_00000036969730995451704450000000551223757294200206_);"> <path class="st5" d="M571,370.4c-4.5,0-7.2-1.7-8.6-4.1l5.1-3c0.6,1.5,1.7,2.5,3.4,2.5c2,0,3.1-1.2,3.1-3.2 c0-2.1-1.3-3.2-3.1-3.2c-1.6,0-2.6,0.9-3.3,2l-4.8-0.7l1.1-11.9h14.5v4.8h-10.2l-0.6,5.4c1.1-1.8,2.9-2.9,5.5-2.9 c3.7,0,6.2,2.3,6.2,6.7C579.5,367.3,576.3,370.4,571,370.4z"></path> <path class="st5" d="M596.9,362.4h3.1v3.5h-3.1v4.2l-5.4,0.1v-4.3h-10.7v-3.3l8.7-13.9h6.4l0.2,0.3l-10,13.4h5.3v-4.3h5.4V362.4z "></path> <path class="st5" d="M607,359.6c-3.3,0-5.4-2.3-5.4-5.7c0-3.3,2.2-5.5,5.4-5.5s5.4,2.2,5.4,5.5 C612.4,357.3,610.2,359.6,607,359.6z M602,367.5l8.7-7.2l1.2,1.1l-5.9,9.7L602,367.5z M607,356.4c1,0,1.6-0.9,1.6-2.5 c0-1.5-0.6-2.4-1.6-2.4c-1.1,0-1.7,0.9-1.7,2.4C605.3,355.5,605.9,356.4,607,356.4z M618.1,370.4c-3.3,0-5.4-2.3-5.4-5.7 c0-3.3,2.2-5.5,5.4-5.5c3.2,0,5.4,2.2,5.4,5.5C623.5,368.1,621.3,370.4,618.1,370.4z M623.1,351.5l-8.8,7.2l-1.3-1.1l6-9.7 L623.1,351.5z M618.1,367.2c1,0,1.6-0.9,1.6-2.5c0-1.5-0.6-2.3-1.6-2.3c-1.1,0-1.7,0.9-1.7,2.3 C616.5,366.3,617.1,367.2,618.1,367.2z"></path> </g> </g> <g> <defs> <rect id="SVGID_00000109026160826150194860000003915084274968173753_" x="221.8" y="149.3" width="355.4" height="49"></rect> </defs> <clipPath id="SVGID_00000027606897115883445860000006758916955043813782_"> <use xlink:href="#SVGID_00000109026160826150194860000003915084274968173753_" style="overflow:visible;"></use> </clipPath> <g style="clip-path:url(#SVGID_00000027606897115883445860000006758916955043813782_);"> <path class="st5" d="M336.4,179.6h3.1v3.5h-3.1v4.2l-5.4,0.1v-4.3h-10.7v-3.3l8.7-13.9h6.4l0.2,0.3l-10,13.4h5.3v-4.3h5.4V179.6z "></path> <path class="st5" d="M358.9,168.9l-4.4,3.3c-1-1.4-1.9-2-3.7-2c-2.6,0-4.3,1.9-4.4,6.4c1.3-2.1,3.2-3.3,5.8-3.3 c3.9,0,6.7,2.3,6.7,6.6c0,4.1-3,7.7-8.5,7.7c-6.8,0-9.5-4.8-9.5-10.5c0-7.5,4.3-11.6,10.1-11.6 C355,165.6,357.2,166.8,358.9,168.9z M346.6,179.5c0.5,2.3,1.6,3.4,3.7,3.4c2.2,0,3.4-1.3,3.4-3.3c0-2.1-1.5-2.9-3.2-2.9 C348.6,176.7,347.2,177.7,346.6,179.5z"></path> <path class="st5" d="M366.4,176.8c-3.3,0-5.4-2.3-5.4-5.7c0-3.3,2.2-5.5,5.4-5.5c3.2,0,5.4,2.2,5.4,5.5 C371.8,174.5,369.6,176.8,366.4,176.8z M361.4,184.7l8.7-7.2l1.2,1.1l-5.9,9.7L361.4,184.7z M366.4,173.6c1,0,1.6-0.9,1.6-2.5 c0-1.5-0.6-2.4-1.6-2.4c-1.1,0-1.7,0.9-1.7,2.4C364.7,172.7,365.4,173.6,366.4,173.6z M377.5,187.6c-3.3,0-5.4-2.3-5.4-5.7 c0-3.3,2.2-5.5,5.4-5.5c3.2,0,5.4,2.2,5.4,5.5C382.9,185.3,380.7,187.6,377.5,187.6z M382.5,168.7l-8.8,7.2l-1.3-1.1l6-9.7 L382.5,168.7z M377.5,184.4c1,0,1.6-0.9,1.6-2.5c0-1.5-0.6-2.3-1.6-2.3c-1.1,0-1.7,0.9-1.7,2.3 C375.9,183.5,376.5,184.4,377.5,184.4z"></path> </g> </g> <line class="st47" x1="230.1" y1="534.3" x2="109.2" y2="534.3"></line> <line class="st47" x1="230.1" y1="571.8" x2="81.6" y2="571.8"></line> <line class="st47" x1="153.7" y1="609.3" x2="230.1" y2="609.3"></line> <line class="st47" x1="230.1" y1="646.7" x2="161.5" y2="646.7"></line> <g> <path class="st3" d="M46.6,535.6c1.2,1.5,2.6,2.5,4.9,2.5c1.6,0,2.4-0.7,2.4-1.7c0-1.3-1.4-1.6-4.3-2.1c-3.5-0.6-5.8-1.6-5.8-4.8 c0-2.9,2.4-5.3,6.7-5.3c3.1,0,5.7,1,7.7,3.4l-3.5,2.8c-1.1-1.6-2.4-2.4-4.6-2.4c-1.7,0-2.4,0.8-2.4,1.6c0,1.2,1.2,1.5,3.9,1.9 c4,0.7,6.3,1.8,6.3,5c0,3.2-2.5,5.3-6.6,5.3c-3.9,0-6.3-1.3-8.1-3.4L46.6,535.6z"></path> <path class="st3" d="M69.7,541.7h-4.6l-6.4-17.1h4.7l3.5,10.1l0.5,2.2l0.6-2.2l3.6-10.1h4.7L69.7,541.7z"></path> <path class="st3" d="M82.2,536.9v4.7h-4.4v-17.1h7.6c5,0,7.3,2.5,7.3,6.1c0,3.6-2.5,6.3-7.5,6.3H82.2z M82.2,528.2v5.7h2.6 c2.3,0,3.4-1,3.4-2.9c0-1.9-1.1-2.8-3.4-2.8H82.2z"></path> <path class="st3" d="M93.9,532.7h3.3v-3.4h3.2v3.4h3.3v3h-3.3v3.4h-3.2v-3.4h-3.3V532.7z"></path> </g> <g> <path class="st3" d="M54.2,579.4h-4.6l-6.4-17.1h4.7l3.5,10.1l0.5,2.2l0.6-2.2l3.6-10.1h4.7L54.2,579.4z"></path> <path class="st3" d="M66.7,574.6v4.7h-4.4v-17.1h7.6c5,0,7.3,2.5,7.3,6.1c0,3.6-2.5,6.3-7.5,6.3H66.7z M66.7,565.9v5.7h2.6 c2.3,0,3.4-1,3.4-2.9c0-1.9-1.1-2.8-3.4-2.8H66.7z"></path> </g> <g> <path class="st3" d="M44.6,599.5h6.6c5.9,0,9.1,3,9.1,8.4c0,5.1-3.1,8.7-9,8.7h-6.7V599.5z M49,603.2v9.9h2c3.2,0,4.7-1.9,4.7-5.1 c0-3.4-1.5-4.8-4.9-4.8H49z"></path> <path class="st3" d="M64.6,596.9c1.6,0,2.6,1.1,2.6,2.6c0,1.5-1,2.5-2.6,2.5c-1.7,0-2.6-1-2.6-2.5C61.9,598,62.9,596.9,64.6,596.9 z M66.6,616.7h-4.3v-13.2h4.3V616.7z"></path> <path class="st3" d="M79,603.7l-1,3.9c-0.6-0.3-1.2-0.4-2-0.4c-1.4,0-2.5,1.1-2.5,3.3v6.2h-4.3v-13.2h4.2v3.6 c0.5-2.7,1.5-3.8,3.6-3.8C77.9,603.4,78.5,603.5,79,603.7z"></path> <path class="st3" d="M86.7,616.9c-4.8,0-7.1-2.8-7.1-6.7c0-3.8,2.6-7,7.1-7c4.6,0,6.7,3.1,6.7,6.5v1.3h-9.8 c0.2,1.7,1.2,2.7,3.1,2.7c1.4,0,2.1-0.5,2.7-1.8l3.7,1.4C92.1,615.4,90.1,616.9,86.7,616.9z M83.8,608.9h5.6 c-0.1-1.5-0.9-2.5-2.7-2.5C85.1,606.4,84.1,607.3,83.8,608.9z"></path> <path class="st3" d="M104.4,609.1c-0.2-1.6-0.8-2.6-2.5-2.6c-1.9,0-2.7,1.4-2.7,3.6c0,2.2,0.7,3.5,2.7,3.5c1.6,0,2.2-1,2.5-2.6 l4.4,0.8c-0.7,3.1-3,5.1-6.9,5.1c-4.8,0-7.1-2.8-7.1-6.8c0-3.9,2.6-6.9,7.3-6.9c4,0,6,1.9,6.7,4.8L104.4,609.1z"></path> <path class="st3" d="M119.6,616.2c-0.7,0.4-1.7,0.7-2.8,0.7c-3.4,0-4.4-1.6-4.4-4.6v-5.5h-2.8v-3.3h2.9v-3.2l3.9-1.9v5.1h3.3v3.3 h-3.3v4.8c0,1.3,0.5,1.8,1.6,1.8c0.7,0,1.1-0.1,1.6-0.4V616.2z"></path> <path class="st3" d="M121,610.1c0-3.9,2.6-6.9,7.2-6.9c4.7,0,7.2,3,7.2,6.8s-2.6,6.8-7.2,6.8C123.4,616.9,121,614.1,121,610.1z M131,610.1c0-2.2-0.8-3.6-2.8-3.6c-1.9,0-2.8,1.4-2.8,3.6c0,2.2,0.8,3.5,2.8,3.5C130.2,613.6,131,612.3,131,610.1z"></path> <path class="st3" d="M147.3,603.7l-1,3.9c-0.6-0.3-1.2-0.4-2-0.4c-1.4,0-2.5,1.1-2.5,3.3v6.2h-4.3v-13.2h4.2v3.6 c0.5-2.7,1.5-3.8,3.6-3.8C146.1,603.4,146.8,603.5,147.3,603.7z"></path> </g> <g> <path class="st3" d="M64.5,637.2v17.1h-4.3v-11.8l0.1-2.3l-0.5,2.4l-3.4,11.7h-3.9l-3.4-11.7l-0.5-2.4l0.1,2.3v11.8h-4.3v-17.1 h6.3l3.5,12.7l0.2,1l0.2-1l3.6-12.7H64.5z"></path> <path class="st3" d="M66.6,651.4c0-1.6,0.7-2.4,1.7-3c1-0.6,2.4-1,4.9-1.5c2-0.4,2.3-0.8,2.3-1.4c0-0.8-0.6-1.3-2-1.3 c-1.5,0-2.5,0.8-3.1,2.3l-3.6-1.4c1.2-2.7,3.7-4,6.8-4c3.8,0,5.9,1.7,5.9,4.9v4c0,1.2,0.3,1.6,1.2,1.6c0.3,0,0.6-0.1,0.9-0.2v2.6 c-0.5,0.4-1.4,0.7-2.6,0.7c-2.2,0-3.3-0.9-3.4-3.1c-0.8,1.9-2.6,3.1-4.8,3.1C68.1,654.7,66.6,653.4,66.6,651.4z M75.6,648.4v-0.5 c-0.3,0.3-0.9,0.6-2.1,0.8c-2,0.4-2.7,0.9-2.7,1.8c0,0.8,0.6,1.2,1.7,1.2C74.6,651.7,75.6,649.9,75.6,648.4z"></path> <path class="st3" d="M83,641.2h4.2v3c0.8-2.3,2.4-3.3,4.5-3.3c2.9,0,4.6,2,4.6,5.1v8.3H92v-7c0-2.1-0.7-3.1-2.3-3.1 c-1.6,0-2.5,1.3-2.5,3.7v6.4H83V641.2z"></path> <path class="st3" d="M98.1,651.4c0-1.6,0.7-2.4,1.7-3c1-0.6,2.4-1,4.9-1.5c2-0.4,2.3-0.8,2.3-1.4c0-0.8-0.6-1.3-2-1.3 c-1.5,0-2.5,0.8-3.1,2.3l-3.6-1.4c1.2-2.7,3.7-4,6.8-4c3.8,0,5.9,1.7,5.9,4.9v4c0,1.2,0.3,1.6,1.2,1.6c0.3,0,0.6-0.1,0.9-0.2v2.6 c-0.5,0.4-1.4,0.7-2.6,0.7c-2.2,0-3.3-0.9-3.4-3.1c-0.8,1.9-2.6,3.1-4.8,3.1C99.6,654.7,98.1,653.4,98.1,651.4z M107.1,648.4v-0.5 c-0.3,0.3-0.9,0.6-2.1,0.8c-2,0.4-2.7,0.9-2.7,1.8c0,0.8,0.6,1.2,1.7,1.2C106.1,651.7,107.1,649.9,107.1,648.4z"></path> <path class="st3" d="M113.9,647.8c0-4.5,2.7-6.7,5.6-6.7c2.1,0,3.4,0.8,4.1,2.7v-2.5h4.2v11.4c0,5-2.8,7.3-7.1,7.3 c-3.4,0-5.2-1-6.7-2.7l3.6-2.4c0.7,1,1.4,1.6,3,1.6c1.9,0,2.9-1.1,2.9-3.5v-1.6c-0.8,1.8-2,2.9-4.3,2.9 C116,654.2,113.9,652.1,113.9,647.8z M123.8,647.8c0-2.2-0.8-3.5-2.8-3.5c-1.9,0-2.8,1.4-2.8,3.5c0,2.1,0.8,3.5,2.8,3.5 C123,651.2,123.8,649.9,123.8,647.8z"></path> <path class="st3" d="M136.8,654.6c-4.8,0-7.1-2.8-7.1-6.7c0-3.8,2.6-7,7.1-7c4.6,0,6.7,3.1,6.7,6.5v1.3h-9.8 c0.2,1.7,1.2,2.7,3.1,2.7c1.4,0,2.1-0.5,2.7-1.8l3.7,1.4C142.1,653.1,140.1,654.6,136.8,654.6z M133.8,646.6h5.6 c-0.1-1.5-0.9-2.5-2.7-2.5C135.1,644.1,134.1,645,133.8,646.6z"></path> <path class="st3" d="M155.3,641.4l-1,3.9c-0.6-0.3-1.2-0.4-2-0.4c-1.4,0-2.5,1.1-2.5,3.3v6.2h-4.3v-13.2h4.2v3.6 c0.5-2.7,1.5-3.8,3.6-3.8C154.1,641,154.8,641.2,155.3,641.4z"></path> </g> <g> <path class="st3" d="M241.8,489h2v13.2h8v1.8h-10V489z"></path> <path class="st3" d="M259.4,504.2c-3.9,0-5.9-2.6-5.9-5.9c0-3.3,2.2-6.1,5.8-6.1c3.6,0,5.4,2.6,5.4,5.9v0.6h-9.3 c0.2,2.3,1.5,3.8,3.9,3.8c1.7,0,2.8-0.8,3.4-2l1.7,0.9C263.6,503,262,504.2,259.4,504.2z M255.5,497.5h7.3 c-0.1-2.1-1.2-3.6-3.4-3.6C257.1,493.9,255.8,495.3,255.5,497.5z"></path> <path class="st3" d="M266.5,501.4c0-1.3,0.6-2.1,1.5-2.6c0.8-0.5,1.9-0.8,3.6-1.1c2.2-0.5,3.2-0.8,3.2-1.8c0-1-0.7-1.9-2.6-1.9 c-1.9,0-2.9,0.9-3.6,2.5l-1.8-0.6c1-2.3,2.9-3.5,5.4-3.5c2.9,0,4.5,1.4,4.5,3.9v4.7c0,1.3,0.4,1.7,1.3,1.7c0.3,0,0.6-0.1,0.8-0.1 v1.4c-0.3,0.2-0.9,0.3-1.5,0.3c-1.7,0-2.5-0.8-2.5-2.8v-0.6c-0.7,2.1-2.6,3.4-4.7,3.4C267.6,504.2,266.5,503,266.5,501.4z M274.9,498.3v-0.9c-0.4,0.6-1.3,0.9-3.1,1.3c-2.1,0.5-3.3,0.9-3.3,2.3c0,1,0.8,1.6,2.3,1.6C272.8,502.7,274.9,500.9,274.9,498.3z "></path> <path class="st3" d="M285.3,492.3c2,0,3.4,0.9,4.1,2.6v-7.3h2V504h-2v-2.6c-0.8,1.8-2.4,2.8-4.3,2.8c-2.7,0-5.1-1.9-5.1-5.9 S282.6,492.3,285.3,492.3z M289.5,498.2c0-2.4-1.2-4.3-3.8-4.3c-2.3,0-3.7,1.7-3.7,4.3c0,2.8,1.5,4.2,3.7,4.2 C288.3,502.5,289.5,500.6,289.5,498.2z"></path> <path class="st3" d="M299.8,504.2c-3.9,0-5.9-2.6-5.9-5.9c0-3.3,2.2-6.1,5.8-6.1c3.6,0,5.4,2.6,5.4,5.9v0.6h-9.3 c0.2,2.3,1.5,3.8,3.9,3.8c1.7,0,2.8-0.8,3.4-2l1.7,0.9C304,503,302.4,504.2,299.8,504.2z M295.9,497.5h7.3 c-0.1-2.1-1.2-3.6-3.4-3.6C297.5,493.9,296.2,495.3,295.9,497.5z"></path> <path class="st3" d="M315.1,492.9l-0.6,1.8c-0.6-0.4-1.2-0.6-2.1-0.6c-1.6,0-2.9,1.3-2.9,4.2v5.7h-2v-11.5h2v2.9 c0.5-2.1,1.7-3.1,3.4-3.1C313.9,492.3,314.6,492.5,315.1,492.9z"></path> <path class="st3" d="M317.5,500.5c0.9,1.3,2.2,2,4,2c1.9,0,2.6-1,2.6-1.9c0-1.3-1.6-1.5-4-1.9c-2.4-0.4-3.8-1.1-3.8-3 c0-2,1.7-3.5,4.5-3.5c2.4,0,4,0.8,5.3,2.5l-1.5,1.3c-0.9-1.4-2.1-2.1-3.8-2.1c-1.8,0-2.6,0.8-2.6,1.8c0,1.2,1.1,1.5,3.4,1.8 c2.5,0.4,4.4,0.9,4.4,3.1c0,1.9-1.6,3.6-4.5,3.6c-2.7,0-4.4-0.9-5.5-2.4L317.5,500.5z"></path> <path class="st3" d="M328.7,487.6h2v7.8c0.8-2.1,2.3-3.2,4.3-3.2c2.8,0,4.2,2,4.2,4.8v6.9h-2v-6.4c0-2.1-0.7-3.6-3-3.6 c-2,0-3.5,1.6-3.5,4.5v5.5h-2V487.6z"></path> <path class="st3" d="M343.4,488c0.9,0,1.4,0.6,1.4,1.4c0,0.8-0.5,1.4-1.4,1.4c-0.9,0-1.4-0.6-1.4-1.4 C342,488.5,342.5,488,343.4,488z M344.3,504h-2v-11.5h2V504z"></path> <path class="st3" d="M353.8,504.1c-2,0-3.5-1-4.3-2.7v7h-2v-15.9h2v2.6c0.8-1.8,2.5-2.8,4.4-2.8c2.6,0,5,1.9,5,5.9 C359,502,356.7,504.1,353.8,504.1z M357,498.2c0-2.8-1.5-4.3-3.7-4.3c-2.5,0-3.8,1.9-3.8,4.3c0,2.4,1.3,4.3,3.9,4.3 C355.6,502.5,357,500.8,357,498.2z"></path> </g> <g> <path class="st3" d="M453.2,229.7c0,7-6.4,10.9-18.4,16.7h18.7v7.9h-26.2v-7.7c14.7-9,17.5-12.3,17.5-15.8c0-2.7-1.6-4.3-4.3-4.3 c-3,0-4.9,1.9-5.8,6.4l-8.3-2.6c2-6.9,6.9-10.8,14.3-10.8C449.2,219.5,453.2,224.2,453.2,229.7z"></path> <path class="st3" d="M472,254.7c-8.8,0-15.2-5.9-15.2-17.8c0-11.9,7-17.4,15.2-17.4c8.5,0,15.3,5.5,15.3,17.4 C487.3,248.7,480.9,254.7,472,254.7z M472,247.2c3.9,0,6.2-2.4,6.2-10.2c0-7.7-2.3-10.1-6.1-10.1c-3.9,0-6.2,2.5-6.2,10.1 S468.1,247.2,472,247.2z"></path> <path class="st3" d="M516.7,229.7c0,7-6.4,10.9-18.4,16.7H517v7.9h-26.2v-7.7c14.7-9,17.5-12.3,17.5-15.8c0-2.7-1.6-4.3-4.3-4.3 c-3,0-4.9,1.9-5.8,6.4l-8.3-2.6c2-6.9,6.9-10.8,14.3-10.8C512.6,219.5,516.7,224.2,516.7,229.7z"></path> <path class="st3" d="M526.2,242.8c1.4,2.9,4.1,4.5,7.5,4.5c3.7,0,5.3-1.6,5.3-4c0-2.5-2-3.5-6.1-3.5h-4.5v-5.6h4 c3.5,0,5.8-1.1,5.8-3.6c0-2.6-1.8-3.8-5-3.8c-3,0-5.4,1.5-6.8,4.9l-7.3-3.9c3.2-5.3,8.2-8.1,14.8-8.1c7.5,0,12.4,3.3,12.4,8.9 c0,4.6-3.2,7-7.9,8c5.4,0.8,8.7,3.1,8.7,8.3c0,5.7-4.8,10-13.3,10c-6.9,0-12-2.4-15-7.4L526.2,242.8z"></path> </g> <g> <path class="st3" d="M414.2,279.4c2.4,0,4-1.3,4.3-4.1h-4.6V274h6.3v6.7h-1.7v-1.9l0.1-1.7c-0.6,2.4-2.3,3.7-4.7,3.7 c-3.7,0-5.7-2.9-5.7-6.3c0-4.1,2.5-6.9,6.4-6.9c2.9,0,4.5,1.3,5.6,3.2l-1.5,1c-0.8-1.8-2-2.6-4.2-2.6c-2.7,0-4.6,1.9-4.6,5.2 C409.9,277.2,411.4,279.4,414.2,279.4z"></path> <path class="st3" d="M424.5,280.7h-1.7v-14h1.7V280.7z"></path> <path class="st3" d="M426.6,275.7c0-2.9,1.9-5.1,5-5.1c3.2,0,4.9,2.3,4.9,5.1c0,2.8-1.8,5.1-5,5.1 C428.4,280.9,426.6,278.7,426.6,275.7z M434.8,275.7c0-2.2-1.1-3.7-3.2-3.7c-2.1,0-3.2,1.6-3.2,3.7c0,2.2,1,3.7,3.2,3.7 C433.8,279.4,434.8,277.9,434.8,275.7z"></path> <path class="st3" d="M444.1,280.8c-1.7,0-3-0.9-3.6-2.3v2.2h-1.7v-14h1.7v6.4c0.7-1.6,2.1-2.4,3.7-2.4c2.3,0,4.3,1.6,4.3,5 C448.5,279,446.5,280.8,444.1,280.8z M446.8,275.7c0-2.4-1.3-3.6-3.2-3.6c-2.1,0-3.3,1.7-3.3,3.7c0,2.1,1.1,3.6,3.3,3.6 C445.6,279.4,446.8,278,446.8,275.7z"></path> <path class="st3" d="M450,278.4c0-1.1,0.5-1.8,1.3-2.3c0.7-0.4,1.6-0.7,3.1-1c1.9-0.4,2.7-0.7,2.7-1.6c0-0.8-0.6-1.6-2.3-1.6 c-1.6,0-2.5,0.8-3.1,2.2l-1.5-0.5c0.8-2,2.4-3,4.7-3c2.4,0,3.8,1.2,3.8,3.3v4.1c0,1.1,0.4,1.4,1.1,1.4c0.3,0,0.5-0.1,0.7-0.1v1.2 c-0.3,0.2-0.7,0.3-1.2,0.3c-1.5,0-2.1-0.7-2.1-2.4V278c-0.6,1.8-2.2,2.9-4.1,2.9C451,280.9,450,279.8,450,278.4z M457.2,275.8V275 c-0.3,0.5-1.1,0.8-2.7,1.1c-1.8,0.4-2.8,0.8-2.8,2c0,0.8,0.7,1.4,2,1.4C455.4,279.6,457.2,278.1,457.2,275.8z"></path> <path class="st3" d="M463.8,280.7h-1.7v-14h1.7V280.7z"></path> <path class="st3" d="M475.6,280.7h-1.9l-3.2-12.9h1.9l2.2,9.3l0.3,1.7l0.4-1.7l2.7-9.3h1.6l2.6,9.4l0.4,1.8l0.4-1.8l2.5-9.3h1.8 l-3.6,12.9h-2l-2.7-9.6l-0.3-1.4l-0.3,1.4L475.6,280.7z"></path> <path class="st3" d="M488.5,275.7c0-2.9,1.9-5.1,5-5.1c3.2,0,4.9,2.3,4.9,5.1c0,2.8-1.8,5.1-5,5.1 C490.3,280.9,488.5,278.7,488.5,275.7z M496.7,275.7c0-2.2-1.1-3.7-3.2-3.7c-2.1,0-3.2,1.6-3.2,3.7c0,2.2,1,3.7,3.2,3.7 C495.7,279.4,496.7,277.9,496.7,275.7z"></path> <path class="st3" d="M507.1,271.2l-0.5,1.5c-0.5-0.3-1.1-0.5-1.8-0.5c-1.4,0-2.4,1.1-2.4,3.6v4.9h-1.7v-9.9h1.7v2.5 c0.5-1.8,1.4-2.7,2.9-2.7C506,270.7,506.6,270.9,507.1,271.2z"></path> <path class="st3" d="M510.4,276.7l5.1-5.9h2l-3.9,4.4l4.1,5.4h-2.1l-3.4-4.7l-1.8,2v2.7h-1.7v-14h1.7V276.7z"></path> <path class="st3" d="M520.3,272.2h-2.2v-1.4h2.2V270c0-2.4,1-3.3,3.1-3.3h1.4v1.4h-1.4c-1.2,0-1.5,0.4-1.5,1.8v0.9h2.9v1.4h-2.9 v8.5h-1.6V272.2z"></path> <path class="st3" d="M526.2,275.7c0-2.9,1.9-5.1,5-5.1c3.2,0,4.9,2.3,4.9,5.1c0,2.8-1.8,5.1-5,5.1 C527.9,280.9,526.2,278.7,526.2,275.7z M534.4,275.7c0-2.2-1.1-3.7-3.2-3.7c-2.1,0-3.2,1.6-3.2,3.7c0,2.2,1,3.7,3.2,3.7 S534.4,277.9,534.4,275.7z"></path> <path class="st3" d="M544.7,271.2l-0.5,1.5c-0.5-0.3-1.1-0.5-1.8-0.5c-1.4,0-2.4,1.1-2.4,3.6v4.9h-1.7v-9.9h1.7v2.5 c0.5-1.8,1.4-2.7,2.9-2.7C543.7,270.7,544.3,270.9,544.7,271.2z"></path> <path class="st3" d="M553.7,274.7c-0.3-1.6-1.1-2.6-2.9-2.6c-2.1,0-3.2,1.6-3.2,3.7c0,2.2,1,3.6,3.2,3.6c1.8,0,2.6-1,3-2.6 l1.7,0.4c-0.5,2.1-2,3.6-4.7,3.6c-3.2,0-4.9-2.2-4.9-5.1c0-2.9,1.8-5.1,5-5.1c2.8,0,4.1,1.6,4.6,3.7L553.7,274.7z"></path> <path class="st3" d="M562.1,280.9c-3.4,0-5.1-2.2-5.1-5c0-2.8,1.9-5.2,5-5.2c3.1,0,4.6,2.2,4.6,5v0.5h-8c0.1,2,1.3,3.2,3.4,3.2 c1.5,0,2.4-0.7,2.9-1.7l1.4,0.8C565.7,279.8,564.3,280.9,562.1,280.9z M558.7,275.1h6.3c-0.1-1.8-1-3.1-2.9-3.1 C560.1,272,558.9,273.2,558.7,275.1z"></path> </g> <g> <defs> <rect id="SVGID_00000095321081087146827160000002246918620598100356_" x="238" y="514.9" width="497.7" height="151.1"></rect> </defs> <clipPath id="SVGID_00000125594332151652780150000003645660791788284087_"> <use xlink:href="#SVGID_00000095321081087146827160000002246918620598100356_" style="overflow:visible;"></use> </clipPath> <path style="clip-path:url(#SVGID_00000125594332151652780150000003645660791788284087_);fill:#C058FF;" d="M447.2,550.5h-208 v-32.4h208V550.5z M464.4,588.2H239.2v-32.8h225.3V588.2z M456,625.5H239.2v-32.4H456V625.5z M472.2,663.2h-233v-32.8h233V663.2z"></path> <path style="opacity:0.302;clip-path:url(#SVGID_00000125594332151652780150000003645660791788284087_);fill:none;stroke:#FFFFFF;stroke-width:0.75;stroke-linejoin:round;stroke-miterlimit:10;" d=" M447.2,550.5h-208v-32.4h208V550.5z M464.4,588.2H239.2v-32.8h225.3V588.2z M456,625.5H239.2v-32.4H456V625.5z M472.2,663.2h-233 v-32.8h233V663.2z"></path> </g> <g> <defs> <rect id="SVGID_00000070105612807604215050000014544216290553678734_" x="238" y="514.9" width="497.7" height="151.1"></rect> </defs> <clipPath id="SVGID_00000037665769879493473880000008378428607629711034_"> <use xlink:href="#SVGID_00000070105612807604215050000014544216290553678734_" style="overflow:visible;"></use> </clipPath> <path style="clip-path:url(#SVGID_00000037665769879493473880000008378428607629711034_);fill:#04006C;" d="M735.3,550.5H447.2 v-32.4h288.1V550.5z M735.3,588.2H464.4v-32.8h270.9V588.2z M735.3,625.5H456v-32.4h279.3V625.5z M735.3,663.2H472.2v-32.8h263.1 V663.2z"></path> <path style="opacity:0.302;clip-path:url(#SVGID_00000037665769879493473880000008378428607629711034_);fill:none;stroke:#FFFFFF;stroke-width:0.75;stroke-linejoin:round;stroke-miterlimit:10;" d=" M735.3,550.5H447.2v-32.4h288.1V550.5z M735.3,588.2H464.4v-32.8h270.9V588.2z M735.3,625.5H456v-32.4h279.3V625.5z M735.3,663.2 H472.2v-32.8h263.1V663.2z"></path> </g> <g> <defs> <rect id="SVGID_00000040569540799290935770000005867687348904821418_" x="221.8" y="631.8" width="295.9" height="29.9"></rect> </defs> <clipPath id="SVGID_00000035519722469829691000000016424502625308590209_"> <use xlink:href="#SVGID_00000040569540799290935770000005867687348904821418_" style="overflow:visible;"></use> </clipPath> <g style="clip-path:url(#SVGID_00000035519722469829691000000016424502625308590209_);"> <path class="st5" d="M344.9,649.6h2.3v2.6h-2.3v3.1l-4,0v-3.2h-8v-2.5l6.5-10.5h4.8l0.2,0.2l-7.5,10.1h4v-3.2h4V649.6z"></path> <path class="st5" d="M355.8,642.9H348v-3.6h11.9v3.3l-6.2,12.7h-4.5L355.8,642.9z"></path> <path class="st5" d="M365.4,647.5c-2.4,0-4.1-1.7-4.1-4.2c0-2.5,1.7-4.1,4.1-4.1c2.4,0,4.1,1.7,4.1,4.1 C369.5,645.8,367.8,647.5,365.4,647.5z M361.7,653.5l6.5-5.4l0.9,0.8l-4.4,7.3L361.7,653.5z M365.4,645.2c0.8,0,1.2-0.7,1.2-1.8 c0-1.1-0.4-1.8-1.2-1.8c-0.8,0-1.3,0.6-1.3,1.8C364.2,644.5,364.7,645.2,365.4,645.2z M373.8,655.6c-2.4,0-4.1-1.7-4.1-4.3 c0-2.5,1.7-4.1,4.1-4.1c2.4,0,4.1,1.7,4.1,4.1C377.8,653.9,376.2,655.6,373.8,655.6z M377.5,641.5l-6.6,5.4l-0.9-0.8l4.5-7.2 L377.5,641.5z M373.8,653.3c0.8,0,1.2-0.7,1.2-1.9c0-1.1-0.4-1.8-1.2-1.8c-0.8,0-1.3,0.6-1.3,1.8 C372.5,652.6,373,653.3,373.8,653.3z"></path> </g> </g> <g> <defs> <rect id="SVGID_00000172436739845204552270000005089441402738175631_" x="221.8" y="594.1" width="294.5" height="30.3"></rect> </defs> <clipPath id="SVGID_00000079453340273895541430000008280070469882340514_"> <use xlink:href="#SVGID_00000172436739845204552270000005089441402738175631_" style="overflow:visible;"></use> </clipPath> <g style="clip-path:url(#SVGID_00000079453340273895541430000008280070469882340514_);"> <path class="st5" d="M335.8,612h2.3v2.6h-2.3v3.1l-4,0v-3.2h-8v-2.5l6.5-10.5h4.8l0.2,0.2l-7.5,10.1h4v-3.2h4V612z"></path> <path class="st5" d="M350.7,612h2.3v2.6h-2.3v3.1l-4,0v-3.2h-8v-2.5l6.5-10.5h4.8l0.2,0.2l-7.5,10.1h4v-3.2h4V612z"></path> <path class="st5" d="M358.2,609.8c-2.4,0-4.1-1.7-4.1-4.2c0-2.5,1.7-4.1,4.1-4.1c2.4,0,4.1,1.7,4.1,4.1 C362.3,608.1,360.6,609.8,358.2,609.8z M354.5,615.8l6.5-5.4l0.9,0.8l-4.4,7.3L354.5,615.8z M358.2,607.5c0.8,0,1.2-0.7,1.2-1.8 c0-1.1-0.4-1.8-1.2-1.8c-0.8,0-1.3,0.6-1.3,1.8C357,606.8,357.4,607.5,358.2,607.5z M366.6,617.9c-2.4,0-4.1-1.7-4.1-4.3 c0-2.5,1.7-4.1,4.1-4.1c2.4,0,4.1,1.7,4.1,4.1C370.6,616.2,369,617.9,366.6,617.9z M370.3,603.8l-6.6,5.4l-0.9-0.8l4.5-7.2 L370.3,603.8z M366.6,615.6c0.8,0,1.2-0.7,1.2-1.9c0-1.1-0.4-1.8-1.2-1.8c-0.8,0-1.3,0.6-1.3,1.8 C365.3,614.9,365.8,615.6,366.6,615.6z"></path> </g> </g> <g> <defs> <rect id="SVGID_00000164508599506531040700000008977610701306424725_" x="221.8" y="556.8" width="295.5" height="29.9"></rect> </defs> <clipPath id="SVGID_00000133528389181649193480000014713729491516885927_"> <use xlink:href="#SVGID_00000164508599506531040700000008977610701306424725_" style="overflow:visible;"></use> </clipPath> <g style="clip-path:url(#SVGID_00000133528389181649193480000014713729491516885927_);"> <path class="st5" d="M340.6,574.6h2.3v2.6h-2.3v3.1l-4,0v-3.2h-8v-2.5l6.5-10.5h4.8l0.2,0.2l-7.5,10.1h4v-3.2h4V574.6z"></path> <path class="st5" d="M350,580.6c-3.4,0-5.4-1.3-6.4-3.1l3.9-2.3c0.5,1.1,1.3,1.9,2.6,1.9c1.5,0,2.3-0.9,2.3-2.4 c0-1.6-1-2.4-2.4-2.4c-1.2,0-2,0.7-2.5,1.5l-3.6-0.5l0.9-8.9h10.9v3.6H348l-0.4,4c0.8-1.3,2.2-2.2,4.1-2.2c2.8,0,4.6,1.8,4.6,5 C356.3,578.3,353.9,580.6,350,580.6z"></path> <path class="st5" d="M362.1,572.5c-2.4,0-4.1-1.7-4.1-4.2c0-2.5,1.7-4.1,4.1-4.1c2.4,0,4.1,1.7,4.1,4.1 C366.1,570.8,364.5,572.5,362.1,572.5z M358.3,578.4l6.5-5.4l0.9,0.8l-4.4,7.3L358.3,578.4z M362.1,570.1c0.8,0,1.2-0.7,1.2-1.8 c0-1.1-0.4-1.8-1.2-1.8c-0.8,0-1.3,0.6-1.3,1.8C360.8,569.4,361.3,570.1,362.1,570.1z M370.4,580.6c-2.4,0-4.1-1.7-4.1-4.3 c0-2.5,1.7-4.1,4.1-4.1c2.4,0,4.1,1.7,4.1,4.1C374.5,578.9,372.8,580.6,370.4,580.6z M374.1,566.4l-6.6,5.4l-0.9-0.8l4.5-7.2 L374.1,566.4z M370.4,578.2c0.8,0,1.2-0.7,1.2-1.9c0-1.1-0.4-1.8-1.2-1.8c-0.8,0-1.3,0.6-1.3,1.8 C369.2,577.5,369.6,578.2,370.4,578.2z"></path> </g> </g> <g> <defs> <rect id="SVGID_00000088821892504869248110000007741652127096854155_" x="221.8" y="519.1" width="286.4" height="30.3"></rect> </defs> <clipPath id="SVGID_00000028293935767132060760000001778385402638814385_"> <use xlink:href="#SVGID_00000088821892504869248110000007741652127096854155_" style="overflow:visible;"></use> </clipPath> <g style="clip-path:url(#SVGID_00000028293935767132060760000001778385402638814385_);"> <path class="st5" d="M332.1,536.9h2.3v2.6h-2.3v3.1l-4,0v-3.2h-8v-2.5l6.5-10.5h4.8l0.2,0.2l-7.5,10.1h4v-3.2h4V536.9z"></path> <path class="st5" d="M347.5,531.2c0,3.3-3,5.1-8.6,7.8h8.8v3.7h-12.3v-3.6c6.9-4.2,8.2-5.8,8.2-7.4c0-1.3-0.7-2-2-2 c-1.4,0-2.3,0.9-2.7,3l-3.9-1.2c0.9-3.2,3.2-5.1,6.7-5.1C345.6,526.4,347.5,528.6,347.5,531.2z"></path> <path class="st5" d="M353.4,534.8c-2.4,0-4.1-1.7-4.1-4.2c0-2.5,1.7-4.1,4.1-4.1c2.4,0,4.1,1.7,4.1,4.1 C357.4,533.1,355.8,534.8,353.4,534.8z M349.6,540.7l6.5-5.4l0.9,0.8l-4.4,7.3L349.6,540.7z M353.4,532.4c0.8,0,1.2-0.7,1.2-1.8 c0-1.1-0.4-1.8-1.2-1.8c-0.8,0-1.3,0.6-1.3,1.8C352.1,531.8,352.6,532.4,353.4,532.4z M361.7,542.9c-2.4,0-4.1-1.7-4.1-4.3 c0-2.5,1.7-4.1,4.1-4.1c2.4,0,4.1,1.7,4.1,4.1C365.8,541.2,364.1,542.9,361.7,542.9z M365.5,528.7l-6.6,5.4l-0.9-0.8l4.5-7.2 L365.5,528.7z M361.7,540.5c0.8,0,1.2-0.7,1.2-1.9c0-1.1-0.4-1.8-1.2-1.8c-0.8,0-1.3,0.6-1.3,1.8 C360.5,539.9,360.9,540.5,361.7,540.5z"></path> </g> </g> <g> <defs> <rect id="SVGID_00000165954912547384029910000007840070974685019042_" x="440.5" y="631.8" width="309.6" height="29.9"></rect> </defs> <clipPath id="SVGID_00000066487949281616502360000008326306437899191690_"> <use xlink:href="#SVGID_00000165954912547384029910000007840070974685019042_" style="overflow:visible;"></use> </clipPath> <g style="clip-path:url(#SVGID_00000066487949281616502360000008326306437899191690_);"> <path class="st5" d="M587.2,655.7c-3.4,0-5.4-1.3-6.4-3.1l3.9-2.3c0.5,1.1,1.3,1.9,2.6,1.9c1.5,0,2.3-0.9,2.3-2.4 c0-1.6-1-2.4-2.4-2.4c-1.2,0-2,0.7-2.5,1.5l-3.6-0.5l0.9-8.9h10.9v3.6h-7.6l-0.4,4c0.8-1.3,2.2-2.2,4.1-2.2c2.8,0,4.6,1.8,4.6,5 C593.6,653.3,591.2,655.7,587.2,655.7z"></path> <path class="st5" d="M597.9,650.1c0.7,1.4,1.9,2.1,3.5,2.1c1.7,0,2.5-0.8,2.5-1.9c0-1.2-0.9-1.7-2.8-1.7H599V646h1.9 c1.6,0,2.7-0.5,2.7-1.7c0-1.2-0.8-1.8-2.3-1.8c-1.4,0-2.5,0.7-3.2,2.3l-3.4-1.8c1.5-2.5,3.8-3.8,7-3.8c3.5,0,5.8,1.5,5.8,4.2 c0,2.1-1.5,3.3-3.7,3.8c2.6,0.4,4.1,1.5,4.1,3.9c0,2.7-2.2,4.7-6.2,4.7c-3.2,0-5.6-1.1-7-3.5L597.9,650.1z"></path> <path class="st5" d="M613.6,647.5c-2.4,0-4.1-1.7-4.1-4.2c0-2.5,1.7-4.1,4.1-4.1s4.1,1.7,4.1,4.1 C617.7,645.8,616,647.5,613.6,647.5z M609.9,653.5l6.5-5.4l0.9,0.8l-4.4,7.3L609.9,653.5z M613.6,645.2c0.8,0,1.2-0.7,1.2-1.8 c0-1.1-0.4-1.8-1.2-1.8c-0.8,0-1.3,0.6-1.3,1.8C612.4,644.5,612.9,645.2,613.6,645.2z M622,655.6c-2.4,0-4.1-1.7-4.1-4.3 c0-2.5,1.7-4.1,4.1-4.1c2.4,0,4.1,1.7,4.1,4.1C626,653.9,624.4,655.6,622,655.6z M625.7,641.5l-6.6,5.4l-0.9-0.8l4.5-7.2 L625.7,641.5z M622,653.3c0.8,0,1.2-0.7,1.2-1.9c0-1.1-0.4-1.8-1.2-1.8c-0.8,0-1.3,0.6-1.3,1.8 C620.7,652.6,621.2,653.3,622,653.3z"></path> </g> </g> <g> <defs> <rect id="SVGID_00000106848620077697774220000004522813233600532892_" x="429.9" y="594.1" width="320.2" height="30.3"></rect> </defs> <clipPath id="SVGID_00000129183349253368551170000006197096942247709835_"> <use xlink:href="#SVGID_00000106848620077697774220000004522813233600532892_" style="overflow:visible;"></use> </clipPath> <g style="clip-path:url(#SVGID_00000129183349253368551170000006197096942247709835_);"> <path class="st5" d="M578.8,618c-3.4,0-5.4-1.3-6.4-3.1l3.9-2.3c0.5,1.1,1.3,1.9,2.6,1.9c1.5,0,2.3-0.9,2.3-2.4 c0-1.6-1-2.4-2.4-2.4c-1.2,0-2,0.7-2.5,1.5l-3.6-0.5l0.9-8.9h10.9v3.6h-7.6l-0.4,4c0.8-1.3,2.2-2.2,4.1-2.2c2.8,0,4.6,1.8,4.6,5 C585.1,615.6,582.7,618,578.8,618z"></path> <path class="st5" d="M600.2,603.9l-3.3,2.5c-0.7-1-1.4-1.5-2.8-1.5c-2,0-3.2,1.4-3.3,4.8c0.9-1.6,2.4-2.4,4.4-2.4 c2.9,0,5,1.7,5,5c0,3.1-2.2,5.8-6.4,5.8c-5.1,0-7.1-3.6-7.1-7.8c0-5.6,3.2-8.7,7.6-8.7C597.3,601.5,598.9,602.4,600.2,603.9z M591,611.9c0.4,1.7,1.2,2.6,2.8,2.6c1.7,0,2.5-0.9,2.5-2.5c0-1.6-1.1-2.2-2.4-2.2C592.5,609.8,591.5,610.5,591,611.9z"></path> <path class="st5" d="M605.8,609.8c-2.4,0-4.1-1.7-4.1-4.2c0-2.5,1.7-4.1,4.1-4.1s4.1,1.7,4.1,4.1 C609.9,608.1,608.2,609.8,605.8,609.8z M602.1,615.8l6.5-5.4l0.9,0.8l-4.4,7.3L602.1,615.8z M605.8,607.5c0.8,0,1.2-0.7,1.2-1.8 c0-1.1-0.4-1.8-1.2-1.8c-0.8,0-1.3,0.6-1.3,1.8C604.6,606.8,605,607.5,605.8,607.5z M614.2,617.9c-2.4,0-4.1-1.7-4.1-4.3 c0-2.5,1.7-4.1,4.1-4.1c2.4,0,4.1,1.7,4.1,4.1C618.2,616.2,616.6,617.9,614.2,617.9z M617.9,603.8l-6.6,5.4l-0.9-0.8l4.5-7.2 L617.9,603.8z M614.2,615.6c0.8,0,1.2-0.7,1.2-1.9c0-1.1-0.4-1.8-1.2-1.8c-0.8,0-1.3,0.6-1.3,1.8 C612.9,614.9,613.4,615.6,614.2,615.6z"></path> </g> </g> <g> <defs> <rect id="SVGID_00000072252996228434133840000004994689375951714709_" x="437.7" y="556.8" width="312.4" height="29.9"></rect> </defs> <clipPath id="SVGID_00000023960329354236974030000004158419279727753121_"> <use xlink:href="#SVGID_00000072252996228434133840000004994689375951714709_" style="overflow:visible;"></use> </clipPath> <g style="clip-path:url(#SVGID_00000023960329354236974030000004158419279727753121_);"> <path class="st5" d="M583.6,580.6c-3.4,0-5.4-1.3-6.4-3.1l3.9-2.3c0.5,1.1,1.3,1.9,2.6,1.9c1.5,0,2.3-0.9,2.3-2.4 c0-1.6-1-2.4-2.4-2.4c-1.2,0-2,0.7-2.5,1.5l-3.6-0.5l0.9-8.9h10.9v3.6h-7.6l-0.4,4c0.8-1.3,2.2-2.2,4.1-2.2c2.8,0,4.6,1.8,4.6,5 C590,578.3,587.5,580.6,583.6,580.6z"></path> <path class="st5" d="M597.5,580.6c-3.4,0-5.4-1.3-6.4-3.1l3.9-2.3c0.5,1.1,1.3,1.9,2.6,1.9c1.5,0,2.3-0.9,2.3-2.4 c0-1.6-1-2.4-2.4-2.4c-1.2,0-2,0.7-2.5,1.5l-3.6-0.5l0.9-8.9h10.9v3.6h-7.6l-0.4,4c0.8-1.3,2.2-2.2,4.1-2.2c2.8,0,4.6,1.8,4.6,5 C603.9,578.3,601.5,580.6,597.5,580.6z"></path> <path class="st5" d="M609.6,572.5c-2.4,0-4.1-1.7-4.1-4.2c0-2.5,1.7-4.1,4.1-4.1s4.1,1.7,4.1,4.1 C613.7,570.8,612,572.5,609.6,572.5z M605.9,578.4l6.5-5.4l0.9,0.8l-4.4,7.3L605.9,578.4z M609.6,570.1c0.8,0,1.2-0.7,1.2-1.8 c0-1.1-0.4-1.8-1.2-1.8c-0.8,0-1.3,0.6-1.3,1.8C608.4,569.4,608.8,570.1,609.6,570.1z M618,580.6c-2.4,0-4.1-1.7-4.1-4.3 c0-2.5,1.7-4.1,4.1-4.1c2.4,0,4.1,1.7,4.1,4.1C622,578.9,620.4,580.6,618,580.6z M621.7,566.4l-6.6,5.4l-0.9-0.8l4.5-7.2 L621.7,566.4z M618,578.2c0.8,0,1.2-0.7,1.2-1.9c0-1.1-0.4-1.8-1.2-1.8c-0.8,0-1.3,0.6-1.3,1.8 C616.7,577.5,617.2,578.2,618,578.2z"></path> </g> </g> <g> <defs> <rect id="SVGID_00000062883873675694645530000011340249839774410137_" x="426.1" y="519.1" width="324" height="30.3"></rect> </defs> <clipPath id="SVGID_00000033359556050644510690000003708007738327595904_"> <use xlink:href="#SVGID_00000062883873675694645530000011340249839774410137_" style="overflow:visible;"></use> </clipPath> <g style="clip-path:url(#SVGID_00000033359556050644510690000003708007738327595904_);"> <path class="st5" d="M574.5,542.9c-3.4,0-5.4-1.3-6.4-3.1l3.9-2.3c0.5,1.1,1.3,1.9,2.6,1.9c1.5,0,2.3-0.9,2.3-2.4 c0-1.6-1-2.4-2.4-2.4c-1.2,0-2,0.7-2.5,1.5l-3.6-0.5l0.9-8.9h10.9v3.6h-7.6l-0.4,4c0.8-1.3,2.2-2.2,4.1-2.2c2.8,0,4.6,1.8,4.6,5 C580.9,540.6,578.5,542.9,574.5,542.9z"></path> <path class="st5" d="M589,542.9c-4.4,0-6.9-1.5-6.9-4.4c0-2.2,1.6-3.7,4-4.2c-2-0.4-3.4-1.4-3.4-3.6c0-2.5,2.5-4.3,6.4-4.3 c3.8,0,6.4,1.7,6.4,4.2c0,2.1-1.4,3.2-3.3,3.6c2.4,0.5,3.8,1.9,3.8,4.1C595.9,541.1,593.2,542.9,589,542.9z M591.9,537.4 c0-1.2-0.9-2.1-2.8-2.1c-1.8,0-2.8,0.9-2.8,2.1c0,1.2,0.8,2,2.8,2C591,539.5,591.9,538.6,591.9,537.4z M591.6,531.5 c0-1.1-0.8-1.9-2.5-1.9c-1.7,0-2.6,0.8-2.6,1.9c0,1.1,0.8,1.9,2.5,1.9C590.8,533.4,591.6,532.6,591.6,531.5z"></path> <path class="st5" d="M601.5,534.8c-2.4,0-4.1-1.7-4.1-4.2c0-2.5,1.7-4.1,4.1-4.1s4.1,1.7,4.1,4.1 C605.5,533.1,603.9,534.8,601.5,534.8z M597.7,540.7l6.5-5.4l0.9,0.8l-4.4,7.3L597.7,540.7z M601.5,532.4c0.8,0,1.2-0.7,1.2-1.8 c0-1.1-0.4-1.8-1.2-1.8c-0.8,0-1.3,0.6-1.3,1.8C600.2,531.8,600.7,532.4,601.5,532.4z M609.8,542.9c-2.4,0-4.1-1.7-4.1-4.3 c0-2.5,1.7-4.1,4.1-4.1c2.4,0,4.1,1.7,4.1,4.1C613.9,541.2,612.2,542.9,609.8,542.9z M613.5,528.7l-6.6,5.4l-0.9-0.8l4.5-7.2 L613.5,528.7z M609.8,540.5c0.8,0,1.2-0.7,1.2-1.9c0-1.1-0.4-1.8-1.2-1.8c-0.8,0-1.3,0.6-1.3,1.8 C608.6,539.9,609,540.5,609.8,540.5z"></path> </g> </g> <rect x="35.8" y="43.1" class="st60" width="179.6" height="32.8"></rect> <g> <path class="st5" d="M91.1,66.2h-4.6l-3.2-15h4l1.9,9.7l0.3,1.6l0.3-1.6l2.5-9.7h3.3l2.4,9.7l0.3,1.7l0.3-1.7l2.2-9.7h4l-3.7,15 h-4.7L94,56.3L93.8,55l-0.2,1.3L91.1,66.2z"></path> <path class="st5" d="M105.9,60.4c0-3.4,2.3-6,6.3-6c4.1,0,6.3,2.6,6.3,6c0,3.4-2.3,6-6.3,6C108,66.4,105.9,63.9,105.9,60.4z M114.6,60.4c0-1.9-0.7-3.1-2.5-3.1c-1.7,0-2.5,1.2-2.5,3.1c0,1.9,0.7,3,2.5,3C113.9,63.5,114.6,62.3,114.6,60.4z"></path> <path class="st5" d="M124.2,66.2h-3.7V54.7h3.7v2.7c0.7-2,2-2.9,3.7-2.9c2,0,3.1,1,3.6,2.8c0.8-1.9,2.1-2.8,3.9-2.8 c2.5,0,3.9,1.7,3.9,4.5v7.2h-3.7v-6.1c0-1.8-0.5-2.7-1.9-2.7s-2,1.1-2,3.2v5.6h-3.7v-6.1c0-1.8-0.5-2.7-1.9-2.7s-2,1.1-2,3.2V66.2 z"></path> <path class="st5" d="M147.4,66.4c-4.2,0-6.2-2.5-6.2-5.9c0-3.3,2.3-6.1,6.2-6.1c4.1,0,5.9,2.7,5.9,5.6v1.1h-8.6 c0.2,1.5,1.1,2.3,2.7,2.3c1.2,0,1.9-0.5,2.4-1.5l3.2,1.2C152.1,65.1,150.4,66.4,147.4,66.4z M144.8,59.4h4.9 c-0.1-1.3-0.8-2.2-2.4-2.2C146,57.2,145.1,57.9,144.8,59.4z"></path> <path class="st5" d="M155.3,54.7h3.7v2.6c0.7-2,2.1-2.9,3.9-2.9c2.5,0,4,1.7,4,4.5v7.2h-3.7v-6.1c0-1.8-0.6-2.7-2.1-2.7 c-1.4,0-2.2,1.1-2.2,3.2v5.6h-3.7V54.7z"></path> </g> <rect x="35.8" y="80.1" class="st3" width="179.6" height="32.8"></rect> <g> <path class="st5" d="M120.5,88.5v15h-3.7V93.2l0.1-2l-0.5,2.1l-3,10.3h-3.4l-2.9-10.2l-0.5-2.1l0.1,2v10.4H103v-15h5.5l3.1,11.1 l0.1,0.9l0.2-0.9l3.1-11.1H120.5z"></path> <path class="st5" d="M128.8,103.7c-4.2,0-6.2-2.5-6.2-5.9c0-3.3,2.3-6.1,6.2-6.1c4.1,0,5.9,2.7,5.9,5.6v1.1h-8.6 c0.2,1.5,1.1,2.3,2.7,2.3c1.2,0,1.9-0.5,2.4-1.5l3.2,1.2C133.5,102.4,131.7,103.7,128.8,103.7z M126.2,96.7h4.9 c-0.1-1.3-0.8-2.2-2.4-2.2C127.3,94.5,126.4,95.3,126.2,96.7z"></path> <path class="st5" d="M136.7,92h3.7v2.6c0.7-2,2.1-2.9,3.9-2.9c2.5,0,4,1.7,4,4.5v7.2h-3.7v-6.1c0-1.8-0.6-2.7-2.1-2.7 c-1.4,0-2.2,1.1-2.2,3.2v5.6h-3.7V92z"></path> </g> </g> </svg> 