<?xml version="1.0" encoding="UTF-8"?> <svg xmlns="http://www.w3.org/2000/svg" xmlns:xlink="http://www.w3.org/1999/xlink" version="1.1" id="Layer_1" x="0px" y="0px" viewBox="0 0 774.9 700.5" style="enable-background:new 0 0 774.9 700.5;" xml:space="preserve"> <style type="text/css"> .st0{fill:none;stroke:#04006C;stroke-width:0.5;stroke-linecap:round;stroke-linejoin:round;stroke-miterlimit:10;} .st1{fill:#04006C;} .st2{fill:#00A7B5;} .st3{fill:#FFFFFF;} .st4{fill:#9000E8;} .st5{fill:#FD5911;} .st6{clip-path:url(#SVGID_00000092432130894884103280000010407767686404707737_);fill-rule:evenodd;clip-rule:evenodd;fill:#00A7B5;} .st7{opacity:0.302;clip-path:url(#SVGID_00000092432130894884103280000010407767686404707737_);fill:none;stroke:#FFFFFF;stroke-width:0.75;stroke-linejoin:round;stroke-miterlimit:10;} .st8{clip-path:url(#SVGID_00000042728005134558112780000004543843294797016465_);fill-rule:evenodd;clip-rule:evenodd;fill:#9000E8;} .st9{opacity:0.302;clip-path:url(#SVGID_00000042728005134558112780000004543843294797016465_);fill:none;stroke:#FFFFFF;stroke-width:0.75;stroke-linejoin:round;stroke-miterlimit:10;} .st10{clip-path:url(#SVGID_00000140008782247475337760000007167375545340284851_);fill-rule:evenodd;clip-rule:evenodd;fill:#04006C;} .st11{opacity:0.302;clip-path:url(#SVGID_00000140008782247475337760000007167375545340284851_);fill:none;stroke:#FFFFFF;stroke-width:0.75;stroke-linejoin:round;stroke-miterlimit:10;} .st12{clip-path:url(#SVGID_00000121958860721216596790000007512392458977609640_);fill-rule:evenodd;clip-rule:evenodd;fill:#FD5911;} .st13{opacity:0.302;clip-path:url(#SVGID_00000121958860721216596790000007512392458977609640_);fill:none;stroke:#FFFFFF;stroke-width:0.75;stroke-linejoin:round;stroke-miterlimit:10;} .st14{clip-path:url(#SVGID_00000143578438827071518510000016780577062853540738_);} .st15{clip-path:url(#SVGID_00000008838628955515233510000016589499236897107084_);} .st16{clip-path:url(#SVGID_00000084516145414976390360000003876365355661031559_);} .st17{clip-path:url(#SVGID_00000050662111652537060140000018041221658293455538_);} .st18{clip-path:url(#SVGID_00000134967264761411765990000005845162974363256706_);fill:#FD5911;} .st19{opacity:0.302;clip-path:url(#SVGID_00000134967264761411765990000005845162974363256706_);fill:none;stroke:#FFFFFF;stroke-width:0.75;stroke-linejoin:round;stroke-miterlimit:10;} .st20{clip-path:url(#SVGID_00000047042131001225287540000002650751473851361711_);fill:#04006C;} .st21{opacity:0.302;clip-path:url(#SVGID_00000047042131001225287540000002650751473851361711_);fill:none;stroke:#FFFFFF;stroke-width:0.75;stroke-linejoin:round;stroke-miterlimit:10;} .st22{clip-path:url(#SVGID_00000152954127596381919750000014523595057550989446_);fill:#9000E8;} .st23{opacity:0.302;clip-path:url(#SVGID_00000152954127596381919750000014523595057550989446_);fill:none;stroke:#FFFFFF;stroke-width:0.75;stroke-linejoin:round;stroke-miterlimit:10;} .st24{clip-path:url(#SVGID_00000049938805753420133370000005815006991257196442_);fill:#00A7B5;} .st25{opacity:0.302;clip-path:url(#SVGID_00000049938805753420133370000005815006991257196442_);fill:none;stroke:#FFFFFF;stroke-width:0.75;stroke-linejoin:round;stroke-miterlimit:10;} .st26{clip-path:url(#SVGID_00000094577732587825459910000002493917063879300797_);} .st27{clip-path:url(#SVGID_00000031172374401104179120000004711092862932486816_);} .st28{clip-path:url(#SVGID_00000103229281040494054960000015516707370256431005_);} .st29{clip-path:url(#SVGID_00000078028582127507632760000010134187044519588268_);} .st30{clip-path:url(#SVGID_00000132783914485981364900000006832317340307347106_);} .st31{clip-path:url(#SVGID_00000016076289762433270620000010015002301738371979_);} .st32{clip-path:url(#SVGID_00000078025542372222585240000014053295330044414642_);} .st33{clip-path:url(#SVGID_00000036964354606241185970000001263048858276616125_);} .st34{clip-path:url(#SVGID_00000103241022696646566700000016456701478787019909_);} .st35{clip-path:url(#SVGID_00000045577017720505345280000014481305706481783212_);} .st36{clip-path:url(#SVGID_00000050665041709303601470000017330240862878041512_);} .st37{clip-path:url(#SVGID_00000005233350993453113430000005304428204377224873_);} </style> <line class="st0" x1="112.5" y1="532.1" x2="231.8" y2="532.1"></line> <line class="st0" x1="84.5" y1="569.3" x2="231.8" y2="569.3"></line> <line class="st0" x1="156.5" y1="606.5" x2="231.8" y2="606.5"></line> <line class="st0" x1="163.5" y1="643.7" x2="231.8" y2="643.7"></line> <g> <path class="st1" d="M49.7,533.4c1.2,1.5,2.6,2.4,4.9,2.4c1.6,0,2.4-0.7,2.4-1.7c0-1.3-1.4-1.6-4.3-2.1c-3.5-0.6-5.7-1.6-5.7-4.8 c0-2.9,2.4-5.2,6.6-5.2c3.1,0,5.6,1,7.7,3.4l-3.5,2.7c-1-1.5-2.4-2.4-4.5-2.4c-1.7,0-2.4,0.8-2.4,1.6c0,1.2,1.2,1.5,3.8,1.9 c3.9,0.7,6.2,1.8,6.2,5c0,3.1-2.5,5.3-6.6,5.3c-3.9,0-6.3-1.3-8-3.3L49.7,533.4z"></path> <path class="st1" d="M72.6,539.4h-4.6l-6.4-17h4.7l3.5,10l0.5,2.2l0.6-2.2l3.5-10h4.7L72.6,539.4z"></path> <path class="st1" d="M85,534.7v4.7h-4.4v-17h7.5c5,0,7.3,2.5,7.3,6.1c0,3.5-2.4,6.3-7.5,6.3H85z M85,526.1v5.7h2.6 c2.2,0,3.4-1,3.4-2.9c0-1.9-1.1-2.8-3.4-2.8H85z"></path> <path class="st1" d="M96.7,530.5h3.3v-3.4h3.2v3.4h3.3v3h-3.3v3.4H100v-3.4h-3.3V530.5z"></path> </g> <g> <path class="st1" d="M57.2,576.8h-4.6l-6.4-17H51l3.5,10l0.5,2.2l0.6-2.2l3.5-10h4.7L57.2,576.8z"></path> <path class="st1" d="M69.6,572.1v4.7h-4.4v-17h7.5c5,0,7.3,2.5,7.3,6.1c0,3.5-2.4,6.3-7.5,6.3H69.6z M69.6,563.5v5.7h2.6 c2.2,0,3.4-1,3.4-2.9c0-1.9-1.1-2.8-3.4-2.8H69.6z"></path> </g> <g> <path class="st1" d="M47.7,596.8h6.5c5.8,0,9,2.9,9,8.4c0,5-3.1,8.6-8.9,8.6h-6.6V596.8z M52.1,600.5v9.9h2c3.2,0,4.7-1.9,4.7-5.1 c0-3.3-1.5-4.8-4.8-4.8H52.1z"></path> <path class="st1" d="M67.5,594.3c1.6,0,2.6,1,2.6,2.6c0,1.5-1,2.5-2.6,2.5c-1.7,0-2.6-1-2.6-2.5C64.9,595.3,65.9,594.3,67.5,594.3z M69.6,613.9h-4.2v-13h4.2V613.9z"></path> <path class="st1" d="M81.9,601l-1,3.9c-0.6-0.3-1.2-0.4-2-0.4c-1.4,0-2.5,1.1-2.5,3.2v6.2h-4.2v-13h4.2v3.6 c0.5-2.7,1.5-3.8,3.6-3.8C80.7,600.6,81.4,600.7,81.9,601z"></path> <path class="st1" d="M89.5,614.1c-4.7,0-7-2.8-7-6.6c0-3.8,2.6-6.9,7.1-6.9c4.6,0,6.7,3.1,6.7,6.4v1.3h-9.7 c0.2,1.7,1.2,2.6,3.1,2.6c1.4,0,2.1-0.5,2.7-1.7l3.6,1.4C94.9,612.6,92.9,614.1,89.5,614.1z M86.6,606.1h5.6 c-0.1-1.5-0.9-2.5-2.7-2.5C87.9,603.6,86.9,604.5,86.6,606.1z"></path> <path class="st1" d="M107,606.3c-0.2-1.6-0.8-2.6-2.4-2.6c-1.9,0-2.7,1.4-2.7,3.5c0,2.2,0.7,3.4,2.7,3.4c1.6,0,2.2-1,2.5-2.5 l4.3,0.8c-0.7,3.1-3,5-6.8,5c-4.8,0-7.1-2.8-7.1-6.7c0-3.9,2.6-6.8,7.2-6.8c4,0,5.9,1.9,6.6,4.8L107,606.3z"></path> <path class="st1" d="M122.2,613.4c-0.7,0.4-1.7,0.7-2.8,0.7c-3.3,0-4.4-1.6-4.4-4.5v-5.5h-2.8v-3.3h2.8v-3.2l3.9-1.9v5.1h3.2v3.3 h-3.2v4.8c0,1.3,0.5,1.8,1.6,1.8c0.7,0,1.1-0.1,1.6-0.4V613.4z"></path> <path class="st1" d="M123.6,607.4c0-3.9,2.6-6.8,7.2-6.8c4.7,0,7.2,3,7.2,6.8s-2.6,6.8-7.2,6.8 C125.9,614.1,123.6,611.3,123.6,607.4z M133.5,607.3c0-2.2-0.8-3.5-2.8-3.5c-1.9,0-2.8,1.4-2.8,3.5c0,2.1,0.7,3.4,2.8,3.4 C132.7,610.8,133.5,609.4,133.5,607.3z"></path> <path class="st1" d="M149.7,601l-1,3.9c-0.6-0.3-1.2-0.4-2-0.4c-1.4,0-2.5,1.1-2.5,3.2v6.2h-4.2v-13h4.2v3.6 c0.5-2.7,1.5-3.8,3.6-3.8C148.5,600.6,149.1,600.7,149.7,601z"></path> </g> <g> <path class="st1" d="M67.5,634.2v17h-4.2v-11.7l0.1-2.3l-0.5,2.4l-3.4,11.7h-3.8l-3.3-11.6l-0.5-2.4l0.1,2.2v11.7h-4.2v-17H54 l3.5,12.6l0.2,1l0.2-1l3.6-12.6H67.5z"></path> <path class="st1" d="M69.5,648.3c0-1.6,0.7-2.4,1.7-3c1-0.6,2.4-1,4.9-1.5c2-0.4,2.3-0.7,2.3-1.4c0-0.7-0.6-1.3-2-1.3 c-1.5,0-2.5,0.8-3.1,2.3l-3.6-1.4c1.2-2.7,3.7-4,6.8-4c3.7,0,5.8,1.7,5.8,4.9v4c0,1.2,0.3,1.6,1.1,1.6c0.3,0,0.6-0.1,0.9-0.2v2.5 c-0.5,0.3-1.4,0.7-2.5,0.7c-2.1,0-3.3-0.9-3.4-3.1c-0.8,1.9-2.6,3.1-4.8,3.1C71.1,651.5,69.5,650.3,69.5,648.3z M78.5,645.3v-0.5 c-0.3,0.3-0.9,0.6-2.1,0.8c-2,0.4-2.7,0.9-2.7,1.8c0,0.8,0.6,1.2,1.7,1.2C77.5,648.6,78.5,646.8,78.5,645.3z"></path> <path class="st1" d="M85.8,638.2H90v3c0.8-2.2,2.4-3.3,4.5-3.3c2.9,0,4.6,2,4.6,5.1v8.2h-4.2v-6.9c0-2.1-0.7-3.1-2.3-3.1 c-1.6,0-2.5,1.3-2.5,3.7v6.3h-4.2V638.2z"></path> <path class="st1" d="M100.8,648.3c0-1.6,0.7-2.4,1.7-3c1-0.6,2.4-1,4.9-1.5c2-0.4,2.3-0.7,2.3-1.4c0-0.7-0.6-1.3-2-1.3 c-1.5,0-2.5,0.8-3.1,2.3L101,642c1.2-2.7,3.7-4,6.8-4c3.7,0,5.8,1.7,5.8,4.9v4c0,1.2,0.3,1.6,1.1,1.6c0.3,0,0.6-0.1,0.9-0.2v2.5 c-0.5,0.3-1.4,0.7-2.5,0.7c-2.1,0-3.3-0.9-3.4-3.1c-0.8,1.9-2.6,3.1-4.8,3.1C102.3,651.5,100.8,650.3,100.8,648.3z M109.8,645.3 v-0.5c-0.3,0.3-0.9,0.6-2.1,0.8c-2,0.4-2.7,0.9-2.7,1.8c0,0.8,0.6,1.2,1.7,1.2C108.8,648.6,109.8,646.8,109.8,645.3z"></path> <path class="st1" d="M116.5,644.7c0-4.5,2.7-6.7,5.6-6.7c2.1,0,3.4,0.8,4.1,2.6v-2.5h4.2v11.3c0,4.9-2.7,7.2-7,7.2 c-3.3,0-5.1-1-6.6-2.7l3.6-2.4c0.7,1,1.4,1.6,2.9,1.6c1.8,0,2.9-1.1,2.9-3.4v-1.6c-0.7,1.7-2,2.8-4.2,2.8 C118.6,651.1,116.5,649,116.5,644.7z M126.3,644.7c0-2.2-0.8-3.5-2.8-3.5c-1.9,0-2.8,1.4-2.8,3.5c0,2.1,0.7,3.4,2.8,3.4 C125.6,648.1,126.3,646.8,126.3,644.7z"></path> <path class="st1" d="M139.2,651.5c-4.7,0-7-2.8-7-6.6c0-3.8,2.6-6.9,7.1-6.9c4.6,0,6.7,3.1,6.7,6.4v1.3h-9.7 c0.2,1.7,1.2,2.6,3.1,2.6c1.4,0,2.1-0.5,2.7-1.7l3.6,1.4C144.5,650,142.5,651.5,139.2,651.5z M136.3,643.5h5.6 c-0.1-1.5-0.9-2.5-2.7-2.5C137.6,641,136.6,641.9,136.3,643.5z"></path> <path class="st1" d="M157.6,638.4l-1,3.9c-0.6-0.3-1.2-0.4-2-0.4c-1.4,0-2.5,1.1-2.5,3.2v6.2h-4.2v-13h4.2v3.6 c0.5-2.7,1.5-3.8,3.6-3.8C156.4,638,157.1,638.1,157.6,638.4z"></path> </g> <rect x="39" y="44.6" class="st2" width="178.3" height="32.1"></rect> <g> <path class="st3" d="M49.5,52.6h7.6c3.7,0,5.3,1.4,5.3,3.7c0,1.9-1.4,3.1-3.6,3.5c2.4,0.2,4,1.4,4,3.6c0,2.7-2.1,4-5.8,4h-7.5V52.6 z M53.4,55.6v3.2h2.4c2,0,2.8-0.6,2.8-1.6c0-1.1-0.7-1.5-2.8-1.5H53.4z M53.4,61.2v3.3h2.8c2.2,0,2.8-0.7,2.8-1.8 c0-1-0.8-1.5-2.9-1.5H53.4z"></path> <path class="st3" d="M64,64.9c0-1.4,0.6-2.1,1.5-2.6c0.9-0.6,2.1-0.9,4.3-1.3c1.7-0.4,2-0.7,2-1.2c0-0.7-0.5-1.1-1.8-1.1 c-1.3,0-2.2,0.7-2.7,2l-3.1-1.2c1.1-2.3,3.2-3.5,5.9-3.5c3.3,0,5.1,1.5,5.1,4.3v3.5c0,1,0.3,1.4,1,1.4c0.3,0,0.5-0.1,0.8-0.1V67 c-0.4,0.3-1.2,0.6-2.2,0.6c-1.9,0-2.9-0.8-3-2.7c-0.7,1.7-2.3,2.7-4.2,2.7C65.3,67.7,64,66.6,64,64.9z M71.8,62.3v-0.5 c-0.3,0.3-0.8,0.5-1.8,0.7c-1.7,0.4-2.4,0.8-2.4,1.5c0,0.7,0.5,1.1,1.5,1.1C70.9,65.2,71.8,63.6,71.8,62.3z"></path> <path class="st3" d="M85.7,67.6c-1.9,0-3-1-3.6-2.5v2.4h-3.7V51.2h3.7v7.3c0.7-1.7,2-2.6,3.8-2.6c2.6,0,4.6,1.8,4.6,5.7 C90.6,65.5,88.5,67.6,85.7,67.6z M86.8,61.8c0-1.9-0.7-3.1-2.4-3.1c-1.7,0-2.4,1.2-2.5,3.1c0,1.9,0.7,3,2.5,3 C86.1,64.8,86.8,63.6,86.8,61.8z"></path> <path class="st3" d="M97.4,71.9h-3.9l2.1-4.8l-4.5-11h3.8l2.3,5.8l0.4,1.5l0.4-1.5l2.2-5.8h3.8L97.4,71.9z"></path> <path class="st3" d="M110.4,52.6h7.6c3.7,0,5.3,1.4,5.3,3.7c0,1.9-1.4,3.1-3.6,3.5c2.4,0.2,4,1.4,4,3.6c0,2.7-2.1,4-5.8,4h-7.5 V52.6z M114.2,55.6v3.2h2.4c2,0,2.8-0.6,2.8-1.6c0-1.1-0.7-1.5-2.8-1.5H114.2z M114.2,61.2v3.3h2.8c2.2,0,2.8-0.7,2.8-1.8 c0-1-0.8-1.5-2.9-1.5H114.2z"></path> <path class="st3" d="M124.9,61.8c0-3.4,2.3-6,6.3-6c4.1,0,6.3,2.6,6.3,5.9s-2.3,5.9-6.3,5.9C127,67.7,124.9,65.2,124.9,61.8z M133.6,61.8c0-1.9-0.7-3.1-2.4-3.1c-1.7,0-2.4,1.2-2.4,3.1c0,1.9,0.7,3,2.4,3C132.9,64.8,133.6,63.6,133.6,61.8z"></path> <path class="st3" d="M138.9,61.8c0-3.4,2.3-6,6.3-6c4.1,0,6.3,2.6,6.3,5.9s-2.3,5.9-6.3,5.9C141,67.7,138.9,65.2,138.9,61.8z M147.6,61.8c0-1.9-0.7-3.1-2.4-3.1c-1.7,0-2.4,1.2-2.4,3.1c0,1.9,0.7,3,2.4,3C146.9,64.8,147.6,63.6,147.6,61.8z"></path> <path class="st3" d="M157.1,67.5h-3.7V56.1h3.7v2.7c0.7-2,2-2.9,3.7-2.9c1.9,0,3.1,1,3.5,2.8c0.8-1.9,2.1-2.8,3.9-2.8 c2.5,0,3.9,1.7,3.9,4.5v7.2h-3.7v-6.1c0-1.8-0.5-2.7-1.9-2.7s-2,1.1-2,3.2v5.5H161v-6.1c0-1.8-0.5-2.7-1.9-2.7c-1.4,0-2,1.1-2,3.2 V67.5z"></path> <path class="st3" d="M180.2,67.7c-4.1,0-6.1-2.5-6.1-5.8c0-3.3,2.3-6,6.2-6c4,0,5.9,2.7,5.9,5.6v1.1h-8.5c0.2,1.5,1.1,2.3,2.7,2.3 c1.2,0,1.9-0.4,2.4-1.5l3.2,1.2C184.9,66.4,183.1,67.7,180.2,67.7z M177.6,60.7h4.9c-0.1-1.3-0.8-2.2-2.3-2.2 C178.7,58.5,177.9,59.3,177.6,60.7z"></path> <path class="st3" d="M196.6,56.2l-0.9,3.4c-0.5-0.2-1-0.4-1.8-0.4c-1.2,0-2.2,1-2.2,2.8v5.4h-3.7V56.1h3.7v3.2 c0.5-2.3,1.3-3.3,3.1-3.3C195.6,55.9,196.2,56,196.6,56.2z"></path> <path class="st3" d="M199.3,63.2c1,1.1,2.1,1.6,3.5,1.6c1.1,0,1.6-0.4,1.6-1c0-0.7-1.1-0.8-3.4-1.2c-2.3-0.4-3.7-1.1-3.7-3.2 s1.7-3.7,4.8-3.7c2.4,0,4.3,0.6,5.7,2.2l-2.5,2.2c-0.8-1.1-2-1.6-3.4-1.6c-1.2,0-1.5,0.4-1.5,0.9c0,0.7,0.9,0.8,2.9,1.1 c2.6,0.4,4.3,1.1,4.3,3.3c0,2.2-1.7,3.7-4.7,3.7c-2.8,0-4.7-0.8-6-2.2L199.3,63.2z"></path> </g> <rect x="39" y="81.3" class="st4" width="178.3" height="32.5"></rect> <g> <path class="st3" d="M104.3,101.6c1.8,0,3.1-0.9,3.5-2.9h-4.1v-2.5h7.8v8.3h-3.6v-3.6c-0.8,2.3-2.5,3.8-5,3.8 c-4.4,0-6.3-3.4-6.3-7.2c0-4.6,2.9-8.1,7.9-8.1c3.6,0,5.6,1.4,7.1,3.6l-3.7,2c-0.7-1.5-1.7-2.3-3.5-2.3c-2.2,0-3.8,1.6-3.8,4.4 C100.7,100,101.9,101.6,104.3,101.6z"></path> <path class="st3" d="M119.5,104.7c-4.1,0-6.1-2.5-6.1-5.8c0-3.3,2.3-6,6.2-6c4,0,5.9,2.7,5.9,5.6v1.1h-8.5c0.2,1.5,1.1,2.3,2.7,2.3 c1.2,0,1.9-0.4,2.4-1.5l3.2,1.2C124.2,103.4,122.4,104.7,119.5,104.7z M116.9,97.8h4.9c-0.1-1.3-0.8-2.2-2.3-2.2 C118.1,95.6,117.2,96.3,116.9,97.8z"></path> <path class="st3" d="M127.4,93.1h3.7v2.6c0.7-2,2.1-2.9,3.9-2.9c2.5,0,4,1.7,4,4.5v7.2h-3.7v-6.1c0-1.8-0.6-2.7-2-2.7 c-1.4,0-2.2,1.1-2.2,3.2v5.5h-3.7V93.1z"></path> <path class="st3" d="M150.5,96.8l-4.8-7.1h4.2l2.9,4.4l2.8-4.4h4.2l-4.9,7.1l5.2,7.7H156l-3.3-5l-3.2,5h-4.2L150.5,96.8z"></path> </g> <rect x="39" y="118.4" class="st1" width="178.3" height="32.5"></rect> <g> <path class="st3" d="M87.9,126.7v14.9h-3.7v-10.3l0.1-2l-0.4,2.1l-3,10.2h-3.3l-2.9-10.2l-0.5-2.1l0.1,2v10.3h-3.7v-14.9h5.5l3,11 l0.1,0.9l0.2-0.9l3.1-11H87.9z"></path> <path class="st3" d="M92.4,124.4c1.4,0,2.2,0.9,2.2,2.3c0,1.3-0.8,2.2-2.2,2.2c-1.5,0-2.3-0.9-2.3-2.2 C90.2,125.4,91,124.4,92.4,124.4z M94.2,141.6h-3.7v-11.4h3.7V141.6z"></path> <path class="st3" d="M100.4,141.6h-3.7v-16.2h3.7V141.6z"></path> <path class="st3" d="M106.6,141.6h-3.7v-16.2h3.7V141.6z"></path> <path class="st3" d="M114.7,141.8c-4.1,0-6.1-2.5-6.1-5.8c0-3.3,2.3-6,6.2-6c4,0,5.9,2.7,5.9,5.6v1.1h-8.5c0.2,1.5,1.1,2.3,2.7,2.3 c1.2,0,1.9-0.4,2.4-1.5l3.2,1.2C119.4,140.5,117.6,141.8,114.7,141.8z M112.1,134.8h4.9c-0.1-1.3-0.8-2.2-2.3-2.2 C113.3,132.6,112.4,133.4,112.1,134.8z"></path> <path class="st3" d="M122.6,130.2h3.7v2.6c0.7-2,2.1-2.9,3.9-2.9c2.5,0,4,1.7,4,4.5v7.2h-3.7v-6.1c0-1.8-0.6-2.7-2-2.7 c-1.4,0-2.2,1.1-2.2,3.2v5.5h-3.7V130.2z"></path> <path class="st3" d="M136.6,130.2h3.7v2.6c0.7-2,2.1-2.9,3.9-2.9c2.5,0,4,1.7,4,4.5v7.2h-3.7v-6.1c0-1.8-0.6-2.7-2-2.7 c-1.4,0-2.2,1.1-2.2,3.2v5.5h-3.7V130.2z"></path> <path class="st3" d="M152.6,124.4c1.4,0,2.2,0.9,2.2,2.3c0,1.3-0.8,2.2-2.2,2.2c-1.5,0-2.3-0.9-2.3-2.2 C150.3,125.4,151.1,124.4,152.6,124.4z M154.4,141.6h-3.7v-11.4h3.7V141.6z"></path> <path class="st3" d="M156.2,139c0-1.4,0.6-2.1,1.5-2.6c0.9-0.6,2.1-0.9,4.3-1.3c1.7-0.4,2-0.7,2-1.2c0-0.7-0.5-1.1-1.8-1.1 c-1.3,0-2.2,0.7-2.7,2l-3.1-1.2c1.1-2.3,3.2-3.5,5.9-3.5c3.3,0,5.1,1.5,5.1,4.3v3.5c0,1,0.3,1.4,1,1.4c0.3,0,0.5-0.1,0.8-0.1v2.2 c-0.4,0.3-1.2,0.6-2.2,0.6c-1.9,0-2.9-0.8-3-2.7c-0.7,1.7-2.3,2.7-4.2,2.7C157.6,141.8,156.2,140.7,156.2,139z M164.1,136.4v-0.5 c-0.3,0.3-0.8,0.5-1.8,0.7c-1.7,0.4-2.4,0.8-2.4,1.5c0,0.7,0.5,1.1,1.5,1.1C163.2,139.3,164.1,137.7,164.1,136.4z"></path> <path class="st3" d="M174.4,141.6h-3.7v-16.2h3.7V141.6z"></path> <path class="st3" d="M178.3,137.3c1,1.1,2.1,1.6,3.5,1.6c1.1,0,1.6-0.4,1.6-1c0-0.7-1.1-0.8-3.4-1.2c-2.3-0.4-3.7-1.1-3.7-3.2 s1.7-3.7,4.8-3.7c2.4,0,4.3,0.6,5.7,2.2l-2.5,2.2c-0.8-1.1-2-1.6-3.4-1.6c-1.2,0-1.5,0.4-1.5,0.9c0,0.7,0.9,0.8,2.9,1.1 c2.6,0.4,4.3,1.1,4.3,3.3c0,2.2-1.7,3.7-4.7,3.7c-2.8,0-4.7-0.8-6-2.2L178.3,137.3z"></path> </g> <rect x="39" y="155.6" class="st5" width="178.3" height="32.5"></rect> <g> <path class="st3" d="M105.1,175.7c1.8,0,3.1-0.9,3.5-2.9h-4.1v-2.5h7.8v8.3h-3.6V175c-0.8,2.3-2.5,3.8-5,3.8 c-4.4,0-6.3-3.4-6.3-7.2c0-4.6,2.9-8.1,7.9-8.1c3.6,0,5.6,1.4,7.1,3.6l-3.7,2c-0.7-1.5-1.7-2.3-3.5-2.3c-2.2,0-3.8,1.6-3.8,4.4 C101.5,174.1,102.8,175.7,105.1,175.7z"></path> <path class="st3" d="M120.3,178.8c-4.1,0-6.1-2.5-6.1-5.8c0-3.3,2.3-6,6.2-6c4,0,5.9,2.7,5.9,5.6v1.1h-8.5c0.2,1.5,1.1,2.3,2.7,2.3 c1.2,0,1.9-0.4,2.4-1.5l3.2,1.2C125,177.6,123.2,178.8,120.3,178.8z M117.8,171.9h4.9c-0.1-1.3-0.8-2.2-2.3-2.2 C118.9,169.7,118,170.5,117.8,171.9z"></path> <path class="st3" d="M128.2,167.2h3.7v2.6c0.7-2,2.1-2.9,3.9-2.9c2.5,0,4,1.7,4,4.5v7.2h-3.7v-6.1c0-1.8-0.6-2.7-2-2.7 c-1.4,0-2.2,1.1-2.2,3.2v5.5h-3.7V167.2z"></path> <path class="st3" d="M154,167.9l1.1-0.9h-8v-3.3h11.6v3.3l-6.8,7l-1.4,1.2h8.4v3.4h-12v-3.3L154,167.9z"></path> </g> <g> <defs> <rect id="SVGID_1_" x="223.6" width="524.4" height="499.5"></rect> </defs> <clipPath id="SVGID_00000179647713026164673640000009640317988805895607_"> <use xlink:href="#SVGID_1_" style="overflow:visible;"></use> </clipPath> <path style="clip-path:url(#SVGID_00000179647713026164673640000009640317988805895607_);fill-rule:evenodd;clip-rule:evenodd;fill:#00A7B5;" d=" M487,48c24.6,0,48.9,4.5,71.9,13.2L523,156c-11.5-4.4-23.7-6.6-35.9-6.6L487,48z"></path> <path style="opacity:0.302;clip-path:url(#SVGID_00000179647713026164673640000009640317988805895607_);fill:none;stroke:#FFFFFF;stroke-width:0.75;stroke-linejoin:round;stroke-miterlimit:10;" d=" M487,48c24.6,0,48.9,4.5,71.9,13.2L523,156c-11.5-4.4-23.7-6.6-35.9-6.6L487,48z"></path> </g> <g> <defs> <rect id="SVGID_00000114031669405396580880000014371133003052800152_" x="223.6" width="524.4" height="499.5"></rect> </defs> <clipPath id="SVGID_00000130635758624208838550000003595604504760152455_"> <use xlink:href="#SVGID_00000114031669405396580880000014371133003052800152_" style="overflow:visible;"></use> </clipPath> <path style="clip-path:url(#SVGID_00000130635758624208838550000003595604504760152455_);fill-rule:evenodd;clip-rule:evenodd;fill:#9000E8;" d=" M558.9,61.2c104.7,39.7,157.4,156.7,117.7,261.4c-17.2,45.5-50.2,83.2-93,106.4l-48.3-89.1c49.2-26.7,67.5-88.2,40.8-137.4 c-11.6-21.4-30.5-37.9-53.2-46.5L558.9,61.2z"></path> <path style="opacity:0.302;clip-path:url(#SVGID_00000130635758624208838550000003595604504760152455_);fill:none;stroke:#FFFFFF;stroke-width:0.75;stroke-linejoin:round;stroke-miterlimit:10;" d=" M558.9,61.2c104.7,39.7,157.4,156.7,117.7,261.4c-17.2,45.5-50.2,83.2-93,106.4l-48.3-89.1c49.2-26.7,67.5-88.2,40.8-137.4 c-11.6-21.4-30.5-37.9-53.2-46.5L558.9,61.2z"></path> </g> <g> <defs> <rect id="SVGID_00000084499136878763764880000014066095029299476352_" x="223.6" width="524.4" height="499.5"></rect> </defs> <clipPath id="SVGID_00000121245502926694234820000006475134609483298988_"> <use xlink:href="#SVGID_00000084499136878763764880000014066095029299476352_" style="overflow:visible;"></use> </clipPath> <path style="clip-path:url(#SVGID_00000121245502926694234820000006475134609483298988_);fill-rule:evenodd;clip-rule:evenodd;fill:#04006C;" d=" M583.6,429c-98.4,53.3-221.5,16.8-274.8-81.6S292,125.9,390.4,72.5c8.1-4.4,16.5-8.2,25.1-11.5l35.7,94.9 c-52.4,19.7-78.9,78.2-59.1,130.6c19.7,52.4,78.2,78.9,130.6,59.1c4.3-1.6,8.5-3.5,12.6-5.7L583.6,429z"></path> <path style="opacity:0.302;clip-path:url(#SVGID_00000121245502926694234820000006475134609483298988_);fill:none;stroke:#FFFFFF;stroke-width:0.75;stroke-linejoin:round;stroke-miterlimit:10;" d=" M583.6,429c-98.4,53.3-221.5,16.8-274.8-81.6S292,125.9,390.4,72.5c8.1-4.4,16.5-8.2,25.1-11.5l35.7,94.9 c-52.4,19.7-78.9,78.2-59.1,130.6c19.7,52.4,78.2,78.9,130.6,59.1c4.3-1.6,8.5-3.5,12.6-5.7L583.6,429z"></path> </g> <g> <defs> <rect id="SVGID_00000000189694975194885950000005164402156367007381_" x="223.6" width="524.4" height="499.5"></rect> </defs> <clipPath id="SVGID_00000102518651120943374850000012651465405398792871_"> <use xlink:href="#SVGID_00000000189694975194885950000005164402156367007381_" style="overflow:visible;"></use> </clipPath> <path style="clip-path:url(#SVGID_00000102518651120943374850000012651465405398792871_);fill-rule:evenodd;clip-rule:evenodd;fill:#FD5911;" d=" M415.6,61c22.8-8.6,47-13,71.4-13l0,101.4c-12.2,0-24.3,2.2-35.7,6.5L415.6,61z"></path> <path style="opacity:0.302;clip-path:url(#SVGID_00000102518651120943374850000012651465405398792871_);fill:none;stroke:#FFFFFF;stroke-width:0.75;stroke-linejoin:round;stroke-miterlimit:10;" d=" M415.6,61c22.8-8.6,47-13,71.4-13l0,101.4c-12.2,0-24.3,2.2-35.7,6.5L415.6,61z"></path> </g> <g> <defs> <rect id="SVGID_00000109026383791048686790000015631649535095342229_" x="286.8" y="69.9" width="461.1" height="48.2"></rect> </defs> <clipPath id="SVGID_00000132069981447492541580000010279787534652602016_"> <use xlink:href="#SVGID_00000109026383791048686790000015631649535095342229_" style="overflow:visible;"></use> </clipPath> <g style="clip-path:url(#SVGID_00000132069981447492541580000010279787534652602016_);"> <path class="st3" d="M511.4,107.6c-4.5,0-7.1-1.7-8.5-4.1l5.1-3c0.6,1.5,1.7,2.5,3.4,2.5c2,0,3.1-1.2,3.1-3.2 c0-2.1-1.3-3.2-3.1-3.2c-1.6,0-2.6,0.9-3.3,2l-4.7-0.7l1.1-11.8h14.4v4.7h-10.1l-0.6,5.3c1.1-1.8,2.9-2.9,5.5-2.9 c3.7,0,6.1,2.3,6.1,6.7C519.9,104.5,516.7,107.6,511.4,107.6z"></path> <path class="st3" d="M522.1,104.4c0-2,1.4-3.3,3.4-3.3c2,0,3.4,1.3,3.4,3.3c0,1.9-1.4,3.3-3.4,3.3 C523.5,107.6,522.1,106.3,522.1,104.4z"></path> <path class="st3" d="M540,107.6c-5.9,0-9.2-2-9.2-5.8c0-2.9,2.1-4.9,5.3-5.6c-2.6-0.5-4.5-1.9-4.5-4.7c0-3.3,3.3-5.7,8.5-5.7 c5,0,8.4,2.3,8.4,5.5c0,2.7-1.8,4.2-4.4,4.8c3.1,0.6,5.1,2.6,5.1,5.4C549.1,105.2,545.5,107.6,540,107.6z M543.7,100.3 c0-1.6-1.2-2.7-3.7-2.7c-2.4,0-3.7,1.2-3.7,2.8c0,1.5,1.1,2.7,3.7,2.7C542.6,103.1,543.7,101.9,543.7,100.3z M543.3,92.5 c0-1.5-1.1-2.5-3.3-2.5c-2.2,0-3.4,1.1-3.4,2.6c0,1.5,1.1,2.5,3.3,2.5C542.3,95,543.3,94,543.3,92.5z"></path> <path class="st3" d="M556.5,96.9c-3.2,0-5.4-2.2-5.4-5.6c0-3.3,2.2-5.5,5.4-5.5s5.4,2.2,5.4,5.5C561.8,94.6,559.6,96.9,556.5,96.9 z M551.5,104.7l8.6-7.2l1.2,1.1l-5.8,9.6L551.5,104.7z M556.5,93.7c1,0,1.6-0.9,1.6-2.4c0-1.5-0.6-2.4-1.6-2.4 c-1,0-1.7,0.8-1.7,2.4C554.8,92.8,555.4,93.7,556.5,93.7z M567.5,107.6c-3.2,0-5.4-2.3-5.4-5.7c0-3.3,2.2-5.5,5.4-5.5 c3.2,0,5.4,2.2,5.4,5.5C572.9,105.3,570.7,107.6,567.5,107.6z M572.4,88.8l-8.8,7.1l-1.3-1.1l6-9.6L572.4,88.8z M567.5,104.4 c1,0,1.6-0.9,1.6-2.5c0-1.5-0.6-2.3-1.6-2.3c-1.1,0-1.7,0.8-1.7,2.3C565.8,103.5,566.4,104.4,567.5,104.4z"></path> </g> </g> <g> <defs> <rect id="SVGID_00000029723822164012968630000003465921978135846560_" x="298.7" y="301" width="449.2" height="48.6"></rect> </defs> <clipPath id="SVGID_00000119107800565902461720000008371999335211396510_"> <use xlink:href="#SVGID_00000029723822164012968630000003465921978135846560_" style="overflow:visible;"></use> </clipPath> <g style="clip-path:url(#SVGID_00000119107800565902461720000008371999335211396510_);"> <path class="st3" d="M577.5,331.3c0.9,1.8,2.5,2.8,4.6,2.8c2.3,0,3.3-1,3.3-2.5c0-1.6-1.3-2.2-3.8-2.2h-2.8v-3.5h2.5 c2.2,0,3.6-0.7,3.6-2.2c0-1.6-1.1-2.4-3.1-2.4c-1.9,0-3.3,1-4.2,3.1l-4.5-2.4c2-3.3,5.1-5,9.2-5c4.7,0,7.7,2,7.7,5.5 c0,2.8-2,4.4-4.9,5c3.4,0.5,5.4,2,5.4,5.1c0,3.6-3,6.2-8.2,6.2c-4.3,0-7.5-1.5-9.3-4.6L577.5,331.3z"></path> <path class="st3" d="M610.7,320.1l-4.4,3.3c-1-1.4-1.9-2-3.7-2c-2.6,0-4.3,1.9-4.4,6.4c1.3-2.1,3.2-3.2,5.8-3.2 c3.9,0,6.6,2.3,6.6,6.6c0,4.1-2.9,7.6-8.5,7.6c-6.7,0-9.4-4.8-9.4-10.4c0-7.5,4.2-11.5,10-11.5C606.8,316.8,609,318,610.7,320.1z M598.5,330.6c0.5,2.3,1.6,3.4,3.7,3.4c2.2,0,3.3-1.3,3.3-3.3c0-2.1-1.5-2.9-3.2-2.9C600.5,327.9,599.1,328.9,598.5,330.6z"></path> <path class="st3" d="M612.8,335.4c0-2,1.4-3.3,3.4-3.3c2,0,3.4,1.3,3.4,3.3c0,1.9-1.4,3.3-3.4,3.3 C614.1,338.7,612.8,337.4,612.8,335.4z"></path> <path class="st3" d="M625.6,331.3c0.9,1.8,2.5,2.8,4.6,2.8c2.3,0,3.3-1,3.3-2.5c0-1.6-1.3-2.2-3.8-2.2H627v-3.5h2.5 c2.2,0,3.6-0.7,3.6-2.2c0-1.6-1.1-2.4-3.1-2.4c-1.9,0-3.3,1-4.2,3.1l-4.5-2.4c2-3.3,5.1-5,9.2-5c4.7,0,7.7,2,7.7,5.5 c0,2.8-2,4.4-4.9,5c3.4,0.5,5.4,2,5.4,5.1c0,3.6-3,6.2-8.2,6.2c-4.3,0-7.5-1.5-9.3-4.6L625.6,331.3z"></path> <path class="st3" d="M646.4,327.9c-3.2,0-5.4-2.2-5.4-5.6c0-3.3,2.2-5.5,5.4-5.5s5.4,2.2,5.4,5.5 C651.7,325.7,649.5,327.9,646.4,327.9z M641.4,335.8l8.6-7.2l1.2,1.1l-5.8,9.6L641.4,335.8z M646.4,324.8c1,0,1.6-0.9,1.6-2.4 c0-1.5-0.6-2.4-1.6-2.4c-1,0-1.7,0.8-1.7,2.4C644.7,323.9,645.3,324.8,646.4,324.8z M657.4,338.6c-3.2,0-5.4-2.3-5.4-5.7 c0-3.3,2.2-5.5,5.4-5.5c3.2,0,5.4,2.2,5.4,5.5C662.8,336.3,660.6,338.6,657.4,338.6z M662.3,319.9l-8.8,7.1l-1.3-1.1l6-9.6 L662.3,319.9z M657.4,335.5c1,0,1.6-0.9,1.6-2.5c0-1.5-0.6-2.3-1.6-2.3c-1.1,0-1.7,0.8-1.7,2.3 C655.8,334.6,656.4,335.5,657.4,335.5z"></path> </g> </g> <g> <defs> <rect id="SVGID_00000050638934890902897440000010271717620474655108_" x="223.6" y="310.1" width="452.3" height="48.2"></rect> </defs> <clipPath id="SVGID_00000020378068813762188790000006493464267142796964_"> <use xlink:href="#SVGID_00000050638934890902897440000010271717620474655108_" style="overflow:visible;"></use> </clipPath> <g style="clip-path:url(#SVGID_00000020378068813762188790000006493464267142796964_);"> <path class="st3" d="M330.4,347.8c-4.5,0-7.1-1.7-8.5-4.1l5.1-3c0.6,1.5,1.7,2.5,3.4,2.5c2,0,3.1-1.2,3.1-3.2 c0-2.1-1.3-3.2-3.1-3.2c-1.6,0-2.6,0.9-3.3,2l-4.7-0.7l1.1-11.8h14.4v4.7h-10.1l-0.6,5.3c1.1-1.8,2.9-2.9,5.5-2.9 c3.7,0,6.1,2.3,6.1,6.7C338.9,344.6,335.7,347.8,330.4,347.8z"></path> <path class="st3" d="M356.9,332.2c0,4.4-4,6.8-11.4,10.3h11.6v4.9h-16.3v-4.7c9.1-5.6,10.8-7.6,10.8-9.8c0-1.7-1-2.7-2.7-2.7 c-1.9,0-3.1,1.2-3.6,4l-5.1-1.6c1.2-4.3,4.3-6.7,8.9-6.7C354.4,325.9,356.9,328.8,356.9,332.2z"></path> <path class="st3" d="M359.4,344.5c0-2,1.4-3.3,3.3-3.3c2,0,3.4,1.3,3.4,3.3c0,1.9-1.4,3.3-3.4,3.3 C360.7,347.8,359.4,346.5,359.4,344.5z"></path> <path class="st3" d="M384.5,332.2c0,4.4-4,6.8-11.4,10.3h11.6v4.9h-16.3v-4.7c9.1-5.6,10.8-7.6,10.8-9.8c0-1.7-1-2.7-2.7-2.7 c-1.9,0-3.1,1.2-3.6,4l-5.1-1.6c1.2-4.3,4.3-6.7,8.9-6.7C382,325.9,384.5,328.8,384.5,332.2z"></path> <path class="st3" d="M392.3,337c-3.2,0-5.4-2.2-5.4-5.6c0-3.3,2.2-5.5,5.4-5.5s5.4,2.2,5.4,5.5C397.7,334.7,395.5,337,392.3,337z M387.3,344.9l8.6-7.2l1.2,1.1l-5.8,9.6L387.3,344.9z M392.3,333.9c1,0,1.6-0.9,1.6-2.4c0-1.5-0.6-2.4-1.6-2.4 c-1,0-1.7,0.8-1.7,2.4C390.6,333,391.3,333.9,392.3,333.9z M403.3,347.7c-3.2,0-5.4-2.3-5.4-5.7c0-3.3,2.2-5.5,5.4-5.5 c3.2,0,5.4,2.2,5.4,5.5C408.7,345.4,406.5,347.7,403.3,347.7z M408.3,329l-8.8,7.1l-1.3-1.1l6-9.6L408.3,329z M403.3,344.6 c1,0,1.6-0.9,1.6-2.5c0-1.5-0.6-2.3-1.6-2.3c-1.1,0-1.7,0.8-1.7,2.3C401.7,343.7,402.3,344.6,403.3,344.6z"></path> </g> </g> <g> <defs> <rect id="SVGID_00000181046576294236319900000017795738661953259942_" x="223.6" y="70.3" width="464.9" height="48.2"></rect> </defs> <clipPath id="SVGID_00000135673027120331427390000017767427624854006419_"> <use xlink:href="#SVGID_00000181046576294236319900000017795738661953259942_" style="overflow:visible;"></use> </clipPath> <g style="clip-path:url(#SVGID_00000135673027120331427390000017767427624854006419_);"> <path class="st3" d="M420.2,108c-4.5,0-7.1-1.7-8.5-4.1l5.1-3c0.6,1.5,1.7,2.5,3.4,2.5c2,0,3.1-1.2,3.1-3.2c0-2.1-1.3-3.2-3.1-3.2 c-1.6,0-2.6,0.9-3.3,2l-4.7-0.7l1.1-11.8h14.4v4.7h-10.1l-0.6,5.3c1.1-1.8,2.9-2.9,5.5-2.9c3.7,0,6.1,2.3,6.1,6.7 C428.6,104.8,425.4,108,420.2,108z"></path> <path class="st3" d="M430.9,104.7c0-2,1.4-3.3,3.3-3.3c2,0,3.4,1.3,3.4,3.3c0,1.9-1.4,3.3-3.4,3.3 C432.2,108,430.9,106.6,430.9,104.7z"></path> <path class="st3" d="M450,91.1h-10.3v-4.7h15.7v4.4l-8.2,16.8h-5.9L450,91.1z"></path> <path class="st3" d="M462.8,97.2c-3.2,0-5.4-2.2-5.4-5.6c0-3.3,2.2-5.5,5.4-5.5s5.4,2.2,5.4,5.5C468.1,94.9,466,97.2,462.8,97.2z M457.8,105l8.6-7.2l1.2,1.1l-5.8,9.6L457.8,105z M462.8,94.1c1,0,1.6-0.9,1.6-2.4c0-1.5-0.6-2.4-1.6-2.4c-1,0-1.7,0.8-1.7,2.4 C461.1,93.2,461.7,94.1,462.8,94.1z M473.8,107.9c-3.2,0-5.4-2.3-5.4-5.7c0-3.3,2.2-5.5,5.4-5.5c3.2,0,5.4,2.2,5.4,5.5 C479.2,105.6,477,107.9,473.8,107.9z M478.7,89.2l-8.8,7.1l-1.3-1.1l6-9.6L478.7,89.2z M473.8,104.8c1,0,1.6-0.9,1.6-2.5 c0-1.5-0.6-2.3-1.6-2.3c-1.1,0-1.7,0.8-1.7,2.3C472.2,103.9,472.8,104.8,473.8,104.8z"></path> </g> </g> <g> <path class="st1" d="M243.4,487.1h2v13.1h7.9v1.8h-9.9V487.1z"></path> <path class="st1" d="M261,502.2c-3.9,0-5.9-2.5-5.9-5.8c0-3.3,2.2-6,5.8-6c3.6,0,5.3,2.6,5.3,5.8v0.6H257c0.2,2.3,1.5,3.8,3.9,3.8 c1.7,0,2.7-0.8,3.4-1.9l1.7,0.9C265.1,501,263.6,502.2,261,502.2z M257.1,495.5h7.2c-0.1-2.1-1.2-3.5-3.4-3.5 C258.7,492,257.3,493.4,257.1,495.5z"></path> <path class="st1" d="M267.9,499.4c0-1.3,0.6-2.1,1.5-2.6c0.8-0.5,1.9-0.8,3.5-1.1c2.2-0.5,3.2-0.8,3.2-1.8c0-1-0.7-1.9-2.6-1.9 c-1.9,0-2.9,0.9-3.5,2.5l-1.8-0.6c1-2.3,2.8-3.5,5.4-3.5c2.8,0,4.4,1.4,4.4,3.9v4.7c0,1.3,0.4,1.7,1.2,1.7c0.3,0,0.6-0.1,0.8-0.1 v1.4c-0.3,0.2-0.9,0.3-1.4,0.3c-1.7,0-2.4-0.8-2.4-2.7v-0.6c-0.7,2.1-2.6,3.3-4.7,3.3C269.1,502.2,267.9,501,267.9,499.4z M276.3,496.4v-0.9c-0.4,0.6-1.3,0.9-3.1,1.3c-2.1,0.5-3.3,0.9-3.3,2.3c0,1,0.8,1.6,2.3,1.6C274.2,500.7,276.3,499,276.3,496.4z"></path> <path class="st1" d="M286.6,490.4c2,0,3.3,0.9,4.1,2.6v-7.3h2V502h-2v-2.6c-0.8,1.8-2.4,2.8-4.3,2.8c-2.7,0-5.1-1.9-5.1-5.8 C281.4,492.4,283.9,490.4,286.6,490.4z M290.8,496.3c0-2.4-1.2-4.2-3.8-4.2c-2.2,0-3.7,1.7-3.7,4.3c0,2.7,1.4,4.2,3.7,4.2 C289.6,500.5,290.8,498.6,290.8,496.3z"></path> <path class="st1" d="M301.1,502.2c-3.9,0-5.9-2.5-5.9-5.8c0-3.3,2.2-6,5.8-6c3.6,0,5.3,2.6,5.3,5.8v0.6h-9.2 c0.2,2.3,1.5,3.8,3.9,3.8c1.7,0,2.7-0.8,3.4-1.9l1.7,0.9C305.2,501,303.6,502.2,301.1,502.2z M297.2,495.5h7.2 c-0.1-2.1-1.2-3.5-3.4-3.5C298.7,492,297.4,493.4,297.2,495.5z"></path> <path class="st1" d="M316.2,491l-0.6,1.8c-0.6-0.4-1.2-0.6-2-0.6c-1.6,0-2.8,1.3-2.8,4.2v5.6h-2v-11.4h2v2.9 c0.5-2.1,1.7-3.1,3.4-3.1C315,490.4,315.7,490.6,316.2,491z"></path> <path class="st1" d="M318.6,498.5c0.9,1.3,2.2,2,4,2c1.9,0,2.6-1,2.6-1.9c0-1.3-1.6-1.5-3.9-1.9c-2.4-0.4-3.8-1.1-3.8-3 c0-2,1.7-3.5,4.4-3.5c2.4,0,4,0.8,5.2,2.4l-1.5,1.3c-0.9-1.4-2.1-2.1-3.8-2.1c-1.8,0-2.6,0.8-2.6,1.8c0,1.1,1.1,1.4,3.3,1.8 c2.5,0.4,4.4,0.9,4.4,3.1c0,1.9-1.6,3.5-4.5,3.5c-2.7,0-4.4-0.9-5.4-2.3L318.6,498.5z"></path> <path class="st1" d="M329.7,485.8h2v7.8c0.8-2.1,2.3-3.2,4.3-3.2c2.8,0,4.2,2,4.2,4.8v6.8h-2v-6.4c0-2.1-0.7-3.6-3-3.6 c-2,0-3.5,1.6-3.5,4.5v5.5h-2V485.8z"></path> <path class="st1" d="M344.2,486.1c0.9,0,1.4,0.6,1.4,1.4s-0.5,1.3-1.4,1.3c-0.9,0-1.4-0.6-1.4-1.3S343.4,486.1,344.2,486.1z M345.2,502h-2v-11.4h2V502z"></path> <path class="st1" d="M354.7,502.2c-2,0-3.5-1-4.2-2.7v7h-2v-15.8h2v2.6c0.8-1.8,2.5-2.8,4.4-2.8c2.6,0,5,1.9,5,5.8 C359.8,500,357.5,502.2,354.7,502.2z M357.8,496.2c0-2.7-1.5-4.2-3.7-4.2c-2.5,0-3.8,1.9-3.8,4.3c0,2.4,1.3,4.2,3.9,4.2 C356.4,500.5,357.8,498.9,357.8,496.2z"></path> </g> <g> <defs> <rect id="SVGID_00000002368200122482123070000004722531570241473194_" x="239.7" y="512.8" width="493.9" height="150"></rect> </defs> <clipPath id="SVGID_00000021080195325101735990000013631807607215777213_"> <use xlink:href="#SVGID_00000002368200122482123070000004722531570241473194_" style="overflow:visible;"></use> </clipPath> <rect x="240.9" y="627.5" style="clip-path:url(#SVGID_00000021080195325101735990000013631807607215777213_);fill:#FD5911;" width="3" height="32.5"></rect> <rect x="240.9" y="627.5" style="opacity:0.302;clip-path:url(#SVGID_00000021080195325101735990000013631807607215777213_);fill:none;stroke:#FFFFFF;stroke-width:0.75;stroke-linejoin:round;stroke-miterlimit:10;" width="3" height="32.5"></rect> </g> <g> <defs> <rect id="SVGID_00000006703292419855961970000016919615874662157956_" x="239.7" y="512.8" width="493.9" height="150"></rect> </defs> <clipPath id="SVGID_00000020391932696192332230000011665202953937798790_"> <use xlink:href="#SVGID_00000006703292419855961970000016919615874662157956_" style="overflow:visible;"></use> </clipPath> <path style="clip-path:url(#SVGID_00000020391932696192332230000011665202953937798790_);fill:#04006C;" d="M272.5,548.1h-31.6V516 h31.6V548.1z M341,585.5H240.9V553H341V585.5z M423.2,622.6H240.9v-32.2h182.3V622.6z M512,660H243.9v-32.5H512V660z"></path> <path style="opacity:0.302;clip-path:url(#SVGID_00000020391932696192332230000011665202953937798790_);fill:none;stroke:#FFFFFF;stroke-width:0.75;stroke-linejoin:round;stroke-miterlimit:10;" d=" M272.5,548.1h-31.6V516h31.6V548.1z M341,585.5H240.9V553H341V585.5z M423.2,622.6H240.9v-32.2h182.3V622.6z M512,660H243.9v-32.5 H512V660z"></path> </g> <g> <defs> <rect id="SVGID_00000033335772831551068340000001850284636335195060_" x="239.7" y="512.8" width="493.9" height="150"></rect> </defs> <clipPath id="SVGID_00000102541738606541434430000018031016065568143498_"> <use xlink:href="#SVGID_00000033335772831551068340000001850284636335195060_" style="overflow:visible;"></use> </clipPath> <path style="clip-path:url(#SVGID_00000102541738606541434430000018031016065568143498_);fill:#9000E8;" d="M642,548.1H272.5V516 H642V548.1z M681.5,585.5H341V553h340.5V585.5z M694.8,622.6H423.2v-32.2h271.6V622.6z M710.9,660H512v-32.5h198.9V660z"></path> <path style="opacity:0.302;clip-path:url(#SVGID_00000102541738606541434430000018031016065568143498_);fill:none;stroke:#FFFFFF;stroke-width:0.75;stroke-linejoin:round;stroke-miterlimit:10;" d=" M642,548.1H272.5V516H642V548.1z M681.5,585.5H341V553h340.5V585.5z M694.8,622.6H423.2v-32.2h271.6V622.6z M710.9,660H512v-32.5 h198.9V660z"></path> </g> <g> <defs> <rect id="SVGID_00000044891802173002745830000013745423155221331098_" x="239.7" y="512.8" width="493.9" height="150"></rect> </defs> <clipPath id="SVGID_00000025410651804159363390000017881665792977047720_"> <use xlink:href="#SVGID_00000044891802173002745830000013745423155221331098_" style="overflow:visible;"></use> </clipPath> <path style="clip-path:url(#SVGID_00000025410651804159363390000017881665792977047720_);fill:#00A7B5;" d="M733.3,548.1H642V516 h91.2V548.1z M733.3,585.5h-51.7V553h51.7V585.5z M733.3,622.6h-38.5v-32.2h38.5V622.6z M733.3,660h-22.4v-32.5h22.4V660z"></path> <path style="opacity:0.302;clip-path:url(#SVGID_00000025410651804159363390000017881665792977047720_);fill:none;stroke:#FFFFFF;stroke-width:0.75;stroke-linejoin:round;stroke-miterlimit:10;" d=" M733.3,548.1H642V516h91.2V548.1z M733.3,585.5h-51.7V553h51.7V585.5z M733.3,622.6h-38.5v-32.2h38.5V622.6z M733.3,660h-22.4 v-32.5h22.4V660z"></path> </g> <g> <defs> <rect id="SVGID_00000028303186346431840480000002446685492059976354_" x="223.6" y="627.8" width="318.5" height="31.8"></rect> </defs> <clipPath id="SVGID_00000051355060929862304960000010238575659853169595_"> <use xlink:href="#SVGID_00000028303186346431840480000002446685492059976354_" style="overflow:visible;"></use> </clipPath> <g style="clip-path:url(#SVGID_00000051355060929862304960000010238575659853169595_);"> <path class="st3" d="M361.2,652.5c-3.4,0-5.3-1.3-6.4-3.1l3.8-2.2c0.5,1.1,1.3,1.9,2.6,1.9c1.5,0,2.3-0.9,2.3-2.4 c0-1.6-1-2.4-2.3-2.4c-1.2,0-2,0.7-2.5,1.5l-3.6-0.5l0.9-8.9h10.8v3.6h-7.6l-0.4,4c0.8-1.3,2.2-2.2,4.1-2.2c2.8,0,4.6,1.7,4.6,5 C367.5,650.2,365.1,652.5,361.2,652.5z"></path> <path class="st3" d="M380.5,646.6h2.3v2.6h-2.3v3.1l-4,0v-3.2h-7.9v-2.4l6.5-10.4h4.8l0.2,0.2l-7.5,10h4v-3.2h4V646.6z"></path> <path class="st3" d="M388,644.5c-2.4,0-4-1.7-4-4.2c0-2.4,1.6-4.1,4-4.1c2.4,0,4,1.7,4,4.1C392,642.8,390.4,644.5,388,644.5z M384.3,650.3l6.5-5.4l0.9,0.8l-4.4,7.2L384.3,650.3z M388,642.1c0.8,0,1.2-0.7,1.2-1.8c0-1.1-0.4-1.8-1.2-1.8 c-0.8,0-1.2,0.6-1.2,1.8C386.7,641.4,387.2,642.1,388,642.1z M396.3,652.5c-2.4,0-4-1.7-4-4.2c0-2.4,1.6-4.1,4-4.1 c2.4,0,4,1.7,4,4.1C400.3,650.8,398.7,652.5,396.3,652.5z M400,638.4l-6.6,5.3l-0.9-0.8l4.5-7.2L400,638.4z M396.3,650.1 c0.8,0,1.2-0.7,1.2-1.9c0-1.1-0.4-1.7-1.2-1.7c-0.8,0-1.2,0.6-1.2,1.7C395,649.5,395.5,650.1,396.3,650.1z"></path> </g> </g> <g> <defs> <rect id="SVGID_00000126301547280181920350000009929846447652472760_" x="223.6" y="590.4" width="267.4" height="32.2"></rect> </defs> <clipPath id="SVGID_00000002361572316989660370000011361085075352187042_"> <use xlink:href="#SVGID_00000126301547280181920350000009929846447652472760_" style="overflow:visible;"></use> </clipPath> <g style="clip-path:url(#SVGID_00000002361572316989660370000011361085075352187042_);"> <path class="st3" d="M312.9,609.6c0.7,1.4,1.9,2.1,3.5,2.1c1.7,0,2.5-0.8,2.5-1.9c0-1.2-0.9-1.6-2.8-1.6h-2.1v-2.6h1.9 c1.6,0,2.7-0.5,2.7-1.7c0-1.2-0.8-1.8-2.3-1.8c-1.4,0-2.5,0.7-3.2,2.3l-3.4-1.8c1.5-2.5,3.8-3.8,6.9-3.8c3.5,0,5.8,1.5,5.8,4.2 c0,2.1-1.5,3.3-3.7,3.7c2.5,0.4,4,1.5,4,3.8c0,2.7-2.2,4.7-6.2,4.7c-3.2,0-5.6-1.1-7-3.5L312.9,609.6z"></path> <path class="st3" d="M331.8,602.5h-7.8v-3.5h11.8v3.3l-6.2,12.6h-4.4L331.8,602.5z"></path> <path class="st3" d="M341.4,607.1c-2.4,0-4-1.7-4-4.2c0-2.4,1.6-4.1,4-4.1c2.4,0,4,1.7,4,4.1C345.4,605.4,343.8,607.1,341.4,607.1 z M337.7,612.9l6.5-5.4l0.9,0.8l-4.4,7.2L337.7,612.9z M341.4,604.7c0.8,0,1.2-0.7,1.2-1.8c0-1.1-0.4-1.8-1.2-1.8 c-0.8,0-1.2,0.6-1.2,1.8C340.2,604,340.6,604.7,341.4,604.7z M349.7,615.1c-2.4,0-4-1.7-4-4.2c0-2.4,1.6-4.1,4-4.1 c2.4,0,4,1.7,4,4.1C353.7,613.4,352.1,615.1,349.7,615.1z M353.4,601l-6.6,5.3l-0.9-0.8l4.5-7.2L353.4,601z M349.7,612.7 c0.8,0,1.2-0.7,1.2-1.9c0-1.1-0.4-1.7-1.2-1.7c-0.8,0-1.2,0.6-1.2,1.7C348.4,612.1,348.9,612.7,349.7,612.7z"></path> </g> </g> <g> <defs> <rect id="SVGID_00000124155025487960518000000013056838116680509092_" x="223.6" y="553.4" width="234.9" height="31.8"></rect> </defs> <clipPath id="SVGID_00000179634338253388397870000011322028362083616175_"> <use xlink:href="#SVGID_00000124155025487960518000000013056838116680509092_" style="overflow:visible;"></use> </clipPath> <g style="clip-path:url(#SVGID_00000179634338253388397870000011322028362083616175_);"> <path class="st3" d="M279.9,566.4c0,3.3-3,5.1-8.6,7.8h8.7v3.7h-12.2v-3.6c6.8-4.2,8.1-5.7,8.1-7.4c0-1.3-0.7-2-2-2 c-1.4,0-2.3,0.9-2.7,3l-3.8-1.2c0.9-3.2,3.2-5,6.7-5C278,561.7,279.9,563.8,279.9,566.4z"></path> <path class="st3" d="M288.7,578.1c-4.1,0-7.1-2.7-7.1-8.3c0-5.5,3.3-8.1,7.1-8.1c3.9,0,7.1,2.6,7.1,8.1 C295.8,575.3,292.8,578.1,288.7,578.1z M288.7,574.5c1.8,0,2.9-1.1,2.9-4.7c0-3.6-1.1-4.7-2.8-4.7c-1.8,0-2.9,1.2-2.9,4.7 S286.8,574.5,288.7,574.5z"></path> <path class="st3" d="M301.6,570c-2.4,0-4-1.7-4-4.2c0-2.4,1.6-4.1,4-4.1c2.4,0,4,1.7,4,4.1C305.6,568.3,304,570,301.6,570z M297.9,575.9l6.5-5.4l0.9,0.8l-4.4,7.2L297.9,575.9z M301.6,567.6c0.8,0,1.2-0.7,1.2-1.8c0-1.1-0.4-1.8-1.2-1.8 c-0.8,0-1.2,0.6-1.2,1.8C300.4,567,300.8,567.6,301.6,567.6z M309.9,578c-2.4,0-4-1.7-4-4.2c0-2.4,1.6-4.1,4-4.1 c2.4,0,4,1.7,4,4.1C313.9,576.3,312.3,578,309.9,578z M313.6,564l-6.6,5.3l-0.9-0.8l4.5-7.2L313.6,564z M309.9,575.7 c0.8,0,1.2-0.7,1.2-1.9c0-1.1-0.4-1.7-1.2-1.7c-0.8,0-1.2,0.6-1.2,1.7C308.6,575,309.1,575.7,309.9,575.7z"></path> </g> </g> <g> <defs> <rect id="SVGID_00000173879123150247877710000007920297593391108239_" x="223.6" y="516" width="157" height="32.2"></rect> </defs> <clipPath id="SVGID_00000099662460457063284600000003570097287273182110_"> <use xlink:href="#SVGID_00000173879123150247877710000007920297593391108239_" style="overflow:visible;"></use> </clipPath> <g style="clip-path:url(#SVGID_00000099662460457063284600000003570097287273182110_);"> <path class="st3" d="M262.3,526.7l-3.3,2.5c-0.7-1-1.4-1.5-2.8-1.5c-1.9,0-3.2,1.4-3.3,4.8c0.9-1.6,2.4-2.4,4.3-2.4 c2.9,0,5,1.7,5,4.9c0,3.1-2.2,5.7-6.4,5.7c-5,0-7-3.6-7-7.8c0-5.6,3.2-8.6,7.5-8.6C259.4,524.3,261,525.2,262.3,526.7z M253.1,534.6c0.3,1.7,1.2,2.6,2.8,2.6c1.6,0,2.5-0.9,2.5-2.4c0-1.6-1.1-2.2-2.4-2.2C254.6,532.6,253.6,533.3,253.1,534.6z"></path> <path class="st3" d="M267.9,532.6c-2.4,0-4-1.7-4-4.2c0-2.4,1.6-4.1,4-4.1c2.4,0,4,1.7,4,4.1C271.9,530.9,270.2,532.6,267.9,532.6 z M264.1,538.5l6.5-5.4l0.9,0.8l-4.4,7.2L264.1,538.5z M267.9,530.2c0.8,0,1.2-0.7,1.2-1.8c0-1.1-0.4-1.8-1.2-1.8 c-0.8,0-1.2,0.6-1.2,1.8C266.6,529.6,267.1,530.2,267.9,530.2z M276.1,540.6c-2.4,0-4-1.7-4-4.2c0-2.4,1.6-4.1,4-4.1 c2.4,0,4,1.7,4,4.1C280.2,538.9,278.5,540.6,276.1,540.6z M279.8,526.6l-6.6,5.3l-0.9-0.8l4.5-7.2L279.8,526.6z M276.1,538.3 c0.8,0,1.2-0.7,1.2-1.9c0-1.1-0.4-1.7-1.2-1.7c-0.8,0-1.2,0.6-1.2,1.7C274.9,537.6,275.3,538.3,276.1,538.3z"></path> </g> </g> <g> <defs> <rect id="SVGID_00000080898723269192404160000010838556797409989543_" x="223.6" y="496.7" width="524.4" height="180.7"></rect> </defs> <clipPath id="SVGID_00000171695734167284746930000007497227776961766301_"> <use xlink:href="#SVGID_00000080898723269192404160000010838556797409989543_" style="overflow:visible;"></use> </clipPath> <g style="clip-path:url(#SVGID_00000171695734167284746930000007497227776961766301_);"> <path class="st3" d="M599.2,646.6h2.3v2.6h-2.3v3.1l-4,0v-3.2h-7.9v-2.4l6.5-10.4h4.8l0.2,0.2l-7.5,10h4v-3.2h4V646.6z"></path> <path class="st3" d="M609.6,652.5c-4.1,0-7.1-2.7-7.1-8.3c0-5.5,3.3-8.1,7.1-8.1c3.9,0,7.1,2.6,7.1,8.1 C616.7,649.7,613.7,652.5,609.6,652.5z M609.6,649c1.8,0,2.9-1.1,2.9-4.7c0-3.6-1.1-4.7-2.8-4.7c-1.8,0-2.9,1.2-2.9,4.7 S607.8,649,609.6,649z"></path> <path class="st3" d="M622.5,644.5c-2.4,0-4-1.7-4-4.2c0-2.4,1.6-4.1,4-4.1s4,1.7,4,4.1C626.5,642.8,624.9,644.5,622.5,644.5z M618.8,650.3l6.5-5.4l0.9,0.8l-4.4,7.2L618.8,650.3z M622.5,642.1c0.8,0,1.2-0.7,1.2-1.8c0-1.1-0.4-1.8-1.2-1.8 c-0.8,0-1.2,0.6-1.2,1.8C621.3,641.4,621.7,642.1,622.5,642.1z M630.8,652.5c-2.4,0-4-1.7-4-4.2c0-2.4,1.6-4.1,4-4.1 c2.4,0,4,1.7,4,4.1C634.8,650.8,633.2,652.5,630.8,652.5z M634.5,638.4l-6.6,5.3L627,643l4.5-7.2L634.5,638.4z M630.8,650.1 c0.8,0,1.2-0.7,1.2-1.9c0-1.1-0.4-1.7-1.2-1.7c-0.8,0-1.2,0.6-1.2,1.7C629.6,649.5,630,650.1,630.8,650.1z"></path> </g> </g> <g> <defs> <rect id="SVGID_00000016780069878220901290000018258665955580179883_" x="223.6" y="496.7" width="524.4" height="180.7"></rect> </defs> <clipPath id="SVGID_00000093154909603587854590000009737674628753520567_"> <use xlink:href="#SVGID_00000016780069878220901290000018258665955580179883_" style="overflow:visible;"></use> </clipPath> <g style="clip-path:url(#SVGID_00000093154909603587854590000009737674628753520567_);"> <path class="st3" d="M542.8,615.1c-3.4,0-5.3-1.3-6.4-3.1l3.8-2.2c0.5,1.1,1.3,1.9,2.6,1.9c1.5,0,2.3-0.9,2.3-2.4 c0-1.6-1-2.4-2.3-2.4c-1.2,0-2,0.7-2.5,1.5l-3.6-0.5l0.9-8.9h10.8v3.6h-7.6l-0.4,4c0.8-1.3,2.2-2.2,4.1-2.2c2.8,0,4.6,1.7,4.6,5 C549.1,612.8,546.7,615.1,542.8,615.1z"></path> <path class="st3" d="M556.6,615.1c-3.4,0-5.3-1.3-6.4-3.1l3.8-2.2c0.5,1.1,1.3,1.9,2.6,1.9c1.5,0,2.3-0.9,2.3-2.4 c0-1.6-1-2.4-2.3-2.4c-1.2,0-2,0.7-2.5,1.5l-3.6-0.5l0.9-8.9h10.8v3.6h-7.6l-0.4,4c0.8-1.3,2.2-2.2,4.1-2.2c2.8,0,4.6,1.7,4.6,5 C562.9,612.8,560.5,615.1,556.6,615.1z"></path> <path class="st3" d="M568.6,607.1c-2.4,0-4-1.7-4-4.2c0-2.4,1.6-4.1,4-4.1s4,1.7,4,4.1C572.7,605.4,571,607.1,568.6,607.1z M564.9,612.9l6.5-5.4l0.9,0.8l-4.4,7.2L564.9,612.9z M568.6,604.7c0.8,0,1.2-0.7,1.2-1.8c0-1.1-0.4-1.8-1.2-1.8 c-0.8,0-1.2,0.6-1.2,1.8C567.4,604,567.9,604.7,568.6,604.7z M576.9,615.1c-2.4,0-4-1.7-4-4.2c0-2.4,1.6-4.1,4-4.1 c2.4,0,4,1.7,4,4.1C580.9,613.4,579.3,615.1,576.9,615.1z M580.6,601l-6.6,5.3l-0.9-0.8l4.5-7.2L580.6,601z M576.9,612.7 c0.8,0,1.2-0.7,1.2-1.9c0-1.1-0.4-1.7-1.2-1.7c-0.8,0-1.2,0.6-1.2,1.7C575.7,612.1,576.1,612.7,576.9,612.7z"></path> </g> </g> <g> <defs> <rect id="SVGID_00000170259068499984943560000002816228767975580343_" x="223.6" y="496.7" width="524.4" height="180.7"></rect> </defs> <clipPath id="SVGID_00000180341992236102649410000007077012616456534446_"> <use xlink:href="#SVGID_00000170259068499984943560000002816228767975580343_" style="overflow:visible;"></use> </clipPath> <g style="clip-path:url(#SVGID_00000180341992236102649410000007077012616456534446_);"> <path class="st3" d="M501.5,564.1l-3.3,2.5c-0.7-1-1.4-1.5-2.8-1.5c-1.9,0-3.2,1.4-3.3,4.8c0.9-1.6,2.4-2.4,4.3-2.4 c2.9,0,5,1.7,5,4.9c0,3.1-2.2,5.7-6.4,5.7c-5,0-7-3.6-7-7.8c0-5.6,3.2-8.6,7.5-8.6C498.6,561.7,500.2,562.6,501.5,564.1z M492.3,572c0.3,1.7,1.2,2.6,2.8,2.6c1.6,0,2.5-0.9,2.5-2.4c0-1.6-1.1-2.2-2.4-2.2C493.8,570,492.8,570.7,492.3,572z"></path> <path class="st3" d="M502.7,575.6l3.3-2.5c0.7,1,1.4,1.5,2.8,1.5c1.9,0,3.2-1.4,3.2-4.8c-0.9,1.6-2.3,2.4-4.3,2.4 c-2.9,0-5-1.7-5-4.9c0-3.1,2.2-5.7,6.4-5.7c5,0,7,3.6,7,7.8c0,5.6-3.1,8.6-7.3,8.6C505.6,578.1,504,577.1,502.7,575.6z M509,569.8 c1.3,0,2.4-0.6,2.9-2.1c-0.3-1.8-1.2-2.6-2.7-2.6c-1.6,0-2.5,0.9-2.5,2.4S507.6,569.8,509,569.8z"></path> <path class="st3" d="M521.9,570c-2.4,0-4-1.7-4-4.2c0-2.4,1.6-4.1,4-4.1s4,1.7,4,4.1C526,568.3,524.3,570,521.9,570z M518.2,575.9 l6.5-5.4l0.9,0.8l-4.4,7.2L518.2,575.9z M521.9,567.6c0.8,0,1.2-0.7,1.2-1.8c0-1.1-0.4-1.8-1.2-1.8c-0.8,0-1.2,0.6-1.2,1.8 C520.7,567,521.1,567.6,521.9,567.6z M530.2,578c-2.4,0-4-1.7-4-4.2c0-2.4,1.6-4.1,4-4.1c2.4,0,4,1.7,4,4.1 C534.2,576.3,532.6,578,530.2,578z M533.9,564l-6.6,5.3l-0.9-0.8l4.5-7.2L533.9,564z M530.2,575.7c0.8,0,1.2-0.7,1.2-1.9 c0-1.1-0.4-1.7-1.2-1.7c-0.8,0-1.2,0.6-1.2,1.7C529,575,529.4,575.7,530.2,575.7z"></path> </g> </g> <g> <defs> <rect id="SVGID_00000039839567104557481510000006443525672086942630_" x="223.6" y="496.7" width="524.4" height="180.7"></rect> </defs> <clipPath id="SVGID_00000120550549575318525170000016619745024463689651_"> <use xlink:href="#SVGID_00000039839567104557481510000006443525672086942630_" style="overflow:visible;"></use> </clipPath> <g style="clip-path:url(#SVGID_00000120550549575318525170000016619745024463689651_);"> <path class="st3" d="M443.2,528h-7.8v-3.5h11.8v3.3l-6.2,12.6h-4.4L443.2,528z"></path> <path class="st3" d="M454.6,540.7c-3.4,0-5.3-1.3-6.4-3.1l3.8-2.2c0.5,1.1,1.3,1.9,2.6,1.9c1.5,0,2.3-0.9,2.3-2.4 c0-1.6-1-2.4-2.3-2.4c-1.2,0-2,0.7-2.5,1.5l-3.6-0.5l0.9-8.9h10.8v3.6h-7.6l-0.4,4c0.8-1.3,2.2-2.2,4.1-2.2c2.8,0,4.6,1.7,4.6,5 C460.9,538.3,458.5,540.7,454.6,540.7z"></path> <path class="st3" d="M466.6,532.6c-2.4,0-4-1.7-4-4.2c0-2.4,1.6-4.1,4-4.1c2.4,0,4,1.7,4,4.1C470.6,530.9,469,532.6,466.6,532.6z M462.9,538.5l6.5-5.4l0.9,0.8l-4.4,7.2L462.9,538.5z M466.6,530.2c0.8,0,1.2-0.7,1.2-1.8c0-1.1-0.4-1.8-1.2-1.8 c-0.8,0-1.2,0.6-1.2,1.8C465.4,529.6,465.8,530.2,466.6,530.2z M474.9,540.6c-2.4,0-4-1.7-4-4.2c0-2.4,1.6-4.1,4-4.1 c2.4,0,4,1.7,4,4.1C478.9,538.9,477.3,540.6,474.9,540.6z M478.6,526.6l-6.6,5.3l-0.9-0.8l4.5-7.2L478.6,526.6z M474.9,538.3 c0.8,0,1.2-0.7,1.2-1.9c0-1.1-0.4-1.7-1.2-1.7c-0.8,0-1.2,0.6-1.2,1.7C473.6,537.6,474.1,538.3,474.9,538.3z"></path> </g> </g> <g> <defs> <rect id="SVGID_00000071551010358897935710000003976024133517015712_" x="223.6" y="496.7" width="524.4" height="180.7"></rect> </defs> <clipPath id="SVGID_00000178166351412438699600000001025302419501397137_"> <use xlink:href="#SVGID_00000071551010358897935710000003976024133517015712_" style="overflow:visible;"></use> </clipPath> <g style="clip-path:url(#SVGID_00000178166351412438699600000001025302419501397137_);"> <path class="st3" d="M701.1,652.5c-3.4,0-5.3-1.3-6.4-3.1l3.8-2.2c0.5,1.1,1.3,1.9,2.6,1.9c1.5,0,2.3-0.9,2.3-2.4 c0-1.6-1-2.4-2.3-2.4c-1.2,0-2,0.7-2.5,1.5l-3.6-0.5l0.9-8.9h10.8v3.6h-7.6l-0.4,4c0.8-1.3,2.2-2.2,4.1-2.2c2.8,0,4.6,1.7,4.6,5 C707.4,650.2,705,652.5,701.1,652.5z"></path> <path class="st3" d="M713.1,644.5c-2.4,0-4-1.7-4-4.2c0-2.4,1.6-4.1,4-4.1s4,1.7,4,4.1C717.2,642.8,715.5,644.5,713.1,644.5z M709.4,650.3l6.5-5.4l0.9,0.8l-4.4,7.2L709.4,650.3z M713.1,642.1c0.8,0,1.2-0.7,1.2-1.8c0-1.1-0.4-1.8-1.2-1.8 c-0.8,0-1.2,0.6-1.2,1.8C711.9,641.4,712.4,642.1,713.1,642.1z M721.4,652.5c-2.4,0-4-1.7-4-4.2c0-2.4,1.6-4.1,4-4.1 c2.4,0,4,1.7,4,4.1C725.4,650.8,723.8,652.5,721.4,652.5z M725.1,638.4l-6.6,5.3l-0.9-0.8l4.5-7.2L725.1,638.4z M721.4,650.1 c0.8,0,1.2-0.7,1.2-1.9c0-1.1-0.4-1.7-1.2-1.7c-0.8,0-1.2,0.6-1.2,1.7C720.2,649.5,720.6,650.1,721.4,650.1z"></path> </g> </g> <g> <defs> <rect id="SVGID_00000008853794239193147810000012743894959298917769_" x="223.6" y="496.7" width="524.4" height="180.7"></rect> </defs> <clipPath id="SVGID_00000181788560321151760760000005327031057221856413_"> <use xlink:href="#SVGID_00000008853794239193147810000012743894959298917769_" style="overflow:visible;"></use> </clipPath> <g style="clip-path:url(#SVGID_00000181788560321151760760000005327031057221856413_);"> <path class="st3" d="M697.5,615.1c-4.4,0-6.9-1.5-6.9-4.4c0-2.2,1.6-3.7,4-4.2c-2-0.4-3.4-1.4-3.4-3.6c0-2.5,2.5-4.3,6.4-4.3 c3.8,0,6.3,1.7,6.3,4.2c0,2.1-1.4,3.2-3.3,3.6c2.3,0.5,3.8,1.9,3.8,4C704.4,613.3,701.7,615.1,697.5,615.1z M700.3,609.7 c0-1.2-0.9-2.1-2.8-2.1c-1.8,0-2.8,0.9-2.8,2.1c0,1.2,0.8,2,2.8,2C699.5,611.7,700.3,610.8,700.3,609.7z M700.1,603.8 c0-1.1-0.8-1.9-2.5-1.9c-1.6,0-2.5,0.8-2.5,1.9c0,1.1,0.8,1.9,2.5,1.9C699.3,605.7,700.1,604.9,700.1,603.8z"></path> <path class="st3" d="M709.9,607.1c-2.4,0-4-1.7-4-4.2c0-2.4,1.6-4.1,4-4.1s4,1.7,4,4.1C713.9,605.4,712.3,607.1,709.9,607.1z M706.2,612.9l6.5-5.4l0.9,0.8l-4.4,7.2L706.2,612.9z M709.9,604.7c0.8,0,1.2-0.7,1.2-1.8c0-1.1-0.4-1.8-1.2-1.8 c-0.8,0-1.2,0.6-1.2,1.8C708.6,604,709.1,604.7,709.9,604.7z M718.2,615.1c-2.4,0-4-1.7-4-4.2c0-2.4,1.6-4.1,4-4.1 c2.4,0,4,1.7,4,4.1C722.2,613.4,720.6,615.1,718.2,615.1z M721.9,601l-6.6,5.3l-0.9-0.8l4.5-7.2L721.9,601z M718.2,612.7 c0.8,0,1.2-0.7,1.2-1.9c0-1.1-0.4-1.7-1.2-1.7c-0.8,0-1.2,0.6-1.2,1.7C716.9,612.1,717.4,612.7,718.2,612.7z"></path> </g> </g> <g> <defs> <rect id="SVGID_00000109727067043740703380000002797990666247277451_" x="223.6" y="496.7" width="524.4" height="180.7"></rect> </defs> <clipPath id="SVGID_00000108292145244871358110000007833218509891442101_"> <use xlink:href="#SVGID_00000109727067043740703380000002797990666247277451_" style="overflow:visible;"></use> </clipPath> <g style="clip-path:url(#SVGID_00000108292145244871358110000007833218509891442101_);"> <path class="st3" d="M694.8,577.8h-4v-11.9c-0.6,2-1.9,3.2-3.8,3.2h-0.2v-3.9h0.1c2.8,0,4.1-1.2,4.1-3.3h3.7V577.8z"></path> <path class="st3" d="M704.6,577.8h-4v-11.9c-0.6,2-1.9,3.2-3.8,3.2h-0.2v-3.9h0.1c2.8,0,4.1-1.2,4.1-3.3h3.7V577.8z"></path> <path class="st3" d="M711,570c-2.4,0-4-1.7-4-4.2c0-2.4,1.6-4.1,4-4.1s4,1.7,4,4.1C715,568.3,713.4,570,711,570z M707.2,575.9 l6.5-5.4l0.9,0.8l-4.4,7.2L707.2,575.9z M711,567.6c0.8,0,1.2-0.7,1.2-1.8c0-1.1-0.4-1.8-1.2-1.8c-0.8,0-1.2,0.6-1.2,1.8 C709.7,567,710.2,567.6,711,567.6z M719.3,578c-2.4,0-4-1.7-4-4.2c0-2.4,1.6-4.1,4-4.1c2.4,0,4,1.7,4,4.1 C723.3,576.3,721.6,578,719.3,578z M723,564l-6.6,5.3l-0.9-0.8l4.5-7.2L723,564z M719.3,575.7c0.8,0,1.2-0.7,1.2-1.9 c0-1.1-0.4-1.7-1.2-1.7c-0.8,0-1.2,0.6-1.2,1.7C718,575,718.5,575.7,719.3,575.7z"></path> </g> </g> <g> <defs> <rect id="SVGID_00000054244788406796611320000018138043429902101671_" x="223.6" y="496.7" width="524.4" height="180.7"></rect> </defs> <clipPath id="SVGID_00000141436109380370813990000004207994529454926483_"> <use xlink:href="#SVGID_00000054244788406796611320000018138043429902101671_" style="overflow:visible;"></use> </clipPath> <g style="clip-path:url(#SVGID_00000141436109380370813990000004207994529454926483_);"> <path class="st3" d="M674.5,540.4h-4v-11.9c-0.6,2-1.9,3.2-3.8,3.2h-0.2v-3.9h0.1c2.8,0,4.1-1.2,4.1-3.3h3.7V540.4z"></path> <path class="st3" d="M676.6,538.2l3.3-2.5c0.7,1,1.4,1.5,2.8,1.5c1.9,0,3.2-1.4,3.2-4.8c-0.9,1.6-2.3,2.4-4.3,2.4 c-2.9,0-5-1.7-5-4.9c0-3.1,2.2-5.7,6.4-5.7c5,0,7,3.6,7,7.8c0,5.6-3.1,8.6-7.3,8.6C679.5,540.7,677.8,539.7,676.6,538.2z M682.8,532.4c1.3,0,2.4-0.6,2.9-2.1c-0.3-1.8-1.2-2.6-2.7-2.6c-1.6,0-2.5,0.9-2.5,2.4S681.5,532.4,682.8,532.4z"></path> <path class="st3" d="M695.8,532.6c-2.4,0-4-1.7-4-4.2c0-2.4,1.6-4.1,4-4.1s4,1.7,4,4.1C699.8,530.9,698.2,532.6,695.8,532.6z M692.1,538.5l6.5-5.4l0.9,0.8l-4.4,7.2L692.1,538.5z M695.8,530.2c0.8,0,1.2-0.7,1.2-1.8c0-1.1-0.4-1.8-1.2-1.8 c-0.8,0-1.2,0.6-1.2,1.8C694.6,529.6,695,530.2,695.8,530.2z M704.1,540.6c-2.4,0-4-1.7-4-4.2c0-2.4,1.6-4.1,4-4.1 c2.4,0,4,1.7,4,4.1C708.1,538.9,706.5,540.6,704.1,540.6z M707.8,526.6l-6.6,5.3l-0.9-0.8l4.5-7.2L707.8,526.6z M704.1,538.3 c0.8,0,1.2-0.7,1.2-1.9c0-1.1-0.4-1.7-1.2-1.7c-0.8,0-1.2,0.6-1.2,1.7C702.9,537.6,703.3,538.3,704.1,538.3z"></path> </g> </g> <g> <path class="st1" d="M453.3,229.7c0,7-6.4,10.8-18.3,16.5h18.6v7.9h-26v-7.6c14.6-9,17.3-12.2,17.3-15.7c0-2.7-1.6-4.2-4.2-4.2 c-3,0-4.9,1.9-5.7,6.3l-8.2-2.6c2-6.8,6.8-10.7,14.2-10.7C449.3,219.6,453.3,224.3,453.3,229.7z"></path> <path class="st1" d="M471.9,254.6c-8.8,0-15.1-5.8-15.1-17.7c0-11.8,6.9-17.2,15.1-17.2c8.4,0,15.2,5.5,15.2,17.2 C487.1,248.6,480.7,254.6,471.9,254.6z M471.9,247.1c3.9,0,6.1-2.4,6.1-10.1c0-7.6-2.3-10-6.1-10c-3.8,0-6.2,2.5-6.2,10 C465.8,244.4,468,247.1,471.9,247.1z"></path> <path class="st1" d="M516.3,229.7c0,7-6.4,10.8-18.3,16.5h18.6v7.9h-26v-7.6c14.6-9,17.3-12.2,17.3-15.7c0-2.7-1.6-4.2-4.2-4.2 c-3,0-4.9,1.9-5.7,6.3l-8.2-2.6c2-6.8,6.8-10.7,14.2-10.7C512.3,219.6,516.3,224.3,516.3,229.7z"></path> <path class="st1" d="M525.7,242.8c1.4,2.9,4.1,4.4,7.4,4.4c3.6,0,5.3-1.6,5.3-4c0-2.5-2-3.5-6-3.5h-4.4v-5.6h4 c3.4,0,5.8-1.1,5.8-3.6c0-2.6-1.8-3.8-4.9-3.8c-3,0-5.3,1.5-6.8,4.9l-7.3-3.9c3.2-5.3,8.1-8.1,14.7-8.1c7.5,0,12.4,3.3,12.4,8.9 c0,4.5-3.2,7-7.9,8c5.4,0.8,8.6,3.1,8.6,8.2c0,5.7-4.8,9.9-13.2,9.9c-6.8,0-11.9-2.4-14.9-7.4L525.7,242.8z"></path> </g> <g> <path class="st1" d="M414.5,279c2.3,0,3.9-1.3,4.2-4.1h-4.5v-1.3h6.2v6.7h-1.7v-1.9l0.1-1.6c-0.6,2.4-2.3,3.7-4.7,3.7 c-3.6,0-5.6-2.9-5.6-6.3c0-4.1,2.5-6.8,6.3-6.8c2.9,0,4.5,1.3,5.6,3.2l-1.5,1c-0.8-1.8-2-2.6-4.1-2.6c-2.7,0-4.5,1.9-4.5,5.2 C410.3,277,411.8,279,414.5,279z"></path> <path class="st1" d="M424.8,280.4h-1.7v-13.9h1.7V280.4z"></path> <path class="st1" d="M426.9,275.5c0-2.8,1.9-5.1,4.9-5.1c3.1,0,4.9,2.2,4.9,5.1c0,2.8-1.8,5.1-4.9,5.1 C428.6,280.5,426.9,278.3,426.9,275.5z M435,275.5c0-2.2-1.1-3.7-3.2-3.7c-2.1,0-3.2,1.6-3.2,3.7c0,2.1,1,3.6,3.2,3.6 S435,277.6,435,275.5z"></path> <path class="st1" d="M444.2,280.5c-1.7,0-3-0.9-3.6-2.3v2.2h-1.7v-13.9h1.7v6.3c0.7-1.6,2.1-2.4,3.7-2.4c2.3,0,4.3,1.6,4.3,5 C448.6,278.7,446.6,280.5,444.2,280.5z M446.9,275.4c0-2.3-1.3-3.6-3.2-3.6c-2.1,0-3.2,1.6-3.2,3.7c0,2,1.1,3.6,3.3,3.6 C445.7,279.1,446.9,277.7,446.9,275.4z"></path> <path class="st1" d="M450.1,278.1c0-1.1,0.5-1.8,1.3-2.3c0.7-0.4,1.6-0.7,3-1c1.9-0.4,2.7-0.7,2.7-1.6c0-0.8-0.6-1.6-2.3-1.6 c-1.6,0-2.5,0.8-3,2.1l-1.5-0.5c0.8-1.9,2.4-3,4.6-3c2.4,0,3.8,1.2,3.8,3.3v4c0,1.1,0.4,1.4,1.1,1.4c0.3,0,0.5-0.1,0.7-0.1v1.2 c-0.3,0.2-0.7,0.3-1.2,0.3c-1.5,0-2.1-0.7-2.1-2.3v-0.5c-0.6,1.8-2.2,2.9-4,2.9C451.1,280.5,450.1,279.5,450.1,278.1z M457.3,275.6 v-0.8c-0.3,0.5-1.1,0.8-2.6,1.1c-1.8,0.4-2.8,0.8-2.8,2c0,0.8,0.6,1.4,2,1.4C455.5,279.2,457.3,277.8,457.3,275.6z"></path> <path class="st1" d="M463.8,280.4h-1.7v-13.9h1.7V280.4z"></path> <path class="st1" d="M475.5,280.4h-1.9l-3.2-12.8h1.9l2.2,9.3l0.3,1.7l0.3-1.7l2.6-9.3h1.6l2.6,9.3l0.4,1.7l0.4-1.8l2.5-9.3h1.8 l-3.5,12.8h-2l-2.6-9.5l-0.3-1.4l-0.3,1.4L475.5,280.4z"></path> <path class="st1" d="M488.3,275.5c0-2.8,1.9-5.1,4.9-5.1c3.1,0,4.9,2.2,4.9,5.1c0,2.8-1.8,5.1-4.9,5.1 C490.1,280.5,488.3,278.3,488.3,275.5z M496.5,275.5c0-2.2-1.1-3.7-3.2-3.7c-2.1,0-3.2,1.6-3.2,3.7c0,2.1,1,3.6,3.2,3.6 S496.5,277.6,496.5,275.5z"></path> <path class="st1" d="M506.8,270.9l-0.5,1.5c-0.5-0.3-1-0.5-1.7-0.5c-1.4,0-2.4,1.1-2.4,3.6v4.8h-1.7v-9.8h1.7v2.5 c0.5-1.8,1.4-2.6,2.9-2.6C505.7,270.4,506.3,270.6,506.8,270.9z"></path> <path class="st1" d="M510.1,276.4l5.1-5.9h2l-3.9,4.4l4.1,5.4h-2l-3.4-4.7l-1.8,2v2.7h-1.7v-13.9h1.7V276.4z"></path> <path class="st1" d="M519.8,272h-2.1v-1.4h2.1v-0.9c0-2.4,1-3.3,3.1-3.3h1.4v1.4H523c-1.2,0-1.5,0.4-1.5,1.8v0.9h2.9v1.4h-2.9v8.4 h-1.6V272z"></path> <path class="st1" d="M525.7,275.5c0-2.8,1.9-5.1,4.9-5.1c3.1,0,4.9,2.2,4.9,5.1c0,2.8-1.8,5.1-4.9,5.1 C527.4,280.5,525.7,278.3,525.7,275.5z M533.9,275.5c0-2.2-1.1-3.7-3.2-3.7c-2.1,0-3.2,1.6-3.2,3.7c0,2.1,1,3.6,3.2,3.6 C532.8,279.1,533.9,277.6,533.9,275.5z"></path> <path class="st1" d="M544.1,270.9l-0.5,1.5c-0.5-0.3-1-0.5-1.7-0.5c-1.4,0-2.4,1.1-2.4,3.6v4.8h-1.7v-9.8h1.7v2.5 c0.5-1.8,1.4-2.6,2.9-2.6C543.1,270.4,543.7,270.6,544.1,270.9z"></path> <path class="st1" d="M553,274.4c-0.3-1.6-1.1-2.6-2.9-2.6c-2.1,0-3.2,1.6-3.2,3.7c0,2.1,1,3.6,3.2,3.6c1.7,0,2.6-0.9,3-2.6l1.7,0.4 c-0.5,2-2,3.6-4.7,3.6c-3.2,0-4.9-2.2-4.9-5.1c0-2.8,1.8-5.1,4.9-5.1c2.8,0,4.1,1.6,4.6,3.7L553,274.4z"></path> <path class="st1" d="M561.3,280.5c-3.4,0-5-2.2-5-5c0-2.8,1.9-5.2,5-5.2c3.1,0,4.6,2.2,4.6,5v0.5H558c0.1,2,1.3,3.2,3.4,3.2 c1.5,0,2.3-0.7,2.9-1.7l1.4,0.8C564.9,279.5,563.5,280.5,561.3,280.5z M558,274.8h6.2c-0.1-1.8-1-3-2.9-3 C559.4,271.8,558.2,273,558,274.8z"></path> </g> </svg> 