<?xml version="1.0" encoding="utf-8"?>
<!-- Generator: Adobe Illustrator 26.0.3, SVG Export Plug-In . SVG Version: 6.00 Build 0)  -->
<svg version="1.1" id="Layer_1" xmlns="http://www.w3.org/2000/svg" xmlns:xlink="http://www.w3.org/1999/xlink" x="0px" y="0px"
	 viewBox="0 0 1699 1640.6" style="enable-background:new 0 0 1699 1640.6;" xml:space="preserve">
<style type="text/css">
	.st0{fill:url(#SVGID_1_);}
	.st1{fill:url(#SVGID_00000022553659464762569340000000150160238498223496_);}
	.st2{fill:url(#SVGID_00000049219637690427624580000012391885966339889327_);}
</style>
<g>
	<g>
		<linearGradient id="SVGID_1_" gradientUnits="userSpaceOnUse" x1="29.7923" y1="820.2902" x2="1709.1879" y2="820.2902">
			<stop  offset="0" style="stop-color:#9000E8"/>
			<stop  offset="1" style="stop-color:#9000E8;stop-opacity:0"/>
		</linearGradient>
		<path class="st0" d="M1578.3,415.3v-83.1l-111-60.2v-86.9l-57-27.1C1248.4,80.8,1069.4,29.3,863,1.8L849.5,0L836,1.8
			C629.6,29.3,450.6,80.8,288.7,158l-57,27.1V272l-111.1,60.2v83.1L0,480l9.5,69c32,231.4,116.3,440.8,250.7,622.6
			c135.7,183.7,319,333.9,544.6,446.7l44.7,22.3l44.7-22.3c225.6-112.8,408.9-263,544.6-446.7c134.3-181.8,218.7-391.2,250.7-622.6
			l9.5-69L1578.3,415.3z M1590.1,535.2c-11.3,77.2-47.6,329.3-232,576.9c-187.6,254.9-434.3,378.5-508.7,416.6
			c-74.4-38-321.1-161.7-508.7-416.6c-184.4-247.5-220.7-499.7-232-576.9l112.1-60.1v-83.4l111.1-60.2v-83.3
			C485.4,175,654.7,126.8,849.4,101c194.7,25.9,364,74.1,517.6,147.3v83.3l111,60.2v83.4L1590.1,535.2z"/>
	</g>
	<g>
		
			<linearGradient id="SVGID_00000181802086044631494190000008452436999185139347_" gradientUnits="userSpaceOnUse" x1="29.7923" y1="817.9288" x2="1709.1879" y2="817.9288">
			<stop  offset="0" style="stop-color:#9000E8"/>
			<stop  offset="1" style="stop-color:#9000E8;stop-opacity:0"/>
		</linearGradient>
		<path style="fill:url(#SVGID_00000181802086044631494190000008452436999185139347_);" d="M683.4,301.5l5.2,677.8l-4.8,2.8
			c-71.8-181.4-114.5-407.7-128-634.7c-35.2,15.8-72.6,35.4-110.9,59.7c15.5,205.9,50.7,386.1,113.9,557.1L522.9,985
			c-94.8-132.8-156.8-294.3-199.3-485.9c-29.3,26.3-58.4,55.8-86.8,88.8c55.6,230,143.1,404.2,271,546.1l98.6-58.9
			c48.3,100.7,116.2,200,190.7,279.4V281.4C759.2,285.1,721.7,291.6,683.4,301.5z"/>
	</g>
	<g>
		
			<linearGradient id="SVGID_00000149346797002431923030000010118618699624002967_" gradientUnits="userSpaceOnUse" x1="29.7923" y1="817.9288" x2="1709.1879" y2="817.9288">
			<stop  offset="0" style="stop-color:#9000E8"/>
			<stop  offset="1" style="stop-color:#9000E8;stop-opacity:0"/>
		</linearGradient>
		<path style="fill:url(#SVGID_00000149346797002431923030000010118618699624002967_);" d="M1318.1,650.9
			c40.2-44.5,48.7-76.9,48.7-116c0-55.4-45.8-104.8-112.4-147.1c-40.2-25.6-101.8-56.6-191.6-81.6c-51.7-13.9-105.6-22.3-161-24.7
			v1073.1c225.5-116.1,493.7-434.3,495-596.2C1397.3,708.8,1371.2,676.5,1318.1,650.9z M1012.8,409.7c55.5,0,235.2,56.8,235.2,128.5
			c0,25.9-22.8,62.9-93.9,100.2l-141.3,75.8V409.7z M1152.7,1004.8c-31.7,36.6-83.7,92.4-140,135.9V832.8
			c0,0,203.9-114.7,211.3-119.6c61,15.5,57.9,60.3,57.9,65C1282,834.7,1224.2,922.2,1152.7,1004.8z"/>
	</g>
</g>
</svg>
