<?xml version="1.0" encoding="UTF-8"?> <svg xmlns="http://www.w3.org/2000/svg" xmlns:xlink="http://www.w3.org/1999/xlink" version="1.1" x="0px" y="0px" viewBox="0 0 600 247.9" style="enable-background:new 0 0 600 247.9;" xml:space="preserve"> <style type="text/css"> .st0{display:none;} .st1{display:inline;fill:#1E1E1E;} .st2{fill:#FFFFFF;} </style> <g id="BACKGROUND" class="st0"> <rect x="-100.8" y="-159" class="st1" width="400" height="400"></rect> </g> <g id="LOGOS"> <path class="st2" d="M0,222.5l2.3-8h42.8l-2.3,8H25.5l-7.2,25.4h-8.1l7.2-25.4H0L0,222.5z M43.2,238.4c-1.8,6.4,0.5,9.5,6.9,9.5 h23.3c6.4,0,10.6-3.2,12.4-9.5l6.8-23.9h-8L78,237.5c-0.4,1.5-1.3,2.3-2.7,2.3H52.9c-1.4,0-1.9-0.8-1.4-2.3l6.5-23.1h-8L43.2,238.4 L43.2,238.4z M101.2,229.2l1.9-6.6h24.5c1.4,0,1.9,0.8,1.4,2.3l-0.6,2c-0.4,1.5-1.3,2.3-2.7,2.3H101.2L101.2,229.2z M97.3,214.6 l-9.4,33.1h8l3-10.5h8.5c2.5,0,4.5,0.4,6,1.1c1.5,0.7,2.8,1.9,3.9,3.5l4,5.9c1.3,0,2.3,0,3,0c1.4,0,3.3,0,5.5,0c2.2,0,3.2,0,2.9,0 c-5.2-7-7.8-10.5-7.7-10.5c5.8,0,9.5-3.1,11.3-9.4l1-3.6c1.8-6.4-0.5-9.5-6.9-9.5H97.3L97.3,214.6z M178.5,214.4l-7.2,25.4h-2 c-1.7,0-2.9-2.2-3.4-6.6c-0.7-6.4-1.4-10.5-2-12.2c-1.6-4.4-4.7-6.6-9.2-6.6h-9.9l-9.5,33.5h8l7.2-25.4h1.5c2.4,0,3.9,2.2,4.4,6.6 c1,8.1,1.5,12.2,1.6,12.3c1.2,4.4,3.9,6.6,8,6.6h11l9.5-33.5H178.5L178.5,214.4z M225.7,247.8l2.3-8h-34.6l1.3-4.6h27.1l2.3-8H197 l1.3-4.5h34.6l2.3-8h-42.7l-9.4,33.2H225.7L225.7,247.8z M243.7,229.2l1.9-6.6h24.5c1.4,0,1.9,0.8,1.4,2.3l-0.6,2 c-0.4,1.5-1.3,2.3-2.7,2.3H243.7L243.7,229.2z M239.8,214.6l-9.4,33.1h8l3-10.5h8.5c2.5,0,4.5,0.4,6,1.1c1.5,0.7,2.8,1.9,3.9,3.5 l4,5.9c1.3,0,2.3,0,3,0c1.4,0,3.3,0,5.5,0c2.2,0,3.2,0,2.9,0c-5.2-7-7.8-10.5-7.7-10.5c5.8,0,9.5-3.1,11.3-9.4l1-3.6 c1.8-6.4-0.5-9.5-6.9-9.5H239.8L239.8,214.6z M340.3,236.8c1.8-6.3-0.5-9.5-6.9-9.5h-23.2c-1.4,0-1.9-0.8-1.4-2.3l0.1-0.2 c0.4-1.6,1.4-2.4,2.7-2.4h32.8l2.3-8h-33.4c-6.4,0-10.6,3.2-12.4,9.5l-0.5,1.8c-1.8,6.4,0.5,9.5,7,9.5h23.2c1.4,0,1.9,0.8,1.4,2.3 c-0.4,1.5-1.3,2.3-2.7,2.3h-32.9l-2.3,8h33.4c6.4,0,10.5-3.2,12.3-9.5L340.3,236.8L340.3,236.8z M355.3,229.2l1.9-6.6h24.5 c1.4,0,1.9,0.8,1.4,2.3l-0.6,2c-0.4,1.5-1.4,2.3-2.7,2.3H355.3L355.3,229.2z M351.4,214.6l-9.4,33.1h8.1l3-10.5h25 c6.4,0,10.6-3.2,12.4-9.5l1-3.6c1.8-6.4-0.5-9.5-7-9.5H351.4L351.4,214.6z M425.8,237.5c-0.4,1.5-1.3,2.3-2.7,2.3h-24.5l4.3-15.1 c0.4-1.6,1.4-2.4,2.7-2.4h24.5L425.8,237.5L425.8,237.5z M388.2,247.9h33.1c6.4,0,10.5-3.2,12.3-9.5l6.8-23.9h-33 c-3.4,0-6,0.8-8,2.3c-2,1.5-3.4,3.9-4.4,7.3L388.2,247.9L388.2,247.9z M449.1,229.2l1.9-6.6h24.5c1.4,0,1.9,0.8,1.4,2.3l-0.6,2 c-0.4,1.5-1.3,2.3-2.7,2.3H449.1L449.1,229.2z M445.2,214.6l-9.4,33.1h8l3-10.5h8.5c2.5,0,4.5,0.4,6,1.1c1.5,0.7,2.8,1.9,3.9,3.5 l4,5.9c1.3,0,2.3,0,3,0c1.4,0,3.3,0,5.5,0c2.2,0,3.2,0,2.9,0c-5.2-7-7.8-10.5-7.7-10.5c5.8,0,9.5-3.1,11.3-9.4l1-3.6 c1.8-6.4-0.5-9.5-6.9-9.5H445.2L445.2,214.6z M490.5,222.5h17.4l-7.2,25.4h8.1l7.2-25.4h17.4l2.3-8h-42.8L490.5,222.5L490.5,222.5z M576,236.8c1.8-6.3-0.5-9.5-6.9-9.5h-23.2c-1.4,0-1.9-0.8-1.4-2.3l0.1-0.2c0.4-1.6,1.4-2.4,2.7-2.4h32.8l2.3-8H549 c-6.4,0-10.6,3.2-12.4,9.5l-0.5,1.8c-1.8,6.4,0.5,9.5,7,9.5h23.2c1.4,0,1.9,0.8,1.4,2.3c-0.4,1.5-1.3,2.3-2.7,2.3h-32.9l-2.3,8 h33.4c6.4,0,10.5-3.2,12.3-9.5L576,236.8L576,236.8z M218.1,170.9l-9.2,28.7h73.3l8.9-28.7H218.1L218.1,170.9z M128.6,151.7 c0.1,0,0.2,0,0.3,0c11.3,0,67.9,0,73.5,0c1.1-3.4,15-43.8,28.8-85.9c-21.1-7.5-47.7-13.4-68.3-16.5 C148.6,93,130.9,144.5,128.6,151.7L128.6,151.7z M267.4,0l-9.2,28.7h71.1L338.1,0H267.4L267.4,0z M339,43.1l-9.2,28.7h71.1 l8.9-28.7H339L339,43.1z M246.5,70.3c-3.1,10.9-4.1,16.5-4.1,24.3c0,1.3,0,2.5,0.1,3.7c0.7,9.8,3.1,17.6,7.2,23 c4.3,5.8,13.9,14.9,29.3,27.9c0,0,10.1,8.1,10.1,8.1c9.6,7.5,16,12.5,18.8,21.2c1,3.1,1.4,6.5,1.4,9.7c0,4.2-0.6,8.2-1.4,11.4 c5.7,0,26.4,0,43.9,0c13.1,0,24.4,0,26.7,0C368.4,150.9,316.3,98.5,246.5,70.3L246.5,70.3z M178.4,0c-0.6,1.8-4.7,14.3-10.9,33.3 c23.6,4.4,46.8,11,67.8,18.5c9-27.5,15.6-47.5,17-51.8C241.8,0,184.1,0,178.4,0 M384.2,142c-4-12.5-19.9-28.9-48.5-50 c-10.8-7.9-16.3-14.4-17.3-20.5c-0.3-1.3-0.4-2.8-0.4-4.4c0-5.2,1.3-11.8,4.1-20.1c0-0.1,0.7-1.9,1.5-3.9 c-10.8,0-62.9-0.1-68.3-0.1c-1.2,3.3-4.3,11.6-5.6,15c75.8,33,123.2,89.4,131,135.1c1.1-3.1,2.3-6.7,3.3-10.8 c1.6-6.3,2.8-13.8,2.8-22.3C386.8,154.1,386,147.9,384.2,142L384.2,142z M92.8,0l-9.2,28.7h71.1L163.6,0H92.8L92.8,0z M585.5,216.1 h2.2v5.9h1.6v-5.9h2.2v-1.3h-5.9V216.1L585.5,216.1z M594.5,214.8h-2.2v7.2h1.5v-5.1h0l1.8,5.1h1.2l1.8-5.1h0v5.1h1.5v-7.2h-2.2 l-1.6,5h0L594.5,214.8L594.5,214.8z"></path> </g> </svg> 