<?xml version="1.0" encoding="UTF-8"?> <svg xmlns="http://www.w3.org/2000/svg" xmlns:xlink="http://www.w3.org/1999/xlink" version="1.1" id="uuid-0ab9a7db-5fbd-4435-a71b-2c9c6e2a80da" x="0px" y="0px" viewBox="0 0 1803.73 432.24" style="enable-background:new 0 0 1803.73 432.24;" xml:space="preserve"> <style type="text/css"> .st0{fill:#FFFFFF;} </style> <path class="st0" d="M271.58,424.3h-2.98v-0.93h6.97v0.93h-2.98v7.94h-1.01L271.58,424.3L271.58,424.3z"></path> <path class="st0" d="M277.45,423.37h1.01l3.23,4.84l3.23-4.84h1.01v8.87h-1v-7.18l-3.23,4.75h-0.05l-3.23-4.74v7.17h-0.97 L277.45,423.37L277.45,423.37z"></path> <path class="st0" d="M415.84,109.4V87.51l-29.26-15.85V48.77l-15.01-7.15c-42.65-20.34-89.81-33.92-144.2-41.14L223.82,0l-3.55,0.48 c-54.4,7.23-101.56,20.81-144.2,41.14l-15.01,7.15v22.89L31.79,87.51v21.89L0,126.46l2.51,18.17 c8.42,60.97,30.65,116.15,66.04,164.04c35.76,48.39,84.05,87.98,143.49,117.69l11.77,5.89l11.77-5.89 c59.45-29.71,107.73-69.3,143.49-117.69c35.39-47.89,57.62-103.07,66.04-164.04l2.51-18.17L415.84,109.4L415.84,109.4z M418.94,141.02c-2.97,20.33-12.54,86.77-61.13,151.98c-49.43,67.15-114.42,99.72-134.03,109.75 c-19.61-10.02-84.6-42.6-134.03-109.75C41.16,227.79,31.6,161.35,28.63,141.02l29.53-15.84v-21.97l29.26-15.85V65.41 c40.48-19.3,85.07-31.99,136.37-38.81c51.3,6.82,95.89,19.51,136.37,38.81v21.95l29.26,15.85v21.97L418.94,141.02L418.94,141.02z"></path> <path class="st0" d="M180.05,79.43l1.36,178.59l-1.26,0.74c-18.9-47.78-30.18-107.42-33.73-167.21 c-9.28,4.17-19.13,9.34-29.23,15.73c4.08,54.25,13.35,101.73,30.01,146.78l-9.43,5.46c-24.99-34.99-41.31-77.55-52.52-128.03 c-7.72,6.93-15.38,14.7-22.86,23.41c14.65,60.59,37.7,106.5,71.41,143.87l25.98-15.53c12.72,26.52,30.61,52.69,50.25,73.61V74.14 C200.03,75.11,190.14,76.84,180.05,79.43L180.05,79.43z"></path> <path class="st0" d="M347.28,171.5c10.59-11.72,12.84-20.25,12.84-30.57c0-14.6-12.06-27.6-29.61-38.77 c-10.6-6.75-26.82-14.92-50.48-21.51c-13.61-3.66-27.81-5.88-42.42-6.51v282.71c59.42-30.59,130.06-114.42,130.42-157.07 C368.14,186.75,361.26,178.22,347.28,171.5L347.28,171.5z M266.83,107.95c14.63,0,61.97,14.97,61.97,33.87 c0,6.81-6.01,16.58-24.74,26.41l-37.23,19.96V107.95z M303.71,264.73c-8.36,9.64-22.06,24.35-36.88,35.8v-81.12 c0,0,53.71-30.23,55.68-31.52c16.08,4.07,15.26,15.9,15.26,17.13C337.76,219.92,322.53,242.98,303.71,264.73L303.71,264.73z"></path> <path class="st0" d="M1192.81,329.81v-27.23h6.73c7.93,0,11.57,3.39,11.57,8.33C1211.11,321.36,1192.81,329.81,1192.81,329.81 M1225.23,309.7c0-13.94-12.65-19.67-28.98-19.67h-17.57v73.22h14.12v-17.53c2.23-1.65,6.44-4.27,10.47-7.04l12.13,24.57h14.85 l-16.02-33.16C1220.33,324.41,1225.23,317.57,1225.23,309.7"></path> <path class="st0" d="M1392.46,329.81v-27.23h6.73c7.93,0,11.57,3.39,11.57,8.33C1410.77,321.36,1392.46,329.81,1392.46,329.81 M1424.89,309.7c0-13.94-12.65-19.67-28.98-19.67h-17.57v73.22h14.12v-17.53c2.23-1.65,6.44-4.27,10.47-7.04l12.13,24.57h14.85 l-16.02-33.16C1419.99,324.41,1424.89,317.57,1424.89,309.7"></path> <path class="st0" d="M925.81,326.92v-24.34h8.28c7.92,0,11.57,3.39,11.57,8.33C945.67,319.9,930.04,325.45,925.81,326.92 M930.8,290.03h-19.13v73.21h14.13v-21.34c9.05-3.92,33.96-13.01,33.96-32.21C959.77,294.86,947.13,290.03,930.8,290.03"></path> <path class="st0" d="M1581.25,326.92v-24.34h8.28c7.92,0,11.57,3.39,11.57,8.33C1601.1,319.9,1585.48,325.45,1581.25,326.92 M1586.24,290.03h-19.13v73.21h14.13v-21.34c9.05-3.92,33.96-13.01,33.96-32.21C1615.21,294.86,1602.57,290.03,1586.24,290.03"></path> <path class="st0" d="M995.08,326.64c0-21.96,12.55-38.18,31.38-38.18c11.51,0,20.08,5.75,25.63,14.64l-9.73,7.84 c-2.09-4.18-7.53-9.41-15.38-9.41c-11.5,0-17.78,10.98-17.78,25.1s6.28,25.1,17.78,25.1c7.84,0,13.28-5.23,15.38-9.41l9.73,7.84 c-5.54,8.89-14.12,14.64-25.63,14.64C1007.63,364.82,995.08,348.6,995.08,326.64"></path> <polygon class="st0" points="1237.88,290.03 1280.24,290.03 1280.24,303.11 1252,303.11 1252,319.84 1273.96,319.84 1273.96,331.87 1252,331.87 1252,350.17 1281.28,350.17 1281.28,363.25 1237.88,363.25 "></polygon> <path class="st0" d="M1309.86,326.64c0-21.96,12.55-38.18,31.38-38.18c11.51,0,20.08,5.75,25.63,14.64l-9.73,7.84 c-2.09-4.18-7.53-9.41-15.37-9.41c-10.98,0-17.78,10.46-17.78,25.1s6.8,25.1,17.26,25.1c7.84,0,11.51-4.18,12.55-5.23v-12.55h-10.98 v-9.94h24.06v26.67c-2.61,4.18-10.46,14.12-25.63,14.12C1322.41,364.82,1309.86,348.6,1309.86,326.64"></path> <rect x="719.59" y="290.03" class="st0" width="14.12" height="73.21"></rect> <rect x="970.16" y="290.03" class="st0" width="14.12" height="73.21"></rect> <polygon class="st0" points="527.03,290.03 539.17,290.03 558.41,321.62 558.62,321.62 577.87,290.03 589.79,290.03 589.79,363.25 575.67,363.25 575.67,317.02 575.46,317.02 558.41,344.94 541.36,317.02 541.15,317.02 541.15,363.25 527.03,363.25 "></polygon> <polygon class="st0" points="815.66,290.03 827.48,290.03 854.88,334.48 855.41,334.48 855.41,290.03 869.53,290.03 869.53,363.25 857.71,363.25 830.3,318.79 829.78,318.79 829.78,363.25 815.66,363.25 "></polygon> <path class="st0" d="M647.85,326.64c0-14.64-6.8-25.1-17.26-25.1s-17.26,10.46-17.26,25.1s6.8,25.1,17.26,25.1 S647.85,341.28,647.85,326.64 M599.22,326.64c0-21.97,12.55-38.18,31.38-38.18c18.83,0,31.38,16.21,31.38,38.18 c0,21.96-12.55,38.18-31.38,38.18C611.77,364.82,599.22,348.6,599.22,326.64"></path> <path class="st0" d="M792.69,326.64c0-14.64-6.8-25.1-17.26-25.1s-17.26,10.46-17.26,25.1s6.8,25.1,17.26,25.1 S792.69,341.28,792.69,326.64 M744.05,326.64c0-21.97,12.55-38.18,31.38-38.18c18.83,0,31.38,16.21,31.38,38.18 c0,21.96-12.55,38.18-31.38,38.18C756.6,364.82,744.05,348.6,744.05,326.64"></path> <path class="st0" d="M1480.86,326.64c0-14.64-6.8-25.1-17.26-25.1s-17.26,10.46-17.26,25.1s6.8,25.1,17.26,25.1 S1480.86,341.28,1480.86,326.64 M1432.22,326.64c0-21.97,12.55-38.18,31.38-38.18c18.83,0,31.38,16.21,31.38,38.18 c0,21.96-12.55,38.18-31.38,38.18C1444.78,364.82,1432.22,348.6,1432.22,326.64"></path> <polygon class="st0" points="679.18,303.11 662.97,303.11 662.97,290.03 709.51,290.03 709.51,303.11 693.3,303.11 693.3,363.25 679.18,363.25 "></polygon> <polygon class="st0" points="1074.95,303.11 1058.74,303.11 1058.74,290.03 1105.29,290.03 1105.29,303.11 1089.07,303.11 1089.07,363.25 1074.95,363.25 "></polygon> <path class="st0" d="M1115,338.15v-48.11h14.12v48.11c0,7.84,4.71,13.6,11.51,13.6c6.8,0,11.5-5.75,11.5-13.6v-48.11h14.12v48.11 c0,15.17-10.98,26.67-25.62,26.67S1115,353.31,1115,338.15"></path> <path class="st0" d="M1503.92,338.15v-48.11h14.12v48.11c0,7.84,4.71,13.6,11.51,13.6c6.8,0,11.5-5.75,11.5-13.6v-48.11h14.12v48.11 c0,15.17-10.98,26.67-25.62,26.67S1503.92,353.31,1503.92,338.15"></path> <path class="st0" d="M894.95,128.48c0-27.81-25.25-39.26-57.83-39.26h-35.07v146.12h28.18v-34.99c4.44-3.3,12.85-8.53,20.9-14.05 l24.21,49.03H905l-31.97-66.18C885.17,157.84,894.95,144.18,894.95,128.48L894.95,128.48z M830.24,168.61v-54.35h13.44 c15.83,0,23.09,6.77,23.09,16.62C866.77,151.74,830.24,168.61,830.24,168.61z"></path> <path class="st0" d="M1256.97,128.48c0-27.81-25.25-39.26-57.83-39.26h-35.07v146.12h28.18v-34.99c4.44-3.3,12.85-8.53,20.9-14.05 l24.21,49.03h29.64l-31.97-66.18C1247.19,157.84,1256.97,144.18,1256.97,128.48L1256.97,128.48z M1192.26,168.61v-54.35h13.44 c15.83,0,23.09,6.77,23.09,16.62C1228.79,151.74,1192.26,168.61,1192.26,168.61z"></path> <path class="st0" d="M1535.23,128.48c0-27.81-25.25-39.26-57.83-39.26h-35.07v146.12h28.18v-34.99c4.44-3.3,12.85-8.53,20.9-14.05 l24.21,49.03h29.64l-31.97-66.18C1525.45,157.84,1535.23,144.18,1535.23,128.48L1535.23,128.48z M1470.52,168.61v-54.35h13.44 c15.83,0,23.09,6.77,23.09,16.62C1507.05,151.74,1470.52,168.61,1470.52,168.61z"></path> <polygon class="st0" points="639.62,235.34 676.35,89.22 647.97,89.22 626.05,189.41 625.22,189.41 602.05,89.22 578.67,89.22 555.29,189.41 554.45,189.41 532.95,89.22 503.94,89.22 540.68,235.34 567.4,235.34 589.94,139.31 590.57,139.31 613.11,235.34 "></polygon> <path class="st0" d="M712.99,89.22l-43.84,146.12h29.63l8.98-33.39h40.92l8.96,33.39h29.45L743.88,89.22L712.99,89.22L712.99,89.22z M712.99,180.01l14.8-57.4h0.64l15.03,57.4H712.99z"></path> <polygon class="st0" points="998.16,177.93 943.48,89.22 919.88,89.22 919.88,235.34 948.07,235.34 948.07,146.62 949.11,146.62 1003.8,235.34 1027.39,235.34 1027.39,89.22 999.21,89.22 999.21,177.93 "></polygon> <polygon class="st0" points="1143.22,209.24 1084.78,209.24 1084.78,172.71 1128.62,172.71 1128.62,148.71 1084.78,148.71 1084.78,115.31 1141.14,115.31 1141.14,89.22 1056.6,89.22 1056.6,235.34 1143.22,235.34 "></polygon> <path class="st0" d="M1606.19,238.48c37.57,0,55.16-35.56,55.16-76.18c0-40.58-17.59-76.21-55.16-76.21s-55.16,35.63-55.16,76.21 C1551.02,202.92,1568.62,238.48,1606.19,238.48z M1606.19,112.2c20.89,0,27,25.36,27,50.1c0,24.72-6.11,50.1-27,50.1 c-20.87,0-26.97-25.38-26.97-50.1C1579.22,137.56,1585.32,112.2,1606.19,112.2z"></path> <path class="st0" d="M1726.51,150.81c-11.49-7.31-23.08-12.53-23.08-25.05c0-8.35,7.42-14.61,15.77-14.61 c9.39,0,18.9,6.26,22.03,11.48l17.75-16.7c-8.35-11.48-23.07-19.83-40.82-19.83c-26.1,0-42.9,15.66-42.9,39.66 c0,26.09,18.9,37.57,34.14,46.34c11.9,6.89,23.49,12.11,23.49,24.63c0,10.44-9.5,16.7-19.95,16.7c-10.44,0-20.98-6.26-27.25-15.66 l-16.7,16.7c9.39,14.61,28.29,24.01,44.99,24.01c26.1,0,47.08-16.7,47.08-41.75C1761.06,170.64,1741.53,160.2,1726.51,150.81 L1726.51,150.81z"></path> <path class="st0" d="M1788.07,206.12c-9.39,0-15.66,7.31-15.66,15.66s6.26,15.65,15.66,15.65c9.39,0,15.65-7.31,15.65-15.65 S1797.46,206.12,1788.07,206.12z"></path> <path class="st0" d="M1400.02,149.52c7.56-8.13,12.5-17.55,12.5-28.24c0-20.92-17.86-31.79-43.49-32.06h-44.84v146.12h28.19 c45.89-1.35,69.53-19.94,69.53-48.14C1421.91,166.28,1404.3,152.55,1400.02,149.52L1400.02,149.52z M1352.37,113.62h13.69 c12.93,0,19.57,3.39,19.57,10.71c0,13.17-27.67,24.93-33.26,27.17V113.62L1352.37,113.62z M1352.37,209.45v-30.43 c9.21-3.67,19.4-8.44,28.74-14.32c4.38,2.93,14.08,10.62,14.08,21.41C1395.2,200.37,1382.14,208.87,1352.37,209.45L1352.37,209.45z"></path> </svg> 