<?xml version="1.0" encoding="utf-8"?>
<!-- Generator: Adobe Illustrator 26.0.3, SVG Export Plug-In . SVG Version: 6.00 Build 0)  -->
<svg version="1.1" id="Layer_1" xmlns="http://www.w3.org/2000/svg" xmlns:xlink="http://www.w3.org/1999/xlink" x="0px" y="0px"
	 viewBox="0 0 800 772.5" style="enable-background:new 0 0 800 772.5;" xml:space="preserve">
<style type="text/css">
	.st0{fill:#00E0FF;}
</style>
<g>
	<g>
		<g>
			<path class="st0" d="M743.2,195.5v-39.1l-52.3-28.3V87.2l-26.8-12.8C587.9,38,503.6,13.8,406.4,0.9L400,0l-6.4,0.9
				C296.4,13.8,212.1,38,135.9,74.4l-26.8,12.8v40.9l-52.3,28.3v39.1L0,226l4.5,32.5c15.1,109,54.8,207.6,118,293.2
				C186.4,638.1,272.7,708.9,379,762l21,10.5l21-10.5c106.2-53.1,192.5-123.9,256.5-210.3c63.2-85.6,103-184.2,118-293.2L800,226
				L743.2,195.5z M748.7,252c-5.3,36.3-22.4,155.1-109.2,271.6c-88.3,120-204.5,178.2-239.5,196.1c-35-17.9-151.2-76.1-239.5-196.1
				C73.6,407.1,56.5,288.4,51.2,252l52.8-28.3v-39.3l52.3-28.3v-39.2c72.3-34.5,152-57.2,243.7-69.4
				c91.7,12.2,171.4,34.9,243.7,69.4v39.2l52.3,28.3v39.3L748.7,252z"/>
		</g>
	</g>
	<g>
		<g>
			<path class="st0" d="M321.8,142l2.4,319.2l-2.3,1.3c-33.8-85.4-53.9-192-60.3-298.8c-16.6,7.5-34.2,16.7-52.2,28.1
				c7.3,97,23.9,181.8,53.6,262.3l-16.8,9.8c-44.7-62.5-73.8-138.6-93.9-228.8c-13.8,12.4-27.5,26.3-40.9,41.8
				c26.2,108.3,67.4,190.3,127.6,257.1l46.4-27.8c22.7,47.4,54.7,94.2,89.8,131.5V132.5C357.5,134.2,339.8,137.3,321.8,142z"/>
		</g>
	</g>
	<g>
		<g>
			<path class="st0" d="M620.7,306.5c18.9-20.9,22.9-36.2,22.9-54.6c0-26.1-21.6-49.3-52.9-69.3c-18.9-12.1-47.9-26.7-90.2-38.4
				c-24.3-6.5-49.7-10.5-75.8-11.6v505.3c106.2-54.7,232.4-204.5,233.1-280.7C657.9,333.8,645.6,318.5,620.7,306.5z M476.9,192.9
				c26.1,0,110.7,26.7,110.7,60.5c0,12.2-10.7,29.6-44.2,47.2l-66.5,35.7V192.9z M542.8,473.1c-14.9,17.2-39.4,43.5-65.9,64v-145
				c0,0,96-54,99.5-56.3c28.7,7.3,27.3,28.4,27.3,30.6C603.6,393,576.4,434.2,542.8,473.1z"/>
		</g>
	</g>
</g>
</svg>
